<?xml version="1.0" encoding="UTF-8"?>
<svg height="600" width="800" xmlns="http://www.w3.org/2000/svg" xmlns:xlink="http://www.w3.org/1999/xlink">
    <g id="Notes" font-family="'LucidaGrande', 'Lucida Grande', sans-serif" font-size="13">
        <rect fill="white" height="600.0" width="800.0" x="0.0" y="0.0" />
        <g font-size="13">
            <text x="18.0" y="176.0">Small</text>
            <text x="18.0" y="376.0">Medium</text>
            <text x="18.0" y="576.0">Large</text>
        </g>
        <g font-size="9">
            <text x="250.0" y="30.0">Ultralight</text>
            <text x="450.0" y="30.0">Regular</text>
            <text x="650.0" y="30.0">Black</text>
            <text id="template-version" fill="#505050" text-anchor="end" x="785.0" y="575.0">Template v.3.0</text>
            <a href="https://wangchujiang.com/#/app">
                <text fill="#505050" text-anchor="end" x="785.0" y="590.0">https://wangchujiang.com/#/app</text>
            </a>
        </g>
    </g>
    <g id="Guides" stroke="rgb(39, 170, 225)" stroke-width="0.5">
        <path id="Capline-S" d="M18,76 l800,0" />
        <path id="H-reference" d="M85,145.755 L87.685,145.755 L113.369,79.287 L114.052,79.287 L114.052,76 L112.148,76 L85,145.755 Z M95.693,121.536 L130.996,121.536 L130.263,119.313 L96.474,119.313 L95.693,121.536 Z M139.15,145.755 L141.787,145.755 L114.638,76 L113.466,76 L113.466,79.287 L139.15,145.755 Z" stroke="none" />
        <path id="Baseline-S" d="M18,146 l800,0" />
        <path id="left-margin-Ultralight-S" d="M219.991,56 l0,110" />
        <path id="right-margin-Ultralight-S" d="M310.009,56 l0,110" />
        <path id="left-margin-Regular-S" d="M419.991,56 l0,110" />
        <path id="right-margin-Regular-S" d="M510.009,56 l0,110" />
        <path id="left-margin-Black-S" d="M619.991,56 l0,110" />
        <path id="right-margin-Black-S" d="M710.009,56 l0,110" />
        <path id="Capline-M" d="M18,276 l800,0" />
        <path id="Baseline-M" d="M18,346 l800,0" />
        <path id="Capline-L" d="M18,476 l800,0" />
        <path id="Baseline-L" d="M18,546 l800,0" />
    </g>
    <g id="Symbols">
        <g id="Ultralight-S">
            <path d="M235.073,110.946 C235.073,94.411 248.522,80.962 265.051,80.962 C270.372,80.962 275.369,82.363 279.71,84.804 L282.085,80.463 C277.033,77.62 271.35,76.086 265.553,76 L264.984,76 C245.774,76.029 230.201,91.482 229.991,110.663 L229.991,110.999 C230,120.635 233.985,129.839 241.005,136.438 L244.462,132.704 C238.469,127.053 235.073,119.181 235.074,110.944 Z M289.393,85.925 L286.026,89.542 C291.79,95.172 295.038,102.889 295.035,110.946 C295.035,127.475 281.586,140.924 265.057,140.924 C259.855,140.924 254.963,139.594 250.698,137.254 L248.207,141.694 C253.352,144.521 259.128,146.002 264.999,146 C284.328,146 300.009,130.325 300.009,110.993 C300.005,101.545 296.177,92.502 289.396,85.924 Z M235.718,110.946 C235.718,119.002 239.038,126.7 244.896,132.228 L248.339,128.506 C243.521,123.936 240.794,117.587 240.795,110.947 C240.795,97.568 251.676,86.69 265.052,86.69 C269.378,86.69 273.439,87.83 276.96,89.826 L279.396,85.374 C275.02,82.903 270.078,81.607 265.052,81.614 C248.881,81.607 235.718,94.77 235.718,110.946 Z M289.308,110.946 C289.308,124.325 278.427,135.203 265.051,135.203 C261.014,135.208 257.04,134.2 253.493,132.271 L251.007,136.694 C255.313,139.051 260.143,140.284 265.051,140.279 C281.221,140.279 294.384,127.116 294.384,110.946 C294.384,102.754 291.009,95.347 285.583,90.02 L282.132,93.737 C286.73,98.282 289.315,104.481 289.308,110.946 Z M283.625,110.946 C283.615,121.197 275.307,129.504 265.056,129.512 C261.996,129.515 258.982,128.757 256.287,127.306 L253.813,131.702 C257.263,133.579 261.129,134.559 265.056,134.553 C278.079,134.553 288.672,123.963 288.672,110.94 C288.676,104.654 286.165,98.626 281.7,94.201 L278.26,97.897 C281.698,101.37 283.626,106.06 283.625,110.946 Z M241.444,110.946 C241.444,117.659 244.265,123.73 248.781,128.035 L252.203,124.33 C248.549,120.837 246.484,116.001 246.486,110.946 C246.496,100.696 254.802,92.39 265.052,92.38 C268.269,92.378 271.431,93.218 274.224,94.816 L276.645,90.391 C273.11,88.387 269.115,87.333 265.052,87.334 C252.038,87.334 241.445,97.923 241.445,110.946 Z M277.998,110.946 C277.998,118.092 272.203,123.888 265.054,123.89 C262.959,123.891 260.895,123.381 259.041,122.405 L256.606,126.746 C259.203,128.14 262.106,128.869 265.054,128.867 C274.947,128.857 282.965,120.839 282.975,110.946 C282.978,106.242 281.125,101.726 277.818,98.379 L274.428,102.026 C276.72,104.43 277.999,107.625 277.999,110.947 Z M247.13,110.946 C247.127,115.822 249.118,120.485 252.639,123.856 L256.014,120.209 L256.055,120.25 C253.527,117.818 252.1,114.461 252.102,110.953 C252.102,107.517 253.466,104.224 255.895,101.797 C258.323,99.37 261.616,98.007 265.049,98.009 C267.321,98.008 269.553,98.61 271.517,99.753 L273.909,95.383 C271.212,93.839 268.157,93.028 265.049,93.032 C255.177,93.017 247.134,101.063 247.134,110.947 Z M266.618,110.946 C266.567,111.774 265.881,112.42 265.051,112.42 C264.221,112.42 263.535,111.774 263.484,110.946 C263.484,110.08 264.187,109.378 265.053,109.378 C265.919,109.378 266.621,110.08 266.621,110.946 Z M255.124,110.946 C255.124,105.467 259.565,101.026 265.044,101.026 C270.523,101.026 274.964,105.467 274.964,110.946 C274.964,116.424 270.523,120.865 265.045,120.865 C259.567,120.865 255.126,116.424 255.126,110.946 Z M255.558,110.946 C255.564,116.183 259.808,120.426 265.045,120.433 C270.285,120.431 274.533,116.186 274.538,110.946 C274.538,105.705 270.289,101.456 265.048,101.456 C259.807,101.456 255.558,105.705 255.558,110.946 Z" />
        </g>
        <g id="Regular-S">
            <path d="M435.073,110.946 C435.073,94.411 448.522,80.962 465.051,80.962 C470.372,80.962 475.369,82.363 479.71,84.804 L482.085,80.463 C477.033,77.62 471.35,76.086 465.553,76 L464.984,76 C445.774,76.029 430.201,91.482 429.991,110.663 L429.991,110.999 C430,120.635 433.985,129.839 441.005,136.438 L444.462,132.704 C438.469,127.053 435.073,119.181 435.074,110.944 Z M489.393,85.925 L486.026,89.542 C491.79,95.172 495.038,102.889 495.035,110.946 C495.035,127.475 481.586,140.924 465.057,140.924 C459.855,140.924 454.963,139.594 450.698,137.254 L448.207,141.694 C453.352,144.521 459.128,146.002 464.999,146 C484.328,146 500.009,130.325 500.009,110.993 C500.005,101.545 496.177,92.502 489.396,85.924 Z M435.718,110.946 C435.718,119.002 439.038,126.7 444.896,132.228 L448.339,128.506 C443.521,123.936 440.794,117.587 440.795,110.947 C440.795,97.568 451.676,86.69 465.052,86.69 C469.378,86.69 473.439,87.83 476.96,89.826 L479.396,85.374 C475.02,82.903 470.078,81.607 465.052,81.614 C448.881,81.607 435.718,94.77 435.718,110.946 Z M489.308,110.946 C489.308,124.325 478.427,135.203 465.051,135.203 C461.014,135.208 457.04,134.2 453.493,132.271 L451.007,136.694 C455.313,139.051 460.143,140.284 465.051,140.279 C481.221,140.279 494.384,127.116 494.384,110.946 C494.384,102.754 491.009,95.347 485.583,90.02 L482.132,93.737 C486.73,98.282 489.315,104.481 489.308,110.946 Z M483.625,110.946 C483.615,121.197 475.307,129.504 465.056,129.512 C461.996,129.515 458.982,128.757 456.287,127.306 L453.813,131.702 C457.263,133.579 461.129,134.559 465.056,134.553 C478.079,134.553 488.672,123.963 488.672,110.94 C488.676,104.654 486.165,98.626 481.7,94.201 L478.26,97.897 C481.698,101.37 483.626,106.06 483.625,110.946 Z M441.444,110.946 C441.444,117.659 444.265,123.73 448.781,128.035 L452.203,124.33 C448.549,120.837 446.484,116.001 446.486,110.946 C446.496,100.696 454.802,92.39 465.052,92.38 C468.269,92.378 471.431,93.218 474.224,94.816 L476.645,90.391 C473.11,88.387 469.115,87.333 465.052,87.334 C452.038,87.334 441.445,97.923 441.445,110.946 Z M477.998,110.946 C477.998,118.092 472.203,123.888 465.054,123.89 C462.959,123.891 460.895,123.381 459.041,122.405 L456.606,126.746 C459.203,128.14 462.106,128.869 465.054,128.867 C474.947,128.857 482.965,120.839 482.975,110.946 C482.978,106.242 481.125,101.726 477.818,98.379 L474.428,102.026 C476.72,104.43 477.999,107.625 477.999,110.947 Z M447.13,110.946 C447.127,115.822 449.118,120.485 452.639,123.856 L456.014,120.209 L456.055,120.25 C453.527,117.818 452.1,114.461 452.102,110.953 C452.102,107.517 453.466,104.224 455.895,101.797 C458.323,99.37 461.616,98.007 465.049,98.009 C467.321,98.008 469.553,98.61 471.517,99.753 L473.909,95.383 C471.212,93.839 468.157,93.028 465.049,93.032 C455.177,93.017 447.134,101.063 447.134,110.947 Z M466.618,110.946 C466.567,111.774 465.881,112.42 465.051,112.42 C464.221,112.42 463.535,111.774 463.484,110.946 C463.484,110.08 464.187,109.378 465.053,109.378 C465.919,109.378 466.621,110.08 466.621,110.946 Z M455.124,110.946 C455.124,105.467 459.565,101.026 465.044,101.026 C470.523,101.026 474.964,105.467 474.964,110.946 C474.964,116.424 470.523,120.865 465.045,120.865 C459.567,120.865 455.126,116.424 455.126,110.946 Z M455.558,110.946 C455.565,116.183 459.808,120.426 465.045,120.433 C470.285,120.431 474.533,116.186 474.538,110.946 C474.538,105.705 470.289,101.456 465.048,101.456 C459.807,101.456 455.558,105.705 455.558,110.946 Z" />
        </g>
        <g id="Black-S">
            <path d="M635.073,110.946 C635.073,94.411 648.522,80.962 665.051,80.962 C670.372,80.962 675.37,82.363 679.71,84.804 L682.085,80.463 C677.033,77.62 671.35,76.086 665.553,76 L664.984,76 C645.774,76.029 630.201,91.482 629.991,110.663 L629.991,110.999 C630,120.635 633.985,129.839 641.005,136.438 L644.462,132.704 C638.469,127.053 635.073,119.181 635.074,110.944 Z M689.393,85.925 L686.026,89.542 C691.79,95.172 695.038,102.889 695.035,110.946 C695.035,127.475 681.586,140.924 665.057,140.924 C659.855,140.924 654.963,139.594 650.698,137.254 L648.207,141.694 C653.352,144.521 659.128,146.002 664.999,146 C684.328,146 700.009,130.325 700.009,110.993 C700.005,101.545 696.177,92.502 689.396,85.924 Z M635.718,110.946 C635.718,119.002 639.038,126.7 644.896,132.228 L648.339,128.506 C643.522,123.936 640.794,117.587 640.795,110.947 C640.795,97.568 651.676,86.69 665.052,86.69 C669.378,86.69 673.439,87.83 676.96,89.826 L679.396,85.374 C675.02,82.903 670.078,81.607 665.052,81.614 C648.881,81.607 635.718,94.77 635.718,110.946 Z M689.308,110.946 C689.308,124.325 678.427,135.203 665.051,135.203 C661.014,135.208 657.04,134.2 653.493,132.271 L651.007,136.694 C655.313,139.051 660.143,140.284 665.051,140.279 C681.222,140.279 694.384,127.116 694.384,110.946 C694.384,102.754 691.009,95.347 685.583,90.02 L682.132,93.737 C686.73,98.282 689.315,104.481 689.308,110.946 Z M683.625,110.946 C683.615,121.197 675.307,129.504 665.056,129.512 C661.996,129.515 658.982,128.757 656.287,127.306 L653.813,131.702 C657.263,133.579 661.129,134.559 665.056,134.553 C678.079,134.553 688.672,123.963 688.672,110.94 C688.676,104.654 686.166,98.626 681.7,94.201 L678.26,97.897 C681.698,101.37 683.626,106.06 683.625,110.946 Z M641.445,110.946 C641.445,117.659 644.266,123.73 648.781,128.035 L652.203,124.33 C648.549,120.837 646.484,116.001 646.486,110.946 C646.496,100.696 654.802,92.39 665.052,92.38 C668.269,92.378 671.431,93.218 674.224,94.816 L676.645,90.391 C673.11,88.387 669.115,87.333 665.052,87.334 C652.038,87.334 641.445,97.923 641.445,110.946 Z M677.998,110.946 C677.998,118.092 672.203,123.888 665.054,123.89 C662.959,123.891 660.895,123.381 659.042,122.405 L656.606,126.746 C659.203,128.14 662.106,128.869 665.054,128.867 C674.947,128.857 682.965,120.839 682.975,110.946 C682.978,106.242 681.125,101.726 677.818,98.379 L674.428,102.026 C676.72,104.43 677.999,107.625 677.999,110.947 Z M647.13,110.946 C647.127,115.822 649.118,120.485 652.639,123.856 L656.014,120.209 L656.055,120.25 C653.527,117.818 652.1,114.461 652.102,110.953 C652.102,107.517 653.466,104.224 655.895,101.797 C658.323,99.37 661.616,98.007 665.049,98.009 C667.321,98.008 669.553,98.61 671.517,99.753 L673.909,95.383 C671.212,93.839 668.157,93.028 665.049,93.032 C655.177,93.017 647.134,101.063 647.134,110.947 Z M666.618,110.946 C666.567,111.774 665.881,112.42 665.051,112.42 C664.221,112.42 663.535,111.774 663.484,110.946 C663.484,110.08 664.187,109.378 665.053,109.378 C665.919,109.378 666.621,110.08 666.621,110.946 Z M655.124,110.946 C655.124,105.467 659.565,101.026 665.044,101.026 C670.523,101.026 674.964,105.467 674.964,110.946 C674.964,116.424 670.523,120.865 665.045,120.865 C659.567,120.865 655.127,116.424 655.127,110.946 Z M655.558,110.946 C655.565,116.183 659.808,120.426 665.045,120.433 C670.285,120.431 674.533,116.186 674.538,110.946 C674.538,105.705 670.289,101.456 665.048,101.456 C659.807,101.456 655.558,105.705 655.558,110.946 Z" />
        </g>
    </g>
</svg>