<?xml version="1.0" encoding="UTF-8"?>
<svg height="600" width="800" xmlns="http://www.w3.org/2000/svg" xmlns:xlink="http://www.w3.org/1999/xlink">
    <g id="Notes" font-family="'LucidaGrande', 'Lucida Grande', sans-serif" font-size="13">
        <rect fill="white" height="600.0" width="800.0" x="0.0" y="0.0" />
        <g font-size="13">
            <text x="18.0" y="176.0">Small</text>
            <text x="18.0" y="376.0">Medium</text>
            <text x="18.0" y="576.0">Large</text>
        </g>
        <g font-size="9">
            <text x="250.0" y="30.0">Ultralight</text>
            <text x="450.0" y="30.0">Regular</text>
            <text x="650.0" y="30.0">Black</text>
            <text id="template-version" fill="#505050" text-anchor="end" x="785.0" y="575.0">Template v.3.0</text>
            <a href="https://wangchujiang.com/#/app">
                <text fill="#505050" text-anchor="end" x="785.0" y="590.0">https://wangchujiang.com/#/app</text>
            </a>
        </g>
    </g>
    <g id="Guides" stroke="rgb(39, 170, 225)" stroke-width="0.5">
        <path id="Capline-S" d="M18,76 l800,0" />
        <path id="H-reference" d="M85,145.755 L87.685,145.755 L113.369,79.287 L114.052,79.287 L114.052,76 L112.148,76 L85,145.755 Z M95.693,121.536 L130.996,121.536 L130.263,119.313 L96.474,119.313 L95.693,121.536 Z M139.15,145.755 L141.787,145.755 L114.638,76 L113.466,76 L113.466,79.287 L139.15,145.755 Z" stroke="none" />
        <path id="Baseline-S" d="M18,146 l800,0" />
        <path id="left-margin-Ultralight-S" d="M220.001,56 l0,110" />
        <path id="right-margin-Ultralight-S" d="M309.999,56 l0,110" />
        <path id="left-margin-Regular-S" d="M420.001,56 l0,110" />
        <path id="right-margin-Regular-S" d="M509.999,56 l0,110" />
        <path id="left-margin-Black-S" d="M620.001,56 l0,110" />
        <path id="right-margin-Black-S" d="M709.999,56 l0,110" />
        <path id="Capline-M" d="M18,276 l800,0" />
        <path id="Baseline-M" d="M18,346 l800,0" />
        <path id="Capline-L" d="M18,476 l800,0" />
        <path id="Baseline-L" d="M18,546 l800,0" />
    </g>
    <g id="Symbols">
        <g id="Ultralight-S">
            <path d="M254.233,104.719 L275.767,104.719 L275.767,111.897 L254.233,111.897 L254.233,104.719 Z" />
            <path d="M256.027,117.281 L261.411,126.255 L268.589,126.255 L273.973,117.281 Z" />
            <path d="M296.149,79.851 C293.582,77.284 290.491,76 286.876,76 L243.125,76 C239.51,76 236.419,77.284 233.851,79.851 C231.284,82.418 230.001,85.51 230.001,89.125 L230.001,132.875 C230.001,136.49 231.284,139.581 233.851,142.149 C236.419,144.716 239.51,146 243.125,146 L286.875,146 C290.49,146 293.582,144.716 296.148,142.149 C298.716,139.581 299.999,136.49 299.999,132.875 L299.999,89.125 C299.999,85.51 298.716,82.418 296.149,79.851 Z M286.536,131.638 L243.465,131.638 L243.465,126.255 L256.027,126.255 L251.536,118.77 L252.659,117.281 L248.848,117.281 L248.848,99.335 L281.151,99.335 L281.151,117.281 L276.893,117.281 L278.46,118.831 L273.973,126.255 L286.536,126.255 L286.536,131.638 Z M286.536,95.746 L243.465,95.746 L243.465,90.362 L286.536,90.362 L286.536,95.746 Z" />
        </g>
        <g id="Regular-S">
            <path d="M454.233,104.719 L475.767,104.719 L475.767,111.897 L454.233,111.897 L454.233,104.719 Z" />
            <path d="M456.027,117.281 L461.411,126.255 L468.589,126.255 L473.973,117.281 Z" />
            <path d="M496.149,79.851 C493.582,77.284 490.491,76 486.876,76 L443.125,76 C439.51,76 436.419,77.284 433.851,79.851 C431.284,82.418 430.001,85.51 430.001,89.125 L430.001,132.875 C430.001,136.49 431.284,139.581 433.851,142.149 C436.419,144.716 439.51,146 443.125,146 L486.875,146 C490.49,146 493.582,144.716 496.148,142.149 C498.716,139.581 499.999,136.49 499.999,132.875 L499.999,89.125 C499.999,85.51 498.716,82.418 496.149,79.851 Z M486.536,131.638 L443.465,131.638 L443.465,126.255 L456.027,126.255 L451.536,118.77 L452.659,117.281 L448.848,117.281 L448.848,99.335 L481.151,99.335 L481.151,117.281 L476.893,117.281 L478.46,118.831 L473.973,126.255 L486.536,126.255 L486.536,131.638 Z M486.536,95.746 L443.465,95.746 L443.465,90.362 L486.536,90.362 L486.536,95.746 Z" />
        </g>
        <g id="Black-S">
            <path d="M654.233,104.719 L675.767,104.719 L675.767,111.897 L654.233,111.897 L654.233,104.719 Z" />
            <path d="M656.027,117.281 L661.411,126.255 L668.589,126.255 L673.973,117.281 Z" />
            <path d="M696.149,79.851 C693.582,77.284 690.491,76 686.876,76 L643.125,76 C639.51,76 636.419,77.284 633.851,79.851 C631.284,82.418 630.001,85.51 630.001,89.125 L630.001,132.875 C630.001,136.49 631.284,139.581 633.851,142.149 C636.419,144.716 639.51,146 643.125,146 L686.875,146 C690.49,146 693.582,144.716 696.148,142.149 C698.716,139.581 699.999,136.49 699.999,132.875 L699.999,89.125 C699.999,85.51 698.716,82.418 696.149,79.851 Z M686.536,131.638 L643.465,131.638 L643.465,126.255 L656.027,126.255 L651.536,118.77 L652.659,117.281 L648.848,117.281 L648.848,99.335 L681.151,99.335 L681.151,117.281 L676.893,117.281 L678.46,118.831 L673.973,126.255 L686.536,126.255 L686.536,131.638 Z M686.536,95.746 L643.465,95.746 L643.465,90.362 L686.536,90.362 L686.536,95.746 Z" />
        </g>
    </g>
</svg>