<svg width="397" height="333" viewBox="0 0 397 333" fill="none" xmlns="http://www.w3.org/2000/svg">
<g id="Instruction Grayscale Dark without header" filter="url(#filter0_ddddddd_50_219)">
<rect width="397" height="333" fill="black"/>
<g id="Container">
<g id="Group">
<g id="Button">
<mask id="path-2-inside-1_50_219" fill="white">
<path d="M16 24C16 21.7909 17.7909 20 20 20H108V70H20C17.7909 70 16 68.2091 16 66V24Z"/>
</mask>
<path d="M108 20H109V19H108V20ZM108 70V71H109V70H108ZM20 21H108V19H20V21ZM107 20V70H109V20H107ZM108 69H20V71H108V69ZM17 66V24H15V66H17ZM20 69C18.3431 69 17 67.6569 17 66H15C15 68.7614 17.2386 71 20 71V69ZM20 19C17.2386 19 15 21.2386 15 24H17C17 22.3431 18.3431 21 20 21V19Z" fill="#515151" mask="url(#path-2-inside-1_50_219)"/>
<path id="Symbol" d="M69.6874 43.4688C69.8124 43.375 69.9999 43.4688 69.9999 43.625V50C69.9999 50.8438 69.3124 51.5 68.4999 51.5H55.4999C54.6562 51.5 53.9999 50.8438 53.9999 50V43.625C53.9999 43.4688 54.1562 43.375 54.2812 43.4688C54.9999 44.0312 55.9062 44.7188 59.0937 47.0312C59.7499 47.5 60.8749 48.5312 61.9999 48.5312C63.0937 48.5312 64.2499 47.5 64.8749 47.0312C68.0624 44.7188 68.9687 44.0312 69.6874 43.4688ZM61.9999 47.5C61.2499 47.5312 60.2187 46.5938 59.6874 46.2188C55.5312 43.2188 55.2187 42.9375 54.2812 42.1875C54.0937 42.0625 53.9999 41.8438 53.9999 41.5938V41C53.9999 40.1875 54.6562 39.5 55.4999 39.5H68.4999C69.3124 39.5 69.9999 40.1875 69.9999 41V41.5938C69.9999 41.8438 69.8749 42.0625 69.6874 42.1875C68.7499 42.9375 68.4374 43.2188 64.2812 46.2188C63.7499 46.5938 62.7187 47.5312 61.9999 47.5Z" fill="#E6E6E6" fill-opacity="0.95"/>
</g>
<g id="Button:margin">
<g id="Button_2">
<mask id="path-5-inside-2_50_219" fill="white">
<path d="M107 20H199V70H107V20Z"/>
</mask>
<path d="M107 20H199V70H107V20Z" fill="#515151"/>
<path d="M107 20V19H106V20H107ZM199 20H200V19H199V20ZM199 70V71H200V70H199ZM107 70H106V71H107V70ZM107 21H199V19H107V21ZM198 20V70H200V20H198ZM199 69H107V71H199V69ZM108 70V20H106V70H108Z" fill="#515151" mask="url(#path-5-inside-2_50_219)"/>
<g id="SVG">
<path id="Vector" d="M154.306 39.0264C153.915 39.0264 153.579 39.1608 153.298 39.4297C153.017 39.6985 152.864 40.0346 152.84 40.4379C152.815 40.8412 152.94 41.1957 153.215 41.5012C153.49 41.8067 153.832 41.9717 154.242 41.9962C154.651 42.0206 155.008 41.8953 155.314 41.6204C155.619 41.3454 155.784 41.0032 155.809 40.5938C155.833 40.1843 155.708 39.8238 155.433 39.5122C155.158 39.2005 154.813 39.0386 154.397 39.0264H154.306ZM152.711 40.7679L148.459 42.9311C148.704 43.1755 148.856 43.4688 148.918 43.811L153.151 41.6479C152.919 41.4034 152.772 41.1101 152.711 40.7679ZM155.772 41.2629C155.613 41.5684 155.381 41.8006 155.076 41.9595L158.43 45.3326C158.588 45.0271 158.827 44.7949 159.144 44.636L155.772 41.2629ZM153.17 41.6662L150.695 46.5242L151.428 47.2575L154.049 42.1245C153.707 42.0634 153.414 41.9106 153.17 41.6662ZM155.076 41.9595C154.807 42.0939 154.526 42.155 154.233 42.1428L154.086 42.1245L154.471 44.5443L155.497 44.7093L155.076 41.9595ZM147.268 42.5828C146.877 42.5828 146.541 42.7203 146.26 42.9953C145.979 43.2702 145.826 43.6063 145.802 44.0035C145.777 44.4007 145.903 44.7551 146.178 45.0668C146.452 45.3784 146.798 45.5434 147.213 45.5618C147.628 45.5801 147.989 45.4518 148.294 45.1768C148.6 44.9018 148.762 44.5596 148.78 44.1502C148.798 43.7408 148.67 43.3833 148.395 43.0778C148.12 42.7722 147.781 42.6072 147.378 42.5828H147.268ZM148.918 43.8294C148.93 43.9394 148.936 44.0494 148.936 44.1594C148.924 44.3916 148.863 44.6054 148.753 44.801L151.172 45.186L151.648 44.2693L148.918 43.8294ZM153.041 44.4893L152.565 45.4243L158.265 46.3225C158.252 46.2248 158.246 46.1209 158.246 46.0109C158.258 45.7787 158.32 45.5587 158.43 45.3509L153.041 44.4893ZM159.859 44.5993C159.468 44.6115 159.132 44.7521 158.851 45.021C158.57 45.2898 158.42 45.6259 158.402 46.0292C158.384 46.4325 158.512 46.787 158.787 47.0925C159.062 47.398 159.404 47.563 159.813 47.5875C160.223 47.6119 160.58 47.4866 160.885 47.2116C161.191 46.9367 161.356 46.5914 161.38 46.1759C161.405 45.7604 161.279 45.3998 161.005 45.0943C160.73 44.7888 160.384 44.6238 159.969 44.5993H159.859ZM148.753 44.8376C148.594 45.1432 148.355 45.3754 148.038 45.5343L151.887 49.384L152.821 48.9257L148.753 44.8376ZM148.019 45.5343C147.763 45.6687 147.494 45.7298 147.213 45.7176L147.048 45.6993L147.781 50.3923C148.038 50.2701 148.313 50.2151 148.606 50.2273L148.753 50.2456L148.019 45.5343ZM154.691 45.9376L155.57 51.6388C155.827 51.5166 156.096 51.4616 156.377 51.4739L156.56 51.4922L155.717 46.1026L154.691 45.9376ZM158.265 46.3592L156.102 47.4591L156.249 48.4857L158.723 47.2391C158.478 46.9947 158.326 46.7014 158.265 46.3592ZM158.741 47.2575L156.56 51.4922C156.902 51.5533 157.195 51.7061 157.44 51.9505L159.621 47.7158C159.279 47.6547 158.985 47.5019 158.741 47.2575ZM150.035 47.7891L148.789 50.2456C149.131 50.3067 149.425 50.4595 149.669 50.7039L150.769 48.5224L150.035 47.7891ZM154.837 48.1008L149.687 50.7222C149.919 50.9667 150.066 51.26 150.127 51.6022L154.984 49.1274L154.837 48.1008ZM153.829 49.934L152.895 50.3923L154.837 52.3538C154.996 52.0483 155.234 51.8161 155.552 51.6572L153.829 49.934ZM148.496 50.3739C148.105 50.3739 147.766 50.5114 147.479 50.7864C147.192 51.0614 147.039 51.3975 147.021 51.7947C147.002 52.1919 147.131 52.5432 147.405 52.8488C147.68 53.1543 148.023 53.3193 148.432 53.3437C148.841 53.3682 149.199 53.2429 149.504 52.9679C149.809 52.6929 149.974 52.3507 149.999 51.9413C150.023 51.5319 149.898 51.1744 149.623 50.8689C149.348 50.5634 149.003 50.3984 148.588 50.3739H148.496ZM150.127 51.6205C150.152 51.7305 150.158 51.8405 150.145 51.9505C150.133 52.1827 150.078 52.3966 149.981 52.5921L154.672 53.3437C154.66 53.2337 154.654 53.1237 154.654 53.0138C154.666 52.7938 154.727 52.5799 154.837 52.3721L150.127 51.6205ZM156.267 51.6205C155.876 51.6205 155.54 51.758 155.259 52.033C154.978 52.308 154.828 52.6441 154.81 53.0413C154.792 53.4384 154.917 53.7929 155.186 54.1045C155.454 54.4162 155.796 54.5812 156.212 54.5995C156.627 54.6178 156.988 54.4895 157.293 54.2145C157.599 53.9395 157.764 53.5973 157.788 53.1879C157.813 52.7785 157.687 52.421 157.412 52.1155C157.137 51.8099 156.792 51.645 156.377 51.6205H156.267Z" fill="white"/>
</g>
</g>
</g>
<g id="Button:margin_2">
<g id="Button_3">
<mask id="path-8-inside-3_50_219" fill="white">
<path d="M198.395 20H289.605V70H198.395V20Z"/>
</mask>
<path d="M198.395 20V19H197.395V20H198.395ZM289.605 20H290.605V19H289.605V20ZM289.605 70V71H290.605V70H289.605ZM198.395 70H197.395V71H198.395V70ZM198.395 21H289.605V19H198.395V21ZM288.605 20V70H290.605V20H288.605ZM289.605 69H198.395V71H289.605V69ZM199.395 70V20H197.395V70H199.395Z" fill="#515151" mask="url(#path-8-inside-3_50_219)"/>
<path id="Vector_2" d="M248.37 44.6852C248.445 44.7158 248.513 44.7497 248.584 44.7802C249.573 45.2587 250.299 45.9747 250.678 46.8638C251.21 48.1024 251.261 50.1146 249.651 51.7231C248.424 52.9515 246.93 53.5046 244.819 53.5216H244.808C242.429 53.5046 240.603 52.7038 239.372 51.1394C238.278 49.7481 237.715 47.8105 237.695 45.3843V45.3741V45.3673C237.712 42.941 238.274 41.0034 239.369 39.6121C240.599 38.0478 242.429 37.2469 244.808 37.23H244.819C247.201 37.2469 249.051 38.0444 250.319 39.602C250.942 40.3722 251.403 41.2986 251.695 42.3743L250.326 42.7408C250.085 41.8653 249.722 41.1188 249.234 40.5216C248.245 39.3067 246.76 38.6823 244.812 38.6688C242.88 38.6857 241.419 39.3067 240.467 40.5148C239.579 41.6448 239.118 43.2804 239.101 45.3741C239.118 47.4678 239.579 49.1034 240.467 50.2368C241.416 51.4448 242.88 52.0658 244.812 52.0828C246.554 52.0692 247.706 51.6552 248.665 50.6949C249.76 49.6022 249.739 48.2585 249.39 47.4407C249.184 46.9588 248.811 46.5584 248.309 46.2564C248.184 47.1692 247.909 47.8954 247.472 48.4553C246.893 49.195 246.069 49.5954 245.008 49.6531C244.209 49.6972 243.439 49.5038 242.843 49.1102C242.138 48.6419 241.724 47.9293 241.68 47.0979C241.596 45.4589 242.89 44.2814 244.907 44.166C245.622 44.1253 246.293 44.1559 246.913 44.2611C246.832 43.7588 246.666 43.3584 246.418 43.0666C246.079 42.6696 245.551 42.466 244.852 42.4626H244.829C244.266 42.4626 243.507 42.6187 243.022 43.355L241.857 42.5542C242.507 41.5667 243.561 41.0238 244.832 41.0238H244.859C246.981 41.0373 248.245 42.3642 248.374 44.6784L248.367 44.6852H248.37ZM243.083 47.0199C243.127 47.8716 244.046 48.2686 244.934 48.2177C245.801 48.1702 246.784 47.8309 246.95 45.7338C246.503 45.6354 246.008 45.5845 245.479 45.5845C245.317 45.5845 245.154 45.5879 244.991 45.598C243.537 45.6795 243.053 46.3853 243.087 47.0165L243.083 47.0199Z" fill="#E6E6E6" fill-opacity="0.95"/>
</g>
</g>
<g id="Button:margin_3">
<g id="Button_4">
<mask id="path-11-inside-4_50_219" fill="white">
<path d="M289.59 20H376.41C378.619 20 380.41 21.7909 380.41 24V66C380.41 68.2091 378.619 70 376.41 70H289.59V20Z"/>
</mask>
<path d="M289.59 20V19H288.59V20H289.59ZM289.59 70H288.59V71H289.59V70ZM289.59 21H376.41V19H289.59V21ZM379.41 24V66H381.41V24H379.41ZM376.41 69H289.59V71H376.41V69ZM290.59 70V20H288.59V70H290.59ZM379.41 66C379.41 67.6569 378.067 69 376.41 69V71C379.171 71 381.41 68.7614 381.41 66H379.41ZM376.41 21C378.067 21 379.41 22.3431 379.41 24H381.41C381.41 21.2386 379.171 19 376.41 19V21Z" fill="#515151" mask="url(#path-11-inside-4_50_219)"/>
<path id="Vector_3" d="M331.13 40.803C332.681 41.9638 334.349 44.3225 334.96 45.5896C335.571 44.3252 337.239 41.9664 338.79 40.803C339.908 39.9636 341.72 39.3155 341.72 41.3821C341.72 41.7938 341.484 44.8485 341.345 45.3452C340.862 47.0664 339.104 47.5074 337.539 47.2391C340.272 47.7039 340.968 49.2446 339.465 50.7852C336.612 53.7124 335.366 50.0521 335.048 49.1144C335.002 48.9843 334.978 48.9072 334.96 48.9072C334.941 48.9072 334.917 48.9869 334.872 49.1144C334.553 50.0521 333.305 53.7124 330.455 50.7852C328.954 49.2446 329.647 47.7039 332.381 47.2391C330.816 47.5074 329.058 47.0664 328.577 45.3425C328.436 44.8458 328.2 41.7911 328.2 41.3794C328.2 39.3128 330.011 39.961 331.13 40.8003V40.803Z" fill="#E6E6E6" fill-opacity="0.95"/>
</g>
</g>
</g>
<g id="Form">
<g id="Combobox menu &#226;&#134;&#146; Input">
<mask id="path-14-inside-5_50_219" fill="white">
<path d="M16 90C16 87.7909 17.7909 86 20 86H377C379.209 86 381 87.7909 381 90V132C381 134.209 379.209 136 377 136H20C17.7909 136 16 134.209 16 132V90Z"/>
</mask>
<path d="M16 90C16 87.7909 17.7909 86 20 86H377C379.209 86 381 87.7909 381 90V132C381 134.209 379.209 136 377 136H20C17.7909 136 16 134.209 16 132V90Z" fill="#FBFCFC"/>
<path d="M20 87H377V85H20V87ZM380 90V132H382V90H380ZM377 135H20V137H377V135ZM17 132V90H15V132H17ZM20 135C18.3431 135 17 133.657 17 132H15C15 134.761 17.2386 137 20 137V135ZM380 132C380 133.657 378.657 135 377 135V137C379.761 137 382 134.761 382 132H380ZM377 87C378.657 87 380 88.3431 380 90H382C382 87.2386 379.761 85 377 85V87ZM20 85C17.2386 85 15 87.2386 15 90H17C17 88.3431 18.3431 87 20 87V85Z" fill="#CFD5E2" mask="url(#path-14-inside-5_50_219)"/>
<g id="Container_2" clip-path="url(#clip0_50_219)">
<path id="mastodon.social" d="M34.1406 117.5V108.898H36.4219V110.242H36.5625C36.9297 109.273 37.8203 108.711 38.9453 108.711C40.1172 108.711 40.9844 109.305 41.3359 110.297H41.4766C41.8672 109.344 42.8672 108.711 44.0703 108.711C45.7812 108.711 46.8516 109.82 46.8516 111.594V117.5H44.5703V112.164C44.5703 111.125 44.1016 110.602 43.1484 110.602C42.2266 110.602 41.6328 111.281 41.6328 112.211V117.5H39.3516V112.062C39.3516 111.141 38.8281 110.602 37.9375 110.602C37.0469 110.602 36.4219 111.328 36.4219 112.312V117.5H34.1406ZM51.4062 117.633C49.7656 117.633 48.6016 116.617 48.6016 115.055V115.039C48.6016 113.492 49.7969 112.586 51.9375 112.461L54.0156 112.336V111.625C54.0156 110.883 53.5078 110.461 52.5703 110.461C51.75 110.461 51.2266 110.75 51.0469 111.258L51.0312 111.289H48.9219L48.9297 111.219C49.1094 109.711 50.5312 108.711 52.6953 108.711C54.9766 108.711 56.2656 109.789 56.2656 111.625V117.5H54.0156V116.359H53.875C53.4375 117.156 52.5312 117.633 51.4062 117.633ZM50.8281 114.914C50.8281 115.57 51.3828 115.969 52.1719 115.969C53.2266 115.969 54.0156 115.273 54.0156 114.367V113.734L52.2812 113.844C51.3047 113.906 50.8281 114.273 50.8281 114.898V114.914ZM61.9219 117.68C59.5859 117.68 58.2578 116.633 58.0938 115.156L58.0859 115.125H60.3281L60.3438 115.156C60.5234 115.688 61.0469 116.07 61.9453 116.07C62.8203 116.07 63.4141 115.695 63.4141 115.125V115.109C63.4141 114.648 63.0703 114.359 62.1953 114.164L60.7578 113.859C59.1172 113.508 58.3047 112.703 58.3047 111.414V111.406C58.3047 109.789 59.7422 108.711 61.8906 108.711C64.1484 108.711 65.3984 109.836 65.4922 111.219V111.25H63.375L63.3672 111.211C63.2422 110.75 62.7344 110.32 61.8828 110.32C61.0938 110.32 60.5312 110.688 60.5312 111.266V111.273C60.5312 111.734 60.8516 112 61.7422 112.195L63.1719 112.5C64.8906 112.867 65.6953 113.586 65.6953 114.859V114.867C65.6953 116.57 64.125 117.68 61.9219 117.68ZM71.0859 117.531C68.9922 117.531 68.1484 116.852 68.1484 115.18V110.617H66.8203V108.898H68.1484V106.844H70.4531V108.898H72.2266V110.617H70.4531V114.656C70.4531 115.43 70.7812 115.773 71.5547 115.773C71.8516 115.773 72.0078 115.758 72.2266 115.734V117.43C71.9453 117.484 71.5234 117.531 71.0859 117.531ZM77.8828 117.68C75.2344 117.68 73.6406 116 73.6406 113.203V113.188C73.6406 110.414 75.2578 108.711 77.8828 108.711C80.5078 108.711 82.125 110.406 82.125 113.188V113.203C82.125 116.008 80.5312 117.68 77.8828 117.68ZM77.8828 115.891C79.0938 115.891 79.7891 114.898 79.7891 113.203V113.188C79.7891 111.508 79.0859 110.5 77.8828 110.5C76.6719 110.5 75.9766 111.508 75.9766 113.188V113.203C75.9766 114.898 76.6641 115.891 77.8828 115.891ZM87.0547 117.633C84.9062 117.633 83.5625 115.953 83.5625 113.203V113.188C83.5625 110.422 84.875 108.758 87.0547 108.758C88.2344 108.758 89.1953 109.336 89.625 110.273H89.7656V105.609H92.0469V117.5H89.7656V116.164H89.625C89.1797 117.094 88.2656 117.633 87.0547 117.633ZM87.8281 115.742C89.0391 115.742 89.7891 114.789 89.7891 113.211V113.195C89.7891 111.617 89.0312 110.648 87.8281 110.648C86.625 110.648 85.8828 111.617 85.8828 113.188V113.203C85.8828 114.789 86.625 115.742 87.8281 115.742ZM98.2266 117.68C95.5781 117.68 93.9844 116 93.9844 113.203V113.188C93.9844 110.414 95.6016 108.711 98.2266 108.711C100.852 108.711 102.469 110.406 102.469 113.188V113.203C102.469 116.008 100.875 117.68 98.2266 117.68ZM98.2266 115.891C99.4375 115.891 100.133 114.898 100.133 113.203V113.188C100.133 111.508 99.4297 110.5 98.2266 110.5C97.0156 110.5 96.3203 111.508 96.3203 113.188V113.203C96.3203 114.898 97.0078 115.891 98.2266 115.891ZM104.328 117.5V108.898H106.609V110.227H106.75C107.141 109.297 107.992 108.711 109.219 108.711C111.133 108.711 112.164 109.883 112.164 111.938V117.5H109.883V112.453C109.883 111.242 109.383 110.602 108.305 110.602C107.25 110.602 106.609 111.359 106.609 112.523V117.5H104.328ZM116.016 117.695C115.219 117.695 114.641 117.109 114.641 116.336C114.641 115.562 115.219 114.984 116.016 114.984C116.82 114.984 117.391 115.562 117.391 116.336C117.391 117.109 116.82 117.695 116.016 117.695ZM123.359 117.68C121.023 117.68 119.695 116.633 119.531 115.156L119.523 115.125H121.766L121.781 115.156C121.961 115.688 122.484 116.07 123.383 116.07C124.258 116.07 124.852 115.695 124.852 115.125V115.109C124.852 114.648 124.508 114.359 123.633 114.164L122.195 113.859C120.555 113.508 119.742 112.703 119.742 111.414V111.406C119.742 109.789 121.18 108.711 123.328 108.711C125.586 108.711 126.836 109.836 126.93 111.219V111.25H124.812L124.805 111.211C124.68 110.75 124.172 110.32 123.32 110.32C122.531 110.32 121.969 110.688 121.969 111.266V111.273C121.969 111.734 122.289 112 123.18 112.195L124.609 112.5C126.328 112.867 127.133 113.586 127.133 114.859V114.867C127.133 116.57 125.562 117.68 123.359 117.68ZM132.82 117.68C130.172 117.68 128.578 116 128.578 113.203V113.188C128.578 110.414 130.195 108.711 132.82 108.711C135.445 108.711 137.062 110.406 137.062 113.188V113.203C137.062 116.008 135.469 117.68 132.82 117.68ZM132.82 115.891C134.031 115.891 134.727 114.898 134.727 113.203V113.188C134.727 111.508 134.023 110.5 132.82 110.5C131.609 110.5 130.914 111.508 130.914 113.188V113.203C130.914 114.898 131.602 115.891 132.82 115.891ZM142.711 117.68C140.023 117.68 138.5 116.047 138.5 113.188V113.172C138.5 110.344 140.016 108.711 142.711 108.711C144.992 108.711 146.344 109.953 146.547 111.875V111.898H144.422L144.414 111.883C144.266 111.047 143.695 110.5 142.719 110.5C141.492 110.5 140.82 111.453 140.82 113.172V113.188C140.82 114.93 141.5 115.891 142.719 115.891C143.656 115.891 144.211 115.445 144.414 114.586L144.43 114.555H146.539L146.531 114.602C146.297 116.477 144.953 117.68 142.711 117.68ZM149.492 107.578C148.789 107.578 148.203 107.016 148.203 106.312C148.203 105.602 148.789 105.039 149.492 105.039C150.195 105.039 150.773 105.602 150.773 106.312C150.773 107.016 150.195 107.578 149.492 107.578ZM148.344 117.5V108.898H150.625V117.5H148.344ZM155.266 117.633C153.625 117.633 152.461 116.617 152.461 115.055V115.039C152.461 113.492 153.656 112.586 155.797 112.461L157.875 112.336V111.625C157.875 110.883 157.367 110.461 156.43 110.461C155.609 110.461 155.086 110.75 154.906 111.258L154.891 111.289H152.781L152.789 111.219C152.969 109.711 154.391 108.711 156.555 108.711C158.836 108.711 160.125 109.789 160.125 111.625V117.5H157.875V116.359H157.734C157.297 117.156 156.391 117.633 155.266 117.633ZM154.688 114.914C154.688 115.57 155.242 115.969 156.031 115.969C157.086 115.969 157.875 115.273 157.875 114.367V113.734L156.141 113.844C155.164 113.906 154.688 114.273 154.688 114.898V114.914ZM162.438 117.5V105.609H164.719V117.5H162.438Z" fill="#515151"/>
</g>
</g>
<g id="Small">
<rect id="Rectangle" x="16" y="149.681" width="301" height="11.6375" fill="#3E3E3E"/>
<rect id="Rectangle_2" x="16" y="168.319" width="314" height="12" fill="#3E3E3E"/>
</g>
<g id="Input">
<mask id="path-19-inside-6_50_219" fill="white">
<path d="M16 198C16 195.791 17.7909 194 20 194H377C379.209 194 381 195.791 381 198V240C381 242.209 379.209 244 377 244H20C17.7909 244 16 242.209 16 240V198Z"/>
</mask>
<path d="M16 198C16 195.791 17.7909 194 20 194H377C379.209 194 381 195.791 381 198V240C381 242.209 379.209 244 377 244H20C17.7909 244 16 242.209 16 240V198Z" fill="#515151"/>
<path d="M20 195H377V193H20V195ZM380 198V240H382V198H380ZM377 243H20V245H377V243ZM17 240V198H15V240H17ZM20 243C18.3431 243 17 241.657 17 240H15C15 242.761 17.2386 245 20 245V243ZM380 240C380 241.657 378.657 243 377 243V245C379.761 245 382 242.761 382 240H380ZM377 195C378.657 195 380 196.343 380 198H382C382 195.239 379.761 193 377 193V195ZM20 193C17.2386 193 15 195.239 15 198H17C17 196.343 18.3431 195 20 195V193Z" fill="#515151" mask="url(#path-19-inside-6_50_219)"/>
<path id="Authorize via Fediverse instance" d="M68.6797 224.5L72.5938 213.227H75.3672L79.2891 224.5H76.8047L75.9688 221.766H71.9922L71.1562 224.5H68.6797ZM73.9141 215.477L72.5312 220H75.4297L74.0547 215.477H73.9141ZM83.3516 224.68C81.4219 224.68 80.4297 223.508 80.4297 221.461V215.898H82.7109V220.938C82.7109 222.156 83.1719 222.789 84.25 222.789C85.375 222.789 85.9844 222.031 85.9844 220.867V215.898H88.2656V224.5H85.9844V223.172H85.8438C85.4531 224.109 84.5781 224.68 83.3516 224.68ZM94.125 224.531C92.0312 224.531 91.1875 223.852 91.1875 222.18V217.617H89.8594V215.898H91.1875V213.844H93.4922V215.898H95.2656V217.617H93.4922V221.656C93.4922 222.43 93.8203 222.773 94.5938 222.773C94.8906 222.773 95.0469 222.758 95.2656 222.734V224.43C94.9844 224.484 94.5625 224.531 94.125 224.531ZM97.2422 224.5V212.609H99.5234V217.227H99.6641C100.055 216.297 100.906 215.711 102.133 215.711C104.047 215.711 105.078 216.883 105.078 218.938V224.5H102.797V219.453C102.797 218.242 102.297 217.602 101.219 217.602C100.164 217.602 99.5234 218.359 99.5234 219.523V224.5H97.2422ZM111.109 224.68C108.461 224.68 106.867 223 106.867 220.203V220.188C106.867 217.414 108.484 215.711 111.109 215.711C113.734 215.711 115.352 217.406 115.352 220.188V220.203C115.352 223.008 113.758 224.68 111.109 224.68ZM111.109 222.891C112.32 222.891 113.016 221.898 113.016 220.203V220.188C113.016 218.508 112.312 217.5 111.109 217.5C109.898 217.5 109.203 218.508 109.203 220.188V220.203C109.203 221.898 109.891 222.891 111.109 222.891ZM117.211 224.5V215.898H119.492V217.234H119.633C119.906 216.305 120.688 215.758 121.805 215.758C122.109 215.758 122.43 215.805 122.656 215.867V217.859C122.312 217.781 121.961 217.727 121.609 217.727C120.312 217.727 119.492 218.469 119.492 219.688V224.5H117.211ZM125.344 214.578C124.641 214.578 124.055 214.016 124.055 213.312C124.055 212.602 124.641 212.039 125.344 212.039C126.047 212.039 126.625 212.602 126.625 213.312C126.625 214.016 126.047 214.578 125.344 214.578ZM124.195 224.5V215.898H126.477V224.5H124.195ZM128.578 224.5V223.188L132.961 217.758V217.617H128.641V215.898H135.656V217.352L131.523 222.641V222.781H135.758V224.5H128.578ZM141.414 224.68C138.797 224.68 137.211 222.969 137.211 220.211V220.203C137.211 217.469 138.812 215.711 141.32 215.711C143.828 215.711 145.391 217.43 145.391 220.031V220.742H139.469C139.492 222.156 140.25 222.977 141.461 222.977C142.461 222.977 143.016 222.445 143.172 222.117L143.195 222.07H145.32L145.305 222.148C145.039 223.227 143.93 224.68 141.414 224.68ZM141.359 217.422C140.367 217.422 139.633 218.094 139.492 219.312H143.203C143.062 218.062 142.352 217.422 141.359 217.422ZM153.633 224.5L150.641 215.898H153.086L154.867 222.367H155.008L156.773 215.898H159.172L156.195 224.5H153.633ZM161.875 214.578C161.172 214.578 160.586 214.016 160.586 213.312C160.586 212.602 161.172 212.039 161.875 212.039C162.578 212.039 163.156 212.602 163.156 213.312C163.156 214.016 162.578 214.578 161.875 214.578ZM160.727 224.5V215.898H163.008V224.5H160.727ZM167.648 224.633C166.008 224.633 164.844 223.617 164.844 222.055V222.039C164.844 220.492 166.039 219.586 168.18 219.461L170.258 219.336V218.625C170.258 217.883 169.75 217.461 168.812 217.461C167.992 217.461 167.469 217.75 167.289 218.258L167.273 218.289H165.164L165.172 218.219C165.352 216.711 166.773 215.711 168.938 215.711C171.219 215.711 172.508 216.789 172.508 218.625V224.5H170.258V223.359H170.117C169.68 224.156 168.773 224.633 167.648 224.633ZM167.07 221.914C167.07 222.57 167.625 222.969 168.414 222.969C169.469 222.969 170.258 222.273 170.258 221.367V220.734L168.523 220.844C167.547 220.906 167.07 221.273 167.07 221.898V221.914ZM179.094 224.5V213.227H186.477V215.172H181.453V218.195H186.039V220.062H181.453V224.5H179.094ZM192.211 224.68C189.594 224.68 188.008 222.969 188.008 220.211V220.203C188.008 217.469 189.609 215.711 192.117 215.711C194.625 215.711 196.188 217.43 196.188 220.031V220.742H190.266C190.289 222.156 191.047 222.977 192.258 222.977C193.258 222.977 193.812 222.445 193.969 222.117L193.992 222.07H196.117L196.102 222.148C195.836 223.227 194.727 224.68 192.211 224.68ZM192.156 217.422C191.164 217.422 190.43 218.094 190.289 219.312H194C193.859 218.062 193.148 217.422 192.156 217.422ZM201.125 224.633C198.977 224.633 197.633 222.953 197.633 220.203V220.188C197.633 217.422 198.945 215.758 201.125 215.758C202.305 215.758 203.266 216.336 203.695 217.273H203.836V212.609H206.117V224.5H203.836V223.164H203.695C203.25 224.094 202.336 224.633 201.125 224.633ZM201.898 222.742C203.109 222.742 203.859 221.789 203.859 220.211V220.195C203.859 218.617 203.102 217.648 201.898 217.648C200.695 217.648 199.953 218.617 199.953 220.188V220.203C199.953 221.789 200.695 222.742 201.898 222.742ZM209.641 214.578C208.938 214.578 208.352 214.016 208.352 213.312C208.352 212.602 208.938 212.039 209.641 212.039C210.344 212.039 210.922 212.602 210.922 213.312C210.922 214.016 210.344 214.578 209.641 214.578ZM208.492 224.5V215.898H210.773V224.5H208.492ZM215.32 224.5L212.328 215.898H214.773L216.555 222.367H216.695L218.461 215.898H220.859L217.883 224.5H215.32ZM225.82 224.68C223.203 224.68 221.617 222.969 221.617 220.211V220.203C221.617 217.469 223.219 215.711 225.727 215.711C228.234 215.711 229.797 217.43 229.797 220.031V220.742H223.875C223.898 222.156 224.656 222.977 225.867 222.977C226.867 222.977 227.422 222.445 227.578 222.117L227.602 222.07H229.727L229.711 222.148C229.445 223.227 228.336 224.68 225.82 224.68ZM225.766 217.422C224.773 217.422 224.039 218.094 223.898 219.312H227.609C227.469 218.062 226.758 217.422 225.766 217.422ZM231.664 224.5V215.898H233.945V217.234H234.086C234.359 216.305 235.141 215.758 236.258 215.758C236.562 215.758 236.883 215.805 237.109 215.867V217.859C236.766 217.781 236.414 217.727 236.062 217.727C234.766 217.727 233.945 218.469 233.945 219.688V224.5H231.664ZM241.852 224.68C239.516 224.68 238.188 223.633 238.023 222.156L238.016 222.125H240.258L240.273 222.156C240.453 222.688 240.977 223.07 241.875 223.07C242.75 223.07 243.344 222.695 243.344 222.125V222.109C243.344 221.648 243 221.359 242.125 221.164L240.688 220.859C239.047 220.508 238.234 219.703 238.234 218.414V218.406C238.234 216.789 239.672 215.711 241.82 215.711C244.078 215.711 245.328 216.836 245.422 218.219V218.25H243.305L243.297 218.211C243.172 217.75 242.664 217.32 241.812 217.32C241.023 217.32 240.461 217.688 240.461 218.266V218.273C240.461 218.734 240.781 219 241.672 219.195L243.102 219.5C244.82 219.867 245.625 220.586 245.625 221.859V221.867C245.625 223.57 244.055 224.68 241.852 224.68ZM251.273 224.68C248.656 224.68 247.07 222.969 247.07 220.211V220.203C247.07 217.469 248.672 215.711 251.18 215.711C253.688 215.711 255.25 217.43 255.25 220.031V220.742H249.328C249.352 222.156 250.109 222.977 251.32 222.977C252.32 222.977 252.875 222.445 253.031 222.117L253.055 222.07H255.18L255.164 222.148C254.898 223.227 253.789 224.68 251.273 224.68ZM251.219 217.422C250.227 217.422 249.492 218.094 249.352 219.312H253.062C252.922 218.062 252.211 217.422 251.219 217.422ZM262.406 214.578C261.703 214.578 261.117 214.016 261.117 213.312C261.117 212.602 261.703 212.039 262.406 212.039C263.109 212.039 263.688 212.602 263.688 213.312C263.688 214.016 263.109 214.578 262.406 214.578ZM261.258 224.5V215.898H263.539V224.5H261.258ZM265.836 224.5V215.898H268.117V217.227H268.258C268.648 216.297 269.5 215.711 270.727 215.711C272.641 215.711 273.672 216.883 273.672 218.938V224.5H271.391V219.453C271.391 218.242 270.891 217.602 269.812 217.602C268.758 217.602 268.117 218.359 268.117 219.523V224.5H265.836ZM279.305 224.68C276.969 224.68 275.641 223.633 275.477 222.156L275.469 222.125H277.711L277.727 222.156C277.906 222.688 278.43 223.07 279.328 223.07C280.203 223.07 280.797 222.695 280.797 222.125V222.109C280.797 221.648 280.453 221.359 279.578 221.164L278.141 220.859C276.5 220.508 275.688 219.703 275.688 218.414V218.406C275.688 216.789 277.125 215.711 279.273 215.711C281.531 215.711 282.781 216.836 282.875 218.219V218.25H280.758L280.75 218.211C280.625 217.75 280.117 217.32 279.266 217.32C278.477 217.32 277.914 217.688 277.914 218.266V218.273C277.914 218.734 278.234 219 279.125 219.195L280.555 219.5C282.273 219.867 283.078 220.586 283.078 221.859V221.867C283.078 223.57 281.508 224.68 279.305 224.68ZM288.469 224.531C286.375 224.531 285.531 223.852 285.531 222.18V217.617H284.203V215.898H285.531V213.844H287.836V215.898H289.609V217.617H287.836V221.656C287.836 222.43 288.164 222.773 288.938 222.773C289.234 222.773 289.391 222.758 289.609 222.734V224.43C289.328 224.484 288.906 224.531 288.469 224.531ZM293.852 224.633C292.211 224.633 291.047 223.617 291.047 222.055V222.039C291.047 220.492 292.242 219.586 294.383 219.461L296.461 219.336V218.625C296.461 217.883 295.953 217.461 295.016 217.461C294.195 217.461 293.672 217.75 293.492 218.258L293.477 218.289H291.367L291.375 218.219C291.555 216.711 292.977 215.711 295.141 215.711C297.422 215.711 298.711 216.789 298.711 218.625V224.5H296.461V223.359H296.32C295.883 224.156 294.977 224.633 293.852 224.633ZM293.273 221.914C293.273 222.57 293.828 222.969 294.617 222.969C295.672 222.969 296.461 222.273 296.461 221.367V220.734L294.727 220.844C293.75 220.906 293.273 221.273 293.273 221.898V221.914ZM300.945 224.5V215.898H303.227V217.227H303.367C303.758 216.297 304.609 215.711 305.836 215.711C307.75 215.711 308.781 216.883 308.781 218.938V224.5H306.5V219.453C306.5 218.242 306 217.602 304.922 217.602C303.867 217.602 303.227 218.359 303.227 219.523V224.5H300.945ZM314.781 224.68C312.094 224.68 310.57 223.047 310.57 220.188V220.172C310.57 217.344 312.086 215.711 314.781 215.711C317.062 215.711 318.414 216.953 318.617 218.875V218.898H316.492L316.484 218.883C316.336 218.047 315.766 217.5 314.789 217.5C313.562 217.5 312.891 218.453 312.891 220.172V220.188C312.891 221.93 313.57 222.891 314.789 222.891C315.727 222.891 316.281 222.445 316.484 221.586L316.5 221.555H318.609L318.602 221.602C318.367 223.477 317.023 224.68 314.781 224.68ZM324.18 224.68C321.562 224.68 319.977 222.969 319.977 220.211V220.203C319.977 217.469 321.578 215.711 324.086 215.711C326.594 215.711 328.156 217.43 328.156 220.031V220.742H322.234C322.258 222.156 323.016 222.977 324.227 222.977C325.227 222.977 325.781 222.445 325.938 222.117L325.961 222.07H328.086L328.07 222.148C327.805 223.227 326.695 224.68 324.18 224.68ZM324.125 217.422C323.133 217.422 322.398 218.094 322.258 219.312H325.969C325.828 218.062 325.117 217.422 324.125 217.422Z" fill="white"/>
</g>
<g id="Small_2">
<rect id="Rectangle_3" x="16" y="257.181" width="341" height="11" fill="#3E3E3E"/>
<rect id="Rectangle_4" x="16" y="277.181" width="297" height="11" fill="#3E3E3E"/>
<rect id="Rectangle_5" x="16" y="297.181" width="265" height="11.6375" fill="#3E3E3E"/>
</g>
</g>
</g>
</g>
<defs>
<filter id="filter0_ddddddd_50_219" x="-88" y="-80" width="589" height="525" filterUnits="userSpaceOnUse" color-interpolation-filters="sRGB">
<feFlood flood-opacity="0" result="BackgroundImageFix"/>
<feColorMatrix in="SourceAlpha" type="matrix" values="0 0 0 0 0 0 0 0 0 0 0 0 0 0 0 0 0 0 127 0" result="hardAlpha"/>
<feMorphology radius="1" operator="dilate" in="SourceAlpha" result="effect1_dropShadow_50_219"/>
<feOffset/>
<feComposite in2="hardAlpha" operator="out"/>
<feColorMatrix type="matrix" values="0 0 0 0 0.505882 0 0 0 0 0.568627 0 0 0 0 0.709804 0 0 0 0.016 0"/>
<feBlend mode="normal" in2="BackgroundImageFix" result="effect1_dropShadow_50_219"/>
<feColorMatrix in="SourceAlpha" type="matrix" values="0 0 0 0 0 0 0 0 0 0 0 0 0 0 0 0 0 0 127 0" result="hardAlpha"/>
<feOffset dx="8" dy="16"/>
<feGaussianBlur stdDeviation="48"/>
<feComposite in2="hardAlpha" operator="out"/>
<feColorMatrix type="matrix" values="0 0 0 0 0.505882 0 0 0 0 0.568627 0 0 0 0 0.709804 0 0 0 0.06 0"/>
<feBlend mode="normal" in2="effect1_dropShadow_50_219" result="effect2_dropShadow_50_219"/>
<feColorMatrix in="SourceAlpha" type="matrix" values="0 0 0 0 0 0 0 0 0 0 0 0 0 0 0 0 0 0 127 0" result="hardAlpha"/>
<feOffset dx="3.336" dy="6.672"/>
<feGaussianBlur stdDeviation="20.016"/>
<feComposite in2="hardAlpha" operator="out"/>
<feColorMatrix type="matrix" values="0 0 0 0 0.505882 0 0 0 0 0.568627 0 0 0 0 0.709804 0 0 0 0.043 0"/>
<feBlend mode="normal" in2="effect2_dropShadow_50_219" result="effect3_dropShadow_50_219"/>
<feColorMatrix in="SourceAlpha" type="matrix" values="0 0 0 0 0 0 0 0 0 0 0 0 0 0 0 0 0 0 127 0" result="hardAlpha"/>
<feOffset dx="1.8" dy="3.6"/>
<feGaussianBlur stdDeviation="10.8"/>
<feComposite in2="hardAlpha" operator="out"/>
<feColorMatrix type="matrix" values="0 0 0 0 0.505882 0 0 0 0 0.568627 0 0 0 0 0.709804 0 0 0 0.035 0"/>
<feBlend mode="normal" in2="effect3_dropShadow_50_219" result="effect4_dropShadow_50_219"/>
<feColorMatrix in="SourceAlpha" type="matrix" values="0 0 0 0 0 0 0 0 0 0 0 0 0 0 0 0 0 0 127 0" result="hardAlpha"/>
<feOffset dx="1" dy="2"/>
<feGaussianBlur stdDeviation="6"/>
<feComposite in2="hardAlpha" operator="out"/>
<feColorMatrix type="matrix" values="0 0 0 0 0.505882 0 0 0 0 0.568627 0 0 0 0 0.709804 0 0 0 0.03 0"/>
<feBlend mode="normal" in2="effect4_dropShadow_50_219" result="effect5_dropShadow_50_219"/>
<feColorMatrix in="SourceAlpha" type="matrix" values="0 0 0 0 0 0 0 0 0 0 0 0 0 0 0 0 0 0 127 0" result="hardAlpha"/>
<feOffset dx="0.536" dy="1.072"/>
<feGaussianBlur stdDeviation="3.216"/>
<feComposite in2="hardAlpha" operator="out"/>
<feColorMatrix type="matrix" values="0 0 0 0 0.505882 0 0 0 0 0.568627 0 0 0 0 0.709804 0 0 0 0.024 0"/>
<feBlend mode="normal" in2="effect5_dropShadow_50_219" result="effect6_dropShadow_50_219"/>
<feColorMatrix in="SourceAlpha" type="matrix" values="0 0 0 0 0 0 0 0 0 0 0 0 0 0 0 0 0 0 127 0" result="hardAlpha"/>
<feOffset dx="0.232" dy="0.464"/>
<feGaussianBlur stdDeviation="1.392"/>
<feComposite in2="hardAlpha" operator="out"/>
<feColorMatrix type="matrix" values="0 0 0 0 0.505882 0 0 0 0 0.568627 0 0 0 0 0.709804 0 0 0 0.016 0"/>
<feBlend mode="normal" in2="effect6_dropShadow_50_219" result="effect7_dropShadow_50_219"/>
<feBlend mode="normal" in="SourceGraphic" in2="effect7_dropShadow_50_219" result="shape"/>
</filter>
<clipPath id="clip0_50_219">
<rect width="308.44" height="19" fill="white" transform="translate(33 101.5)"/>
</clipPath>
</defs>
</svg>
