<?xml version="1.0" encoding="UTF-8"?>
<svg height="600" width="800" xmlns="http://www.w3.org/2000/svg" xmlns:xlink="http://www.w3.org/1999/xlink">
    <g id="Notes" font-family="'LucidaGrande', 'Lucida Grande', sans-serif" font-size="13">
        <rect fill="white" height="600.0" width="800.0" x="0.0" y="0.0" />
        <g font-size="13">
            <text x="18.0" y="176.0">Small</text>
            <text x="18.0" y="376.0">Medium</text>
            <text x="18.0" y="576.0">Large</text>
        </g>
        <g font-size="9">
            <text x="250.0" y="30.0">Ultralight</text>
            <text x="450.0" y="30.0">Regular</text>
            <text x="650.0" y="30.0">Black</text>
            <text id="template-version" fill="#505050" text-anchor="end" x="785.0" y="575.0">Template v.3.0</text>
            <a href="https://wangchujiang.com/#/app">
                <text fill="#505050" text-anchor="end" x="785.0" y="590.0">https://wangchujiang.com/#/app</text>
            </a>
        </g>
    </g>
    <g id="Guides" stroke="rgb(39, 170, 225)" stroke-width="0.5">
        <path id="Capline-S" d="M18,76 l800,0" />
        <path id="H-reference" d="M85,145.755 L87.685,145.755 L113.369,79.287 L114.052,79.287 L114.052,76 L112.148,76 L85,145.755 Z M95.693,121.536 L130.996,121.536 L130.263,119.313 L96.474,119.313 L95.693,121.536 Z M139.15,145.755 L141.787,145.755 L114.638,76 L113.466,76 L113.466,79.287 L139.15,145.755 Z" stroke="none" />
        <path id="Baseline-S" d="M18,146 l800,0" />
        <path id="left-margin-Ultralight-S" d="M219.97,56 l0,110" />
        <path id="right-margin-Ultralight-S" d="M310.03,56 l0,110" />
        <path id="left-margin-Regular-S" d="M419.97,56 l0,110" />
        <path id="right-margin-Regular-S" d="M510.03,56 l0,110" />
        <path id="left-margin-Black-S" d="M619.97,56 l0,110" />
        <path id="right-margin-Black-S" d="M710.03,56 l0,110" />
        <path id="Capline-M" d="M18,276 l800,0" />
        <path id="Baseline-M" d="M18,346 l800,0" />
        <path id="Capline-L" d="M18,476 l800,0" />
        <path id="Baseline-L" d="M18,546 l800,0" />
    </g>
    <g id="Symbols">
        <g id="Ultralight-S">
            <path d="M268.213,76 C266.456,76 264.945,76.604 263.682,77.813 C262.418,79.021 261.732,80.532 261.622,82.344 C261.512,84.157 262.075,85.75 263.311,87.123 C264.547,88.496 266.085,89.238 267.925,89.348 C269.765,89.457 271.372,88.894 272.745,87.659 C274.118,86.423 274.86,84.885 274.969,83.045 C275.079,81.204 274.516,79.584 273.28,78.183 C272.045,76.783 270.493,76.055 268.625,76 L268.213,76 Z M261.045,83.827 L241.93,93.55 C243.029,94.648 243.715,95.966 243.99,97.504 L263.023,87.782 C261.979,86.684 261.32,85.365 261.045,83.827 Z M274.805,86.052 C274.091,87.425 273.047,88.469 271.674,89.183 L286.752,104.343 C287.466,102.97 288.537,101.926 289.965,101.212 L274.805,86.052 Z M263.105,87.864 L251.982,109.698 L255.278,112.994 L267.06,89.924 C265.522,89.65 264.204,88.963 263.105,87.864 Z M271.674,89.183 C270.465,89.787 269.202,90.062 267.884,90.007 L267.225,89.924 L268.955,100.8 L273.569,101.542 L271.674,89.183 Z M236.575,91.984 C234.817,91.984 233.306,92.602 232.043,93.838 C230.78,95.074 230.093,96.584 229.983,98.37 C229.873,100.155 230.436,101.748 231.672,103.148 C232.908,104.549 234.46,105.29 236.327,105.373 C238.195,105.455 239.815,104.879 241.189,103.643 C242.562,102.407 243.29,100.869 243.372,99.029 C243.454,97.189 242.878,95.582 241.642,94.209 C240.406,92.835 238.882,92.094 237.069,91.984 L236.575,91.984 Z M243.99,97.587 C244.045,98.081 244.072,98.575 244.072,99.07 C244.017,100.114 243.743,101.075 243.248,101.954 L254.124,103.684 L256.266,99.564 L243.99,97.587 Z M262.528,100.553 L260.386,104.755 L286.01,108.792 C285.955,108.353 285.928,107.886 285.928,107.391 C285.983,106.348 286.257,105.359 286.752,104.425 L262.528,100.553 Z M293.178,101.047 C291.421,101.102 289.91,101.734 288.647,102.942 C287.383,104.151 286.71,105.661 286.628,107.474 C286.546,109.286 287.122,110.879 288.358,112.253 C289.594,113.626 291.132,114.367 292.972,114.477 C294.812,114.587 296.419,114.024 297.792,112.788 C299.165,111.552 299.907,110.001 300.017,108.133 C300.127,106.265 299.564,104.645 298.328,103.272 C297.092,101.899 295.54,101.157 293.673,101.047 L293.178,101.047 Z M243.248,102.118 C242.534,103.492 241.463,104.535 240.035,105.249 L257.338,122.552 L261.54,120.492 L243.248,102.118 Z M239.953,105.249 C238.799,105.853 237.591,106.128 236.327,106.073 L235.586,105.991 L238.882,127.083 C240.035,126.534 241.271,126.287 242.589,126.342 L243.248,126.424 L239.953,105.249 Z M269.944,107.062 L273.898,132.686 C275.052,132.137 276.26,131.889 277.524,131.944 L278.348,132.027 L274.557,107.803 L269.944,107.062 Z M286.01,108.957 L276.288,113.9 L276.947,118.514 L288.07,112.912 C286.971,111.813 286.285,110.495 286.01,108.957 Z M288.152,112.994 L278.348,132.027 C279.886,132.301 281.204,132.988 282.302,134.087 L292.107,115.054 C290.569,114.779 289.251,114.093 288.152,112.994 Z M249.016,115.384 L243.413,126.424 C244.951,126.699 246.27,127.385 247.368,128.484 L252.312,118.679 L249.016,115.384 Z M270.603,116.784 L247.45,128.566 C248.494,129.665 249.153,130.983 249.428,132.521 L271.262,121.398 L270.603,116.784 Z M266.071,125.023 L261.869,127.083 L270.603,135.899 C271.317,134.526 272.388,133.482 273.816,132.768 L266.071,125.023 Z M242.095,127.001 C240.337,127.001 238.813,127.619 237.522,128.855 C236.231,130.091 235.545,131.601 235.462,133.386 C235.38,135.171 235.957,136.751 237.193,138.124 C238.428,139.497 239.966,140.239 241.807,140.348 C243.647,140.458 245.253,139.895 246.627,138.659 C248,137.423 248.741,135.885 248.851,134.045 C248.961,132.205 248.398,130.599 247.162,129.225 C245.926,127.852 244.374,127.111 242.507,127.001 L242.095,127.001 Z M249.428,132.604 C249.538,133.098 249.565,133.592 249.51,134.087 C249.455,135.13 249.208,136.091 248.769,136.97 L269.861,140.348 C269.806,139.854 269.779,139.36 269.779,138.865 C269.834,137.877 270.108,136.915 270.603,135.982 L249.428,132.604 Z M277.029,132.604 C275.272,132.604 273.761,133.221 272.498,134.457 C271.234,135.693 270.561,137.204 270.479,138.989 C270.397,140.774 270.96,142.367 272.168,143.768 C273.377,145.168 274.915,145.91 276.782,145.992 C278.65,146.075 280.27,145.498 281.643,144.262 C283.016,143.026 283.758,141.488 283.868,139.648 C283.978,137.808 283.415,136.201 282.179,134.828 C280.943,133.455 279.391,132.713 277.524,132.604 L277.029,132.604 Z" />
        </g>
        <g id="Regular-S">
            <path d="M468.213,76 C466.456,76 464.945,76.604 463.682,77.813 C462.418,79.021 461.732,80.532 461.622,82.344 C461.512,84.157 462.075,85.75 463.311,87.123 C464.547,88.496 466.085,89.238 467.925,89.348 C469.765,89.457 471.372,88.894 472.745,87.659 C474.118,86.423 474.86,84.885 474.969,83.045 C475.079,81.204 474.516,79.584 473.28,78.183 C472.045,76.783 470.493,76.055 468.625,76 L468.213,76 Z M461.045,83.827 L441.93,93.55 C443.029,94.648 443.715,95.966 443.99,97.504 L463.023,87.782 C461.979,86.684 461.32,85.365 461.045,83.827 Z M474.805,86.052 C474.091,87.425 473.047,88.469 471.674,89.183 L486.752,104.343 C487.466,102.97 488.537,101.926 489.965,101.212 L474.805,86.052 Z M463.105,87.864 L451.982,109.698 L455.278,112.994 L467.06,89.924 C465.522,89.65 464.204,88.963 463.105,87.864 Z M471.674,89.183 C470.465,89.787 469.202,90.062 467.884,90.007 L467.225,89.924 L468.955,100.8 L473.569,101.542 L471.674,89.183 Z M436.575,91.984 C434.817,91.984 433.306,92.602 432.043,93.838 C430.78,95.074 430.093,96.584 429.983,98.37 C429.873,100.155 430.436,101.748 431.672,103.148 C432.908,104.549 434.46,105.29 436.327,105.373 C438.195,105.455 439.815,104.879 441.189,103.643 C442.562,102.407 443.29,100.869 443.372,99.029 C443.454,97.189 442.878,95.582 441.642,94.209 C440.406,92.835 438.882,92.094 437.069,91.984 L436.575,91.984 Z M443.99,97.587 C444.045,98.081 444.072,98.575 444.072,99.07 C444.017,100.114 443.743,101.075 443.248,101.954 L454.124,103.684 L456.266,99.564 L443.99,97.587 Z M462.528,100.553 L460.386,104.755 L486.01,108.792 C485.955,108.353 485.928,107.886 485.928,107.391 C485.983,106.348 486.257,105.359 486.752,104.425 L462.528,100.553 Z M493.178,101.047 C491.421,101.102 489.91,101.734 488.647,102.942 C487.383,104.151 486.71,105.661 486.628,107.474 C486.546,109.286 487.122,110.879 488.358,112.253 C489.594,113.626 491.132,114.367 492.972,114.477 C494.812,114.587 496.419,114.024 497.792,112.788 C499.165,111.552 499.907,110.001 500.017,108.133 C500.127,106.265 499.564,104.645 498.328,103.272 C497.092,101.899 495.54,101.157 493.673,101.047 L493.178,101.047 Z M443.248,102.118 C442.534,103.492 441.463,104.535 440.035,105.249 L457.338,122.552 L461.54,120.492 L443.248,102.118 Z M439.953,105.249 C438.799,105.853 437.591,106.128 436.327,106.073 L435.586,105.991 L438.882,127.083 C440.035,126.534 441.271,126.287 442.589,126.342 L443.248,126.424 L439.953,105.249 Z M469.944,107.062 L473.898,132.686 C475.052,132.137 476.26,131.889 477.524,131.944 L478.348,132.027 L474.558,107.803 L469.944,107.062 Z M486.01,108.957 L476.288,113.9 L476.947,118.514 L488.07,112.912 C486.971,111.813 486.285,110.495 486.01,108.957 Z M488.152,112.994 L478.348,132.027 C479.886,132.301 481.204,132.988 482.302,134.087 L492.107,115.054 C490.569,114.779 489.251,114.093 488.152,112.994 Z M449.016,115.384 L443.413,126.424 C444.951,126.699 446.27,127.385 447.368,128.484 L452.312,118.679 L449.016,115.384 Z M470.603,116.784 L447.45,128.566 C448.494,129.665 449.153,130.983 449.428,132.521 L471.262,121.398 L470.603,116.784 Z M466.071,125.023 L461.869,127.083 L470.603,135.899 C471.317,134.526 472.388,133.482 473.816,132.768 L466.071,125.023 Z M442.095,127.001 C440.337,127.001 438.813,127.619 437.522,128.855 C436.231,130.091 435.545,131.601 435.462,133.386 C435.38,135.171 435.957,136.751 437.193,138.124 C438.428,139.497 439.967,140.239 441.807,140.348 C443.647,140.458 445.253,139.895 446.627,138.659 C448,137.423 448.741,135.885 448.851,134.045 C448.961,132.205 448.398,130.599 447.162,129.225 C445.926,127.852 444.375,127.111 442.507,127.001 L442.095,127.001 Z M449.428,132.604 C449.538,133.098 449.565,133.592 449.51,134.087 C449.455,135.13 449.208,136.091 448.769,136.97 L469.861,140.348 C469.806,139.854 469.779,139.36 469.779,138.865 C469.834,137.877 470.108,136.915 470.603,135.982 L449.428,132.604 Z M477.029,132.604 C475.272,132.604 473.761,133.221 472.498,134.457 C471.234,135.693 470.561,137.204 470.479,138.989 C470.397,140.774 470.96,142.367 472.168,143.768 C473.377,145.168 474.915,145.91 476.782,145.992 C478.65,146.075 480.27,145.498 481.643,144.262 C483.017,143.026 483.758,141.488 483.868,139.648 C483.978,137.808 483.415,136.201 482.179,134.828 C480.943,133.455 479.391,132.713 477.524,132.604 L477.029,132.604 Z" />
        </g>
        <g id="Black-S">
            <path d="M668.213,76 C666.456,76 664.945,76.604 663.682,77.813 C662.418,79.021 661.732,80.532 661.622,82.344 C661.512,84.157 662.075,85.75 663.311,87.123 C664.547,88.496 666.085,89.238 667.925,89.348 C669.765,89.457 671.372,88.894 672.745,87.659 C674.118,86.423 674.86,84.885 674.969,83.045 C675.079,81.204 674.516,79.584 673.28,78.183 C672.045,76.783 670.493,76.055 668.625,76 L668.213,76 Z M661.045,83.827 L641.93,93.55 C643.029,94.648 643.715,95.966 643.99,97.504 L663.023,87.782 C661.979,86.684 661.32,85.365 661.045,83.827 Z M674.805,86.052 C674.091,87.425 673.047,88.469 671.674,89.183 L686.752,104.343 C687.466,102.97 688.537,101.926 689.965,101.212 L674.805,86.052 Z M663.105,87.864 L651.982,109.698 L655.278,112.994 L667.06,89.924 C665.522,89.65 664.204,88.963 663.105,87.864 Z M671.674,89.183 C670.465,89.787 669.202,90.062 667.884,90.007 L667.225,89.924 L668.955,100.8 L673.569,101.542 L671.674,89.183 Z M636.575,91.984 C634.817,91.984 633.306,92.602 632.043,93.838 C630.78,95.074 630.093,96.584 629.983,98.37 C629.873,100.155 630.436,101.748 631.672,103.148 C632.908,104.549 634.46,105.29 636.327,105.373 C638.195,105.455 639.815,104.879 641.189,103.643 C642.562,102.407 643.29,100.869 643.372,99.029 C643.454,97.189 642.878,95.582 641.642,94.209 C640.406,92.835 638.882,92.094 637.069,91.984 L636.575,91.984 Z M643.99,97.587 C644.045,98.081 644.072,98.575 644.072,99.07 C644.017,100.114 643.743,101.075 643.248,101.954 L654.124,103.684 L656.266,99.564 L643.99,97.587 Z M662.528,100.553 L660.386,104.755 L686.01,108.792 C685.955,108.353 685.928,107.886 685.928,107.391 C685.983,106.348 686.257,105.359 686.752,104.425 L662.528,100.553 Z M693.178,101.047 C691.421,101.102 689.91,101.734 688.647,102.942 C687.383,104.151 686.71,105.661 686.628,107.474 C686.546,109.286 687.122,110.879 688.358,112.253 C689.594,113.626 691.132,114.367 692.972,114.477 C694.812,114.587 696.419,114.024 697.792,112.788 C699.165,111.552 699.907,110.001 700.017,108.133 C700.127,106.265 699.564,104.645 698.328,103.272 C697.092,101.899 695.54,101.157 693.673,101.047 L693.178,101.047 Z M643.248,102.118 C642.534,103.492 641.463,104.535 640.035,105.249 L657.338,122.552 L661.54,120.492 L643.248,102.118 Z M639.953,105.249 C638.799,105.853 637.591,106.128 636.327,106.073 L635.586,105.991 L638.882,127.083 C640.035,126.534 641.271,126.287 642.589,126.342 L643.248,126.424 L639.953,105.249 Z M669.944,107.062 L673.898,132.686 C675.052,132.137 676.26,131.889 677.524,131.944 L678.348,132.027 L674.557,107.803 L669.944,107.062 Z M686.01,108.957 L676.288,113.9 L676.947,118.514 L688.07,112.912 C686.971,111.813 686.285,110.495 686.01,108.957 Z M688.152,112.994 L678.348,132.027 C679.886,132.301 681.204,132.988 682.302,134.087 L692.107,115.054 C690.569,114.779 689.251,114.093 688.152,112.994 Z M649.016,115.384 L643.413,126.424 C644.951,126.699 646.27,127.385 647.368,128.484 L652.312,118.679 L649.016,115.384 Z M670.603,116.784 L647.45,128.566 C648.494,129.665 649.153,130.983 649.428,132.521 L671.262,121.398 L670.603,116.784 Z M666.071,125.023 L661.869,127.083 L670.603,135.899 C671.317,134.526 672.388,133.482 673.816,132.768 L666.071,125.023 Z M642.095,127.001 C640.337,127.001 638.813,127.619 637.522,128.855 C636.231,130.091 635.545,131.601 635.462,133.386 C635.38,135.171 635.957,136.751 637.193,138.124 C638.428,139.497 639.966,140.239 641.807,140.348 C643.647,140.458 645.253,139.895 646.627,138.659 C648,137.423 648.741,135.885 648.851,134.045 C648.961,132.205 648.398,130.599 647.162,129.225 C645.926,127.852 644.375,127.111 642.507,127.001 L642.095,127.001 Z M649.428,132.604 C649.538,133.098 649.565,133.592 649.51,134.087 C649.455,135.13 649.208,136.091 648.769,136.97 L669.861,140.348 C669.806,139.854 669.779,139.36 669.779,138.865 C669.834,137.877 670.108,136.915 670.603,135.982 L649.428,132.604 Z M677.029,132.604 C675.272,132.604 673.761,133.221 672.498,134.457 C671.234,135.693 670.562,137.204 670.479,138.989 C670.397,140.774 670.96,142.367 672.168,143.768 C673.377,145.168 674.915,145.91 676.782,145.992 C678.65,146.075 680.27,145.498 681.643,144.262 C683.016,143.026 683.758,141.488 683.868,139.648 C683.978,137.808 683.415,136.201 682.179,134.828 C680.943,133.455 679.391,132.713 677.524,132.604 L677.029,132.604 Z" />
        </g>
    </g>
</svg>