<?xml version="1.0" encoding="UTF-8"?>
<svg height="600" width="800" xmlns="http://www.w3.org/2000/svg" xmlns:xlink="http://www.w3.org/1999/xlink">
    <g id="Notes" font-family="'LucidaGrande', 'Lucida Grande', sans-serif" font-size="13">
        <rect fill="white" height="600.0" width="800.0" x="0.0" y="0.0" />
        <g font-size="13">
            <text x="18.0" y="176.0">Small</text>
            <text x="18.0" y="376.0">Medium</text>
            <text x="18.0" y="576.0">Large</text>
        </g>
        <g font-size="9">
            <text x="250.0" y="30.0">Ultralight</text>
            <text x="450.0" y="30.0">Regular</text>
            <text x="650.0" y="30.0">Black</text>
            <text id="template-version" fill="#505050" text-anchor="end" x="785.0" y="575.0">Template v.3.0</text>
            <a href="https://wangchujiang.com/#/app">
                <text fill="#505050" text-anchor="end" x="785.0" y="590.0">https://wangchujiang.com/#/app</text>
            </a>
        </g>
    </g>
    <g id="Guides" stroke="rgb(39, 170, 225)" stroke-width="0.5">
        <path id="Capline-S" d="M18,76 l800,0" />
        <path id="H-reference" d="M85,145.755 L87.685,145.755 L113.369,79.287 L114.052,79.287 L114.052,76 L112.148,76 L85,145.755 Z M95.693,121.536 L130.996,121.536 L130.263,119.313 L96.474,119.313 L95.693,121.536 Z M139.15,145.755 L141.787,145.755 L114.638,76 L113.466,76 L113.466,79.287 L139.15,145.755 Z" stroke="none" />
        <path id="Baseline-S" d="M18,146 l800,0" />
        <path id="left-margin-Ultralight-S" d="M220.721,56 l0,110" />
        <path id="right-margin-Ultralight-S" d="M309.279,56 l0,110" />
        <path id="left-margin-Regular-S" d="M420.721,56 l0,110" />
        <path id="right-margin-Regular-S" d="M509.279,56 l0,110" />
        <path id="left-margin-Black-S" d="M620.721,56 l0,110" />
        <path id="right-margin-Black-S" d="M709.279,56 l0,110" />
        <path id="Capline-M" d="M18,276 l800,0" />
        <path id="Baseline-M" d="M18,346 l800,0" />
        <path id="Capline-L" d="M18,476 l800,0" />
        <path id="Baseline-L" d="M18,546 l800,0" />
    </g>
    <g id="Symbols">
        <g id="Ultralight-S">
            <path d="M298.65,104.629 L265.698,104.629 L265.698,118.173 L284.522,118.173 C283.711,122.551 281.248,126.254 277.536,128.735 C274.399,130.833 270.395,132.073 265.689,132.073 C256.577,132.073 248.87,125.917 246.116,117.644 C245.423,115.547 245.021,113.303 245.021,110.995 C245.021,108.688 245.423,106.444 246.116,104.347 C248.879,96.083 256.586,89.927 265.698,89.927 C270.833,89.927 275.438,91.696 279.068,95.162 L289.101,85.121 C283.036,79.466 275.128,76 265.698,76 C252.026,76 240.197,83.844 234.442,95.281 C232.07,100.005 230.721,105.35 230.721,111.005 C230.721,116.659 232.07,121.995 234.442,126.719 C240.197,138.156 252.026,146 265.698,146 C275.147,146 283.063,142.863 288.846,137.518 C295.458,131.425 299.279,122.451 299.279,111.789 C299.279,109.308 299.061,106.928 298.65,104.629 Z" />
        </g>
        <g id="Regular-S">
            <path d="M498.65,104.629 L465.698,104.629 L465.698,118.173 L484.522,118.173 C483.711,122.551 481.248,126.254 477.536,128.735 C474.399,130.833 470.395,132.073 465.689,132.073 C456.577,132.073 448.87,125.917 446.116,117.644 C445.423,115.547 445.021,113.303 445.021,110.995 C445.021,108.688 445.423,106.444 446.116,104.347 C448.879,96.083 456.586,89.927 465.698,89.927 C470.833,89.927 475.438,91.696 479.068,95.162 L489.101,85.121 C483.036,79.466 475.128,76 465.698,76 C452.026,76 440.197,83.844 434.442,95.281 C432.07,100.005 430.721,105.35 430.721,111.005 C430.721,116.659 432.07,121.995 434.442,126.719 C440.197,138.156 452.026,146 465.698,146 C475.147,146 483.063,142.863 488.846,137.518 C495.458,131.425 499.279,122.451 499.279,111.789 C499.279,109.308 499.061,106.928 498.65,104.629 Z" />
        </g>
        <g id="Black-S">
            <path d="M698.65,104.629 L665.698,104.629 L665.698,118.173 L684.523,118.173 C683.711,122.551 681.248,126.254 677.536,128.735 C674.399,130.833 670.395,132.073 665.689,132.073 C656.577,132.073 648.87,125.917 646.116,117.644 C645.423,115.547 645.022,113.303 645.022,110.995 C645.022,108.688 645.423,106.444 646.116,104.347 C648.88,96.083 656.586,89.927 665.698,89.927 C670.833,89.927 675.438,91.696 679.068,95.162 L689.101,85.121 C683.036,79.466 675.128,76 665.698,76 C652.026,76 640.197,83.844 634.442,95.281 C632.07,100.005 630.721,105.35 630.721,111.005 C630.721,116.659 632.07,121.995 634.442,126.719 C640.197,138.156 652.026,146 665.698,146 C675.147,146 683.063,142.863 688.846,137.518 C695.458,131.425 699.279,122.451 699.279,111.789 C699.279,109.308 699.061,106.928 698.65,104.629 Z" />
        </g>
    </g>
</svg>