<?xml version="1.0" encoding="UTF-8"?>
<svg height="600" width="800" xmlns="http://www.w3.org/2000/svg" xmlns:xlink="http://www.w3.org/1999/xlink">
    <g id="Notes" font-family="'LucidaGrande', 'Lucida Grande', sans-serif" font-size="13">
        <rect fill="white" height="600.0" width="800.0" x="0.0" y="0.0" />
        <g font-size="13">
            <text x="18.0" y="176.0">Small</text>
            <text x="18.0" y="376.0">Medium</text>
            <text x="18.0" y="576.0">Large</text>
        </g>
        <g font-size="9">
            <text x="250.0" y="30.0">Ultralight</text>
            <text x="450.0" y="30.0">Regular</text>
            <text x="650.0" y="30.0">Black</text>
            <text id="template-version" fill="#505050" text-anchor="end" x="785.0" y="575.0">Template v.3.0</text>
            <a href="https://wangchujiang.com/#/app">
                <text fill="#505050" text-anchor="end" x="785.0" y="590.0">https://wangchujiang.com/#/app</text>
            </a>
        </g>
    </g>
    <g id="Guides" stroke="rgb(39, 170, 225)" stroke-width="0.5">
        <path id="Capline-S" d="M18,76 l800,0" />
        <path id="H-reference" d="M85,145.755 L87.685,145.755 L113.369,79.287 L114.052,79.287 L114.052,76 L112.148,76 L85,145.755 Z M95.693,121.536 L130.996,121.536 L130.263,119.313 L96.474,119.313 L95.693,121.536 Z M139.15,145.755 L141.787,145.755 L114.638,76 L113.466,76 L113.466,79.287 L139.15,145.755 Z" stroke="none" />
        <path id="Baseline-S" d="M18,146 l800,0" />
        <path id="left-margin-Ultralight-S" d="M220,56 l0,110" />
        <path id="right-margin-Ultralight-S" d="M310,56 l0,110" />
        <path id="left-margin-Regular-S" d="M420,56 l0,110" />
        <path id="right-margin-Regular-S" d="M510,56 l0,110" />
        <path id="left-margin-Black-S" d="M620,56 l0,110" />
        <path id="right-margin-Black-S" d="M710,56 l0,110" />
        <path id="Capline-M" d="M18,276 l800,0" />
        <path id="Baseline-M" d="M18,346 l800,0" />
        <path id="Capline-L" d="M18,476 l800,0" />
        <path id="Baseline-L" d="M18,546 l800,0" />
    </g>
    <g id="Symbols">
        <g id="Ultralight-S">
            <path d="M276.859,100.875 C277.656,106.703 276.125,113.219 271.25,116.609 C267.766,119.031 263,118.812 260.188,117.5 C254.391,114.797 252.453,108.344 252.875,102.312 C253.547,92.797 259.266,88.578 264.641,88.641 C271.969,88.609 275.859,93.609 276.859,100.875 Z M300,84.75 L300,137.25 C300,142.078 296.078,146 291.25,146 L238.75,146 C233.922,146 230,142.078 230,137.25 L230,84.75 C230,79.922 233.922,76 238.75,76 L291.25,76 C296.078,76 300,79.922 300,84.75 Z M281.562,119.938 C281.562,119.938 281.547,114.625 281.547,85.984 L277.016,85.984 L277.016,92.281 C276.891,92.328 276.828,92.203 276.766,92.094 C275.266,88.859 271.156,84.859 264.891,84.906 C256.781,84.969 251.266,89.781 249.172,97.062 C248.5,99.391 248.266,101.766 248.312,104.188 C248.578,116.359 255.359,122.594 265.875,122.188 C270.391,122.016 274.391,119.531 276.656,115.125 C276.734,114.969 276.828,114.828 276.922,114.672 C276.953,114.688 276.984,114.688 277.016,114.703 C277.062,115.297 277.047,119.5 277.031,120.094 C277,122.406 276.719,124.703 275.906,126.891 C274.688,130.172 272.422,132.312 268.953,133.062 C266.172,133.672 263.391,133.656 260.641,132.875 C257.281,131.922 254.938,129.906 254.219,126.344 C254.172,126.094 254.016,126.141 253.859,126.141 L249.672,126.141 C249.797,127.797 250.172,129.312 251,130.703 C254.781,137.031 263.922,138.281 271.031,136.547 C278.828,134.625 281.547,127.969 281.562,119.938 Z" />
        </g>
        <g id="Regular-S">
            <path d="M476.859,100.875 C477.656,106.703 476.125,113.219 471.25,116.609 C467.766,119.031 463,118.812 460.188,117.5 C454.391,114.797 452.453,108.344 452.875,102.312 C453.547,92.797 459.266,88.578 464.641,88.641 C471.969,88.609 475.859,93.609 476.859,100.875 Z M500,84.75 L500,137.25 C500,142.078 496.078,146 491.25,146 L438.75,146 C433.922,146 430,142.078 430,137.25 L430,84.75 C430,79.922 433.922,76 438.75,76 L491.25,76 C496.078,76 500,79.922 500,84.75 Z M481.562,119.938 C481.562,119.938 481.547,114.625 481.547,85.984 L477.016,85.984 L477.016,92.281 C476.891,92.328 476.828,92.203 476.766,92.094 C475.266,88.859 471.156,84.859 464.891,84.906 C456.781,84.969 451.266,89.781 449.172,97.062 C448.5,99.391 448.266,101.766 448.312,104.188 C448.578,116.359 455.359,122.594 465.875,122.188 C470.391,122.016 474.391,119.531 476.656,115.125 C476.734,114.969 476.828,114.828 476.922,114.672 C476.953,114.688 476.984,114.688 477.016,114.703 C477.062,115.297 477.047,119.5 477.031,120.094 C477,122.406 476.719,124.703 475.906,126.891 C474.688,130.172 472.422,132.312 468.953,133.062 C466.172,133.672 463.391,133.656 460.641,132.875 C457.281,131.922 454.938,129.906 454.219,126.344 C454.172,126.094 454.016,126.141 453.859,126.141 L449.672,126.141 C449.797,127.797 450.172,129.312 451,130.703 C454.781,137.031 463.922,138.281 471.031,136.547 C478.828,134.625 481.547,127.969 481.562,119.938 Z" />
        </g>
        <g id="Black-S">
            <path d="M676.859,100.875 C677.656,106.703 676.125,113.219 671.25,116.609 C667.766,119.031 663,118.812 660.188,117.5 C654.391,114.797 652.453,108.344 652.875,102.312 C653.547,92.797 659.266,88.578 664.641,88.641 C671.969,88.609 675.859,93.609 676.859,100.875 Z M700,84.75 L700,137.25 C700,142.078 696.078,146 691.25,146 L638.75,146 C633.922,146 630,142.078 630,137.25 L630,84.75 C630,79.922 633.922,76 638.75,76 L691.25,76 C696.078,76 700,79.922 700,84.75 Z M681.562,119.938 C681.562,119.938 681.547,114.625 681.547,85.984 L677.016,85.984 L677.016,92.281 C676.891,92.328 676.828,92.203 676.766,92.094 C675.266,88.859 671.156,84.859 664.891,84.906 C656.781,84.969 651.266,89.781 649.172,97.062 C648.5,99.391 648.266,101.766 648.312,104.188 C648.578,116.359 655.359,122.594 665.875,122.188 C670.391,122.016 674.391,119.531 676.656,115.125 C676.734,114.969 676.828,114.828 676.922,114.672 C676.953,114.688 676.984,114.688 677.016,114.703 C677.062,115.297 677.047,119.5 677.031,120.094 C677,122.406 676.719,124.703 675.906,126.891 C674.688,130.172 672.422,132.312 668.953,133.062 C666.172,133.672 663.391,133.656 660.641,132.875 C657.281,131.922 654.938,129.906 654.219,126.344 C654.172,126.094 654.016,126.141 653.859,126.141 L649.672,126.141 C649.797,127.797 650.172,129.312 651,130.703 C654.781,137.031 663.922,138.281 671.031,136.547 C678.828,134.625 681.547,127.969 681.562,119.938 Z" />
        </g>
    </g>
</svg>