<?xml version="1.0" encoding="UTF-8"?>
<svg height="600" width="800" xmlns="http://www.w3.org/2000/svg" xmlns:xlink="http://www.w3.org/1999/xlink">
    <g id="Notes" font-family="'LucidaGrande', 'Lucida Grande', sans-serif" font-size="13">
        <rect fill="white" height="600.0" width="800.0" x="0.0" y="0.0" />
        <g font-size="13">
            <text x="18.0" y="176.0">Small</text>
            <text x="18.0" y="376.0">Medium</text>
            <text x="18.0" y="576.0">Large</text>
        </g>
        <g font-size="9">
            <text x="250.0" y="30.0">Ultralight</text>
            <text x="450.0" y="30.0">Regular</text>
            <text x="650.0" y="30.0">Black</text>
            <text id="template-version" fill="#505050" text-anchor="end" x="785.0" y="575.0">Template v.3.0</text>
            <a href="https://wangchujiang.com/#/app">
                <text fill="#505050" text-anchor="end" x="785.0" y="590.0">https://wangchujiang.com/#/app</text>
            </a>
        </g>
    </g>
    <g id="Guides" stroke="rgb(39, 170, 225)" stroke-width="0.5">
        <path id="Capline-S" d="M18,76 l800,0" />
        <path id="H-reference" d="M85,145.755 L87.685,145.755 L113.369,79.287 L114.052,79.287 L114.052,76 L112.148,76 L85,145.755 Z M95.693,121.536 L130.996,121.536 L130.263,119.313 L96.474,119.313 L95.693,121.536 Z M139.15,145.755 L141.787,145.755 L114.638,76 L113.466,76 L113.466,79.287 L139.15,145.755 Z" stroke="none" />
        <path id="Baseline-S" d="M18,146 l800,0" />
        <path id="left-margin-Ultralight-S" d="M211,56 l0,110" />
        <path id="right-margin-Ultralight-S" d="M319,56 l0,110" />
        <path id="left-margin-Regular-S" d="M411,56 l0,110" />
        <path id="right-margin-Regular-S" d="M519,56 l0,110" />
        <path id="left-margin-Black-S" d="M611,56 l0,110" />
        <path id="right-margin-Black-S" d="M719,56 l0,110" />
        <path id="Capline-M" d="M18,276 l800,0" />
        <path id="Baseline-M" d="M18,346 l800,0" />
        <path id="Capline-L" d="M18,476 l800,0" />
        <path id="Baseline-L" d="M18,546 l800,0" />
    </g>
    <g id="Symbols">
        <g id="Ultralight-S">
            <path d="M288.528,103.24 C286.009,107.332 281.844,109.554 277.565,110.041 C262.066,111.816 255.393,94.828 264.845,85.372 C273.315,76.902 290.812,82.072 290.53,96.002 C290.49,98.242 289.921,100.977 288.528,103.24 Z M264.845,95.8 C265.366,108.985 282.313,109.301 285.697,99.665 C288.686,91.144 281.591,84.269 274.001,85.376 C268.417,86.186 264.64,90.55 264.845,95.8 Z M305.783,89.013 C306.824,88.533 308.339,87.503 308.852,88.111 C309.625,89.032 307.169,89.853 306.109,90.546 C302.743,92.746 299.762,95.045 297.027,98.059 C293.511,101.942 289.899,106.771 287.677,112.058 C289.943,112.175 298.754,112.633 300.877,117.488 C302.578,121.382 299.458,125.393 296.037,127.12 C298.468,128.638 302.674,130.585 302.435,134.079 C301.856,142.67 288.884,142.296 283.45,136.628 C282.555,135.568 282.137,134.86 282.533,134.508 C283.087,134.017 283.728,135.19 285.012,136.254 C285.837,136.939 286.394,137.174 287.109,137.552 C291.879,140.056 299.352,139.029 299.861,134.648 C300.096,132.616 297.427,131.146 295.399,130.233 C293.573,129.412 289.848,128.818 289.921,126.743 C289.995,124.711 291.842,125.093 293.698,124.359 C295.714,123.564 297.379,121.056 297.375,120.267 C297.357,116.949 289.815,117.011 285.565,116.894 C284.557,119.116 283.838,121.389 283.028,124.807 C282.518,126.944 282.474,131.762 280.285,132.246 C277.583,132.847 276.567,130.497 274.95,128.613 C272.772,126.083 269.685,122.61 267.83,120.462 C256.709,124.136 248.06,128.129 237.558,134.072 C232.752,136.793 229.994,139.902 228.227,139.037 C226.775,138.325 226.984,136.716 227.688,135.784 C229.129,133.874 231.087,131.293 232.807,128.862 C235.006,125.749 236.671,122.75 237.841,119.897 C240.378,113.708 242.351,102.591 243.249,98.414 C243.572,96.904 244.382,97.138 244.43,97.872 C244.529,99.408 243.561,105.377 243.366,106.609 C241.768,116.806 240.536,122.779 236,129.889 C244.052,124.909 253.618,118.819 263.837,115.387 C253.435,103.434 242.439,92.119 227.145,84.987 C224.802,83.656 221,83.37 221,82.476 C221,81.482 223.864,82.256 224.824,82.501 C233.562,84.687 242.486,90.352 249.028,95.129 C256.892,100.875 266.312,109.675 269.85,113.759 C272.259,112.93 278.232,112.083 283.402,111.94 C286.159,106.147 292.752,97.208 300.958,91.987 C302.472,91.022 304.045,89.809 305.783,89.013 Z M274.272,118.606 C275.823,120.176 276.993,122.031 278.342,123.732 C278.98,121.569 279.827,119.274 280.7,117.286 C278.43,117.587 276.003,118.031 274.272,118.606 Z" />
        </g>
        <g id="Regular-S">
            <path d="M488.528,103.24 C486.009,107.332 481.844,109.554 477.565,110.041 C462.066,111.816 455.393,94.828 464.845,85.372 C473.315,76.902 490.812,82.072 490.53,96.002 C490.49,98.242 489.921,100.977 488.528,103.24 Z M464.845,95.8 C465.366,108.985 482.313,109.301 485.697,99.665 C488.686,91.144 481.591,84.269 474.001,85.376 C468.417,86.186 464.64,90.55 464.845,95.8 Z M505.783,89.013 C506.824,88.533 508.339,87.503 508.852,88.111 C509.625,89.032 507.169,89.853 506.109,90.546 C502.743,92.746 499.762,95.045 497.027,98.059 C493.511,101.942 489.899,106.771 487.677,112.058 C489.943,112.175 498.754,112.633 500.877,117.488 C502.578,121.382 499.458,125.393 496.037,127.12 C498.468,128.638 502.674,130.585 502.435,134.079 C501.856,142.67 488.884,142.296 483.45,136.628 C482.555,135.568 482.137,134.86 482.533,134.508 C483.087,134.017 483.728,135.19 485.012,136.254 C485.837,136.939 486.394,137.174 487.109,137.552 C491.879,140.056 499.352,139.029 499.861,134.648 C500.096,132.616 497.427,131.146 495.399,130.233 C493.573,129.412 489.848,128.818 489.921,126.743 C489.995,124.711 491.842,125.093 493.698,124.359 C495.714,123.564 497.379,121.056 497.375,120.267 C497.357,116.949 489.815,117.011 485.565,116.894 C484.557,119.116 483.838,121.389 483.028,124.807 C482.518,126.944 482.474,131.762 480.285,132.246 C477.583,132.847 476.567,130.497 474.95,128.613 C472.772,126.083 469.685,122.61 467.83,120.462 C456.709,124.136 448.06,128.129 437.558,134.072 C432.751,136.793 429.994,139.902 428.227,139.037 C426.775,138.325 426.984,136.716 427.688,135.784 C429.129,133.874 431.087,131.293 432.807,128.862 C435.006,125.749 436.671,122.75 437.841,119.897 C440.378,113.708 442.351,102.591 443.249,98.414 C443.572,96.904 444.382,97.138 444.43,97.872 C444.529,99.408 443.561,105.377 443.366,106.609 C441.768,116.806 440.536,122.779 436,129.889 C444.052,124.909 453.618,118.819 463.837,115.387 C453.435,103.434 442.439,92.119 427.145,84.987 C424.802,83.656 421,83.37 421,82.476 C421,81.482 423.864,82.256 424.824,82.501 C433.562,84.687 442.486,90.352 449.028,95.129 C456.892,100.875 466.312,109.675 469.85,113.759 C472.259,112.93 478.232,112.083 483.402,111.94 C486.159,106.147 492.752,97.208 500.958,91.987 C502.472,91.022 504.045,89.809 505.783,89.013 Z M474.272,118.606 C475.823,120.176 476.993,122.031 478.342,123.732 C478.98,121.569 479.827,119.274 480.7,117.286 C478.43,117.587 476.003,118.031 474.272,118.606 Z" />
        </g>
        <g id="Black-S">
            <path d="M688.528,103.24 C686.009,107.332 681.844,109.554 677.565,110.041 C662.066,111.816 655.393,94.828 664.845,85.372 C673.315,76.902 690.812,82.072 690.53,96.002 C690.49,98.242 689.921,100.977 688.528,103.24 Z M664.845,95.8 C665.366,108.985 682.313,109.301 685.697,99.665 C688.686,91.144 681.591,84.269 674.001,85.376 C668.417,86.186 664.64,90.55 664.845,95.8 Z M705.783,89.013 C706.824,88.533 708.339,87.503 708.852,88.111 C709.625,89.032 707.169,89.853 706.109,90.546 C702.743,92.746 699.762,95.045 697.027,98.059 C693.511,101.942 689.899,106.771 687.677,112.058 C689.943,112.175 698.754,112.633 700.877,117.488 C702.578,121.382 699.458,125.393 696.037,127.12 C698.468,128.638 702.674,130.585 702.435,134.079 C701.856,142.67 688.884,142.296 683.45,136.628 C682.555,135.568 682.137,134.86 682.533,134.508 C683.087,134.017 683.728,135.19 685.012,136.254 C685.837,136.939 686.394,137.174 687.109,137.552 C691.879,140.056 699.352,139.029 699.861,134.648 C700.096,132.616 697.427,131.146 695.399,130.233 C693.573,129.412 689.848,128.818 689.921,126.743 C689.995,124.711 691.842,125.093 693.698,124.359 C695.714,123.564 697.379,121.056 697.375,120.267 C697.357,116.949 689.815,117.011 685.565,116.894 C684.557,119.116 683.838,121.389 683.028,124.807 C682.518,126.944 682.474,131.762 680.285,132.246 C677.583,132.847 676.567,130.497 674.95,128.613 C672.772,126.083 669.685,122.61 667.83,120.462 C656.709,124.136 648.06,128.129 637.558,134.072 C632.752,136.793 629.994,139.902 628.227,139.037 C626.775,138.325 626.984,136.716 627.688,135.784 C629.129,133.874 631.087,131.293 632.807,128.862 C635.006,125.749 636.671,122.75 637.841,119.897 C640.378,113.708 642.351,102.591 643.249,98.414 C643.572,96.904 644.382,97.138 644.43,97.872 C644.529,99.408 643.561,105.377 643.366,106.609 C641.768,116.806 640.536,122.779 636,129.889 C644.052,124.909 653.618,118.819 663.837,115.387 C653.435,103.434 642.439,92.119 627.145,84.987 C624.802,83.656 621,83.37 621,82.476 C621,81.482 623.864,82.256 624.824,82.501 C633.562,84.687 642.486,90.352 649.028,95.129 C656.892,100.875 666.312,109.675 669.85,113.759 C672.259,112.93 678.232,112.083 683.402,111.94 C686.159,106.147 692.752,97.208 700.958,91.987 C702.472,91.022 704.045,89.809 705.783,89.013 Z M674.272,118.606 C675.823,120.176 676.993,122.031 678.342,123.732 C678.98,121.569 679.827,119.274 680.7,117.286 C678.43,117.587 676.003,118.031 674.272,118.606 Z" />
        </g>
    </g>
</svg>