<?xml version="1.0" encoding="UTF-8"?>
<svg height="600" width="800" xmlns="http://www.w3.org/2000/svg" xmlns:xlink="http://www.w3.org/1999/xlink">
    <g id="Notes" font-family="'LucidaGrande', 'Lucida Grande', sans-serif" font-size="13">
        <rect fill="white" height="600.0" width="800.0" x="0.0" y="0.0" />
        <g font-size="13">
            <text x="18.0" y="176.0">Small</text>
            <text x="18.0" y="376.0">Medium</text>
            <text x="18.0" y="576.0">Large</text>
        </g>
        <g font-size="9">
            <text x="250.0" y="30.0">Ultralight</text>
            <text x="450.0" y="30.0">Regular</text>
            <text x="650.0" y="30.0">Black</text>
            <text id="template-version" fill="#505050" text-anchor="end" x="785.0" y="575.0">Template v.3.0</text>
            <a href="https://wangchujiang.com/#/app">
                <text fill="#505050" text-anchor="end" x="785.0" y="590.0">https://wangchujiang.com/#/app</text>
            </a>
        </g>
    </g>
    <g id="Guides" stroke="rgb(39, 170, 225)" stroke-width="0.5">
        <path id="Capline-S" d="M18,76 l800,0" />
        <path id="H-reference" d="M85,145.755 L87.685,145.755 L113.369,79.287 L114.052,79.287 L114.052,76 L112.148,76 L85,145.755 Z M95.693,121.536 L130.996,121.536 L130.263,119.313 L96.474,119.313 L95.693,121.536 Z M139.15,145.755 L141.787,145.755 L114.638,76 L113.466,76 L113.466,79.287 L139.15,145.755 Z" stroke="none" />
        <path id="Baseline-S" d="M18,146 l800,0" />
        <path id="left-margin-Ultralight-S" d="M220.565,56 l0,110" />
        <path id="right-margin-Ultralight-S" d="M309.435,56 l0,110" />
        <path id="left-margin-Regular-S" d="M420.565,56 l0,110" />
        <path id="right-margin-Regular-S" d="M509.435,56 l0,110" />
        <path id="left-margin-Black-S" d="M620.565,56 l0,110" />
        <path id="right-margin-Black-S" d="M709.435,56 l0,110" />
        <path id="Capline-M" d="M18,276 l800,0" />
        <path id="Baseline-M" d="M18,346 l800,0" />
        <path id="Capline-L" d="M18,476 l800,0" />
        <path id="Baseline-L" d="M18,546 l800,0" />
    </g>
    <g id="Symbols">
        <g id="Ultralight-S">
            <path d="M299.435,111.819 C299.435,131.788 285.76,146 265.565,146 C246.202,146 230.565,130.363 230.565,111 C230.565,91.637 246.202,76 265.565,76 C274.992,76 282.923,79.458 289.034,85.159 L279.508,94.319 C267.046,82.294 243.873,91.327 243.873,111 C243.873,123.208 253.625,133.101 265.565,133.101 C279.423,133.101 284.617,123.165 285.435,118.014 L265.565,118.014 L265.565,105.976 L298.885,105.976 C299.21,107.768 299.435,109.49 299.435,111.819 Z" />
        </g>
        <g id="Regular-S">
            <path d="M499.435,111.819 C499.435,131.788 485.76,146 465.565,146 C446.202,146 430.565,130.363 430.565,111 C430.565,91.637 446.202,76 465.565,76 C474.992,76 482.923,79.458 489.034,85.159 L479.508,94.319 C467.046,82.294 443.873,91.327 443.873,111 C443.873,123.208 453.625,133.101 465.565,133.101 C479.423,133.101 484.617,123.165 485.435,118.014 L465.565,118.014 L465.565,105.976 L498.885,105.976 C499.21,107.768 499.435,109.49 499.435,111.819 Z" />
        </g>
        <g id="Black-S">
            <path d="M699.435,111.819 C699.435,131.788 685.76,146 665.565,146 C646.202,146 630.565,130.363 630.565,111 C630.565,91.637 646.202,76 665.565,76 C674.992,76 682.923,79.458 689.034,85.159 L679.508,94.319 C667.046,82.294 643.873,91.327 643.873,111 C643.873,123.208 653.625,133.101 665.565,133.101 C679.423,133.101 684.617,123.165 685.435,118.014 L665.565,118.014 L665.565,105.976 L698.885,105.976 C699.21,107.768 699.435,109.49 699.435,111.819 Z" />
        </g>
    </g>
</svg>