<?xml version="1.0" encoding="UTF-8"?>
<svg height="600" width="800" xmlns="http://www.w3.org/2000/svg" xmlns:xlink="http://www.w3.org/1999/xlink">
    <g id="Notes" font-family="'LucidaGrande', 'Lucida Grande', sans-serif" font-size="13">
        <rect fill="white" height="600.0" width="800.0" x="0.0" y="0.0" />
        <g font-size="13">
            <text x="18.0" y="176.0">Small</text>
            <text x="18.0" y="376.0">Medium</text>
            <text x="18.0" y="576.0">Large</text>
        </g>
        <g font-size="9">
            <text x="250.0" y="30.0">Ultralight</text>
            <text x="450.0" y="30.0">Regular</text>
            <text x="650.0" y="30.0">Black</text>
            <text id="template-version" fill="#505050" text-anchor="end" x="785.0" y="575.0">Template v.3.0</text>
            <a href="https://wangchujiang.com/#/app">
                <text fill="#505050" text-anchor="end" x="785.0" y="590.0">https://wangchujiang.com/#/app</text>
            </a>
        </g>
    </g>
    <g id="Guides" stroke="rgb(39, 170, 225)" stroke-width="0.5">
        <path id="Capline-S" d="M18,76 l800,0" />
        <path id="H-reference" d="M85,145.755 L87.685,145.755 L113.369,79.287 L114.052,79.287 L114.052,76 L112.148,76 L85,145.755 Z M95.693,121.536 L130.996,121.536 L130.263,119.313 L96.474,119.313 L95.693,121.536 Z M139.15,145.755 L141.787,145.755 L114.638,76 L113.466,76 L113.466,79.287 L139.15,145.755 Z" stroke="none" />
        <path id="Baseline-S" d="M18,146 l800,0" />
        <path id="left-margin-Ultralight-S" d="M216.379,56 l0,110" />
        <path id="right-margin-Ultralight-S" d="M313.621,56 l0,110" />
        <path id="left-margin-Regular-S" d="M416.379,56 l0,110" />
        <path id="right-margin-Regular-S" d="M513.621,56 l0,110" />
        <path id="left-margin-Black-S" d="M616.379,56 l0,110" />
        <path id="right-margin-Black-S" d="M713.621,56 l0,110" />
        <path id="Capline-M" d="M18,276 l800,0" />
        <path id="Baseline-M" d="M18,346 l800,0" />
        <path id="Capline-L" d="M18,476 l800,0" />
        <path id="Baseline-L" d="M18,546 l800,0" />
    </g>
    <g id="Symbols">
        <g id="Ultralight-S">
            <path d="M300.09,91.705 C302.61,94.435 303.771,97.694 303.605,101.616 L303.605,132.151 C303.545,136.134 302.217,139.407 299.608,141.972 C297.013,144.537 293.709,145.879 289.726,146 L240.258,146 C236.276,145.879 232.987,144.522 230.407,141.897 C227.842,139.272 226.5,135.817 226.379,131.547 L226.379,101.616 C226.5,97.694 227.842,94.435 230.407,91.705 C232.987,89.246 236.276,87.888 240.258,87.767 L244.694,87.767 L240.877,83.875 C240.002,83.015 239.564,81.914 239.564,80.586 C239.564,79.259 240.002,78.157 240.877,77.297 C241.737,76.438 242.838,76 244.166,76 C245.493,76 246.595,76.438 247.47,77.297 L258.528,87.767 L271.804,87.767 L283.043,77.297 C283.963,76.438 285.095,76 286.422,76 C287.75,76 288.851,76.438 289.726,77.297 C290.586,78.157 291.023,79.259 291.023,80.586 C291.023,81.914 290.586,83.015 289.726,83.875 L285.909,87.767 L290.33,87.767 C294.312,87.888 297.571,89.246 300.09,91.705 L300.09,91.705 Z M294.237,102.22 C294.177,100.772 293.679,99.595 292.623,98.675 C291.838,97.754 290.511,97.256 289.198,97.196 L240.877,97.196 C239.429,97.256 238.237,97.754 237.317,98.675 C236.381,99.595 235.898,100.772 235.838,102.22 L235.838,131.547 C235.838,132.935 236.336,134.112 237.317,135.093 C238.297,136.073 239.489,136.571 240.877,136.571 L289.198,136.571 C290.586,136.571 291.763,136.073 292.713,135.093 C293.664,134.112 294.177,132.935 294.237,131.547 L294.237,102.22 Z M254.364,108.662 C255.314,109.612 255.827,110.789 255.888,112.162 L255.888,117.185 C255.827,118.573 255.33,119.735 254.409,120.685 C253.474,121.636 252.297,122.119 250.849,122.119 C249.401,122.119 248.209,121.636 247.289,120.685 C246.368,119.735 245.87,118.573 245.81,117.185 L245.81,112.162 C245.87,110.789 246.383,109.612 247.334,108.662 C248.284,107.711 249.325,107.213 250.849,107.153 C252.237,107.213 253.414,107.711 254.364,108.662 L254.364,108.662 Z M283.254,108.662 C284.205,109.612 284.717,110.789 284.778,112.162 L284.778,117.185 C284.717,118.573 284.22,119.735 283.299,120.685 C282.379,121.636 281.187,122.119 279.739,122.119 C278.291,122.119 277.114,121.636 276.179,120.685 C275.123,119.735 274.761,118.573 274.715,117.185 L274.715,112.162 C274.761,110.789 275.273,109.612 276.224,108.662 C277.174,107.711 278.351,107.213 279.739,107.153 C281.127,107.213 282.304,107.711 283.254,108.662 L283.254,108.662 Z" />
        </g>
        <g id="Regular-S">
            <path d="M500.09,91.705 C502.61,94.435 503.771,97.694 503.605,101.616 L503.605,132.151 C503.545,136.134 502.217,139.407 499.608,141.972 C497.013,144.537 493.709,145.879 489.726,146 L440.258,146 C436.276,145.879 432.987,144.522 430.407,141.897 C427.842,139.272 426.5,135.817 426.379,131.547 L426.379,101.616 C426.5,97.694 427.842,94.435 430.407,91.705 C432.987,89.246 436.276,87.888 440.258,87.767 L444.694,87.767 L440.877,83.875 C440.002,83.015 439.564,81.914 439.564,80.586 C439.564,79.259 440.002,78.157 440.877,77.297 C441.737,76.438 442.838,76 444.166,76 C445.493,76 446.595,76.438 447.47,77.297 L458.528,87.767 L471.804,87.767 L483.043,77.297 C483.963,76.438 485.095,76 486.422,76 C487.75,76 488.851,76.438 489.726,77.297 C490.586,78.157 491.023,79.259 491.023,80.586 C491.023,81.914 490.586,83.015 489.726,83.875 L485.909,87.767 L490.33,87.767 C494.312,87.888 497.571,89.246 500.09,91.705 L500.09,91.705 Z M494.237,102.22 C494.177,100.772 493.679,99.595 492.623,98.675 C491.838,97.754 490.511,97.256 489.198,97.196 L440.877,97.196 C439.429,97.256 438.237,97.754 437.317,98.675 C436.381,99.595 435.898,100.772 435.838,102.22 L435.838,131.547 C435.838,132.935 436.336,134.112 437.317,135.093 C438.297,136.073 439.489,136.571 440.877,136.571 L489.198,136.571 C490.586,136.571 491.763,136.073 492.713,135.093 C493.664,134.112 494.177,132.935 494.237,131.547 L494.237,102.22 Z M454.364,108.662 C455.314,109.612 455.827,110.789 455.888,112.162 L455.888,117.185 C455.827,118.573 455.33,119.735 454.409,120.685 C453.474,121.636 452.297,122.119 450.849,122.119 C449.401,122.119 448.209,121.636 447.289,120.685 C446.368,119.735 445.87,118.573 445.81,117.185 L445.81,112.162 C445.87,110.789 446.383,109.612 447.334,108.662 C448.284,107.711 449.325,107.213 450.849,107.153 C452.237,107.213 453.414,107.711 454.364,108.662 L454.364,108.662 Z M483.254,108.662 C484.205,109.612 484.717,110.789 484.778,112.162 L484.778,117.185 C484.717,118.573 484.22,119.735 483.299,120.685 C482.379,121.636 481.187,122.119 479.739,122.119 C478.291,122.119 477.114,121.636 476.179,120.685 C475.123,119.735 474.761,118.573 474.715,117.185 L474.715,112.162 C474.761,110.789 475.273,109.612 476.224,108.662 C477.174,107.711 478.351,107.213 479.739,107.153 C481.127,107.213 482.304,107.711 483.254,108.662 L483.254,108.662 Z" />
        </g>
        <g id="Black-S">
            <path d="M700.09,91.705 C702.61,94.435 703.771,97.694 703.605,101.616 L703.605,132.151 C703.545,136.134 702.217,139.407 699.608,141.972 C697.013,144.537 693.709,145.879 689.726,146 L640.258,146 C636.276,145.879 632.987,144.522 630.407,141.897 C627.842,139.272 626.5,135.817 626.379,131.547 L626.379,101.616 C626.5,97.694 627.842,94.435 630.407,91.705 C632.987,89.246 636.276,87.888 640.258,87.767 L644.694,87.767 L640.877,83.875 C640.002,83.015 639.564,81.914 639.564,80.586 C639.564,79.259 640.002,78.157 640.877,77.297 C641.737,76.438 642.838,76 644.166,76 C645.493,76 646.595,76.438 647.47,77.297 L658.528,87.767 L671.804,87.767 L683.043,77.297 C683.963,76.438 685.095,76 686.422,76 C687.75,76 688.851,76.438 689.726,77.297 C690.586,78.157 691.023,79.259 691.023,80.586 C691.023,81.914 690.586,83.015 689.726,83.875 L685.909,87.767 L690.33,87.767 C694.312,87.888 697.571,89.246 700.09,91.705 L700.09,91.705 Z M694.237,102.22 C694.177,100.772 693.679,99.595 692.623,98.675 C691.838,97.754 690.511,97.256 689.198,97.196 L640.877,97.196 C639.429,97.256 638.237,97.754 637.317,98.675 C636.381,99.595 635.898,100.772 635.838,102.22 L635.838,131.547 C635.838,132.935 636.336,134.112 637.317,135.093 C638.297,136.073 639.489,136.571 640.877,136.571 L689.198,136.571 C690.586,136.571 691.763,136.073 692.713,135.093 C693.664,134.112 694.177,132.935 694.237,131.547 L694.237,102.22 Z M654.364,108.662 C655.314,109.612 655.827,110.789 655.888,112.162 L655.888,117.185 C655.827,118.573 655.33,119.735 654.409,120.685 C653.474,121.636 652.297,122.119 650.849,122.119 C649.401,122.119 648.209,121.636 647.289,120.685 C646.368,119.735 645.87,118.573 645.81,117.185 L645.81,112.162 C645.87,110.789 646.383,109.612 647.334,108.662 C648.284,107.711 649.325,107.213 650.849,107.153 C652.237,107.213 653.414,107.711 654.364,108.662 L654.364,108.662 Z M683.254,108.662 C684.205,109.612 684.717,110.789 684.778,112.162 L684.778,117.185 C684.717,118.573 684.22,119.735 683.299,120.685 C682.379,121.636 681.187,122.119 679.739,122.119 C678.291,122.119 677.114,121.636 676.179,120.685 C675.123,119.735 674.761,118.573 674.715,117.185 L674.715,112.162 C674.761,110.789 675.273,109.612 676.224,108.662 C677.174,107.711 678.351,107.213 679.739,107.153 C681.127,107.213 682.304,107.711 683.254,108.662 L683.254,108.662 Z" />
        </g>
    </g>
</svg>