<svg width="221" height="108" viewBox="0 0 221 108" fill="none" xmlns="http://www.w3.org/2000/svg">
<g clip-path="url(#clip0_35_14)">
<path d="M53.8631 57.0454L47.9783 62.9302C50.9808 64.3713 53.1425 67.4939 53.1425 71.2169C53.1425 76.261 49.0592 80.3443 44.0151 80.3443C40.4122 80.3443 37.2897 78.1825 35.7284 75.1801L28.6427 82.2658L28.5226 82.3859L53.743 107.606L63.4709 97.8785C59.6278 97.8785 56.3851 94.7559 56.3851 90.7927C56.3851 86.8295 59.5077 83.707 63.4709 83.707C67.314 83.707 70.5566 86.8295 70.5566 90.7927L79.0835 82.2658L69.3556 72.658L68.635 71.9375C68.7551 71.9375 68.9953 71.9375 69.1154 71.9375C72.9585 71.9375 76.2012 68.8149 76.2012 64.8517C76.2012 63.0503 75.4806 61.489 74.3997 60.1679C73.1987 59.0871 71.5174 58.3665 69.7159 58.3665C65.8728 58.3665 62.6302 61.489 62.6302 65.4522C62.6302 65.5723 62.6302 65.8125 62.6302 65.9326L62.1498 65.4522L53.8631 57.0454Z" fill="#FFB380"/>
<path d="M36.3894 53.0225C31.3454 53.0225 27.2621 48.9392 27.2621 43.8952C27.2621 40.2923 29.3037 37.1697 32.3061 35.7286L25.2204 28.6428L0 53.8632L26.6616 80.5248L38.0708 69.1156C37.7105 69.8362 37.5904 70.6768 37.5904 71.5175C37.5904 75.0003 40.4727 77.8827 43.9556 77.8827C47.4384 77.8827 50.3207 75.0003 50.3207 71.5175C50.3207 68.0347 47.4384 65.1524 43.9556 65.1524C43.1149 65.1524 42.2742 65.2725 41.5536 65.6328L51.882 55.3044L44.6762 48.0986C43.1149 50.8608 39.9924 53.0225 36.3894 53.0225Z" fill="#8DCAFF"/>
<path d="M80.705 26.6616L70.2566 16.2131C70.3767 16.2131 70.6169 16.2131 70.737 16.2131C74.5801 16.2131 77.8227 13.0906 77.8227 9.12739C77.8227 5.28428 74.7002 2.16175 70.737 2.16175C66.8939 2.16175 63.6512 5.28428 63.6512 9.24748C63.6512 9.36758 63.6512 9.60778 63.6512 9.72787L53.9234 0L28.703 25.2204L27.8623 26.1812L27.3819 26.6616L38.7911 38.0708C38.0705 37.8306 37.35 37.7105 36.6294 37.7105C33.1466 37.7105 30.2642 40.5928 30.2642 44.0757C30.2642 47.5585 33.1466 50.4408 36.6294 50.4408C40.1122 50.4408 42.9945 47.5585 42.9945 44.0757C42.9945 43.4752 42.8744 42.9948 42.7543 42.3943C42.7543 42.1541 42.6342 42.034 42.6342 41.7938L43.2347 42.3943L54.2837 53.4432L54.7641 52.9629L55.7248 52.0021L63.8914 43.8355C60.0483 43.8355 56.8057 40.7129 56.8057 36.7497C56.8057 32.7865 59.9282 29.664 63.8914 29.664C67.7346 29.664 70.9772 32.7865 70.9772 36.7497L80.705 26.6616Z" fill="#C0D9B4"/>
<path d="M42.6338 42.3937H42.9941L42.5137 41.7932C42.5137 41.9133 42.5137 42.1535 42.6338 42.3937Z" fill="black"/>
<path d="M121.63 77.4516C121.63 74.199 120.324 66.9504 119.671 63.8837C119.507 63.1402 119.671 62.3968 119.507 61.6533C118.119 55.0552 117.303 48.1783 116.568 41.4873C116.323 38.7923 115.67 36.1903 115.67 33.4953C115.67 33.0306 115.507 30.1498 116.323 30.1498C117.466 30.1498 117.711 32.2872 118.773 32.2872C119.181 32.2872 119.752 32.1013 119.752 31.5437C119.752 29.778 116.813 28.2911 115.425 28.2911C110.69 28.2911 110.935 34.6104 110.935 38.6065C110.935 42.2308 111.425 46.2268 111.833 49.8511C112.078 52.0814 111.996 54.3118 112.323 56.5421C112.568 58.4937 113.302 61.2816 113.302 63.2331C113.302 64.813 113.547 66.2069 113.711 67.6938C112.976 66.3928 112.649 65.0918 111.996 63.7907C111.016 61.9321 110.037 59.9806 109.22 58.029C108.649 56.728 107.995 55.5199 107.342 54.2189C106.689 52.9178 106.281 51.5239 105.628 50.2228C102.689 44.554 100.076 38.6065 97.2184 32.9377C96.8919 32.2872 96.1571 32.1942 95.5855 32.1942C94.5242 32.1942 91.0951 33.1235 90.9318 34.5175C90.6869 36.8408 90.6869 39.257 90.6869 41.5803V49.4794C90.6869 51.2451 90.8502 52.9178 90.8502 54.5906C90.8502 57.0068 91.0951 59.33 91.0951 61.6533C91.0951 63.0473 91.34 64.3483 91.34 65.7423C91.34 68.0656 91.4217 70.6676 91.7483 72.9909C91.9115 73.9202 92.0748 75.2212 92.0748 76.2435C92.0748 80.4254 91.6666 83.3062 96.402 83.3062C97.6267 83.3062 101.137 82.5628 101.137 80.7971C101.137 79.9607 100.892 79.1243 100.892 78.195C100.892 73.5485 100.566 68.1585 99.9127 63.5119C99.6678 61.5604 99.2595 59.0513 99.2595 57.0997C99.2595 52.639 98.1982 48.8289 98.1982 44.1823C100.158 49.2935 112.894 80.5183 116.242 80.5183C117.466 80.5183 121.63 79.1243 121.63 77.4516ZM95.0957 48.0854C95.5039 48.2713 95.5039 50.4087 95.5039 50.7804C95.5039 52.732 95.259 54.6835 95.259 56.6351C95.014 54.033 95.014 51.4309 95.014 48.8289C95.014 48.5501 95.014 48.3642 95.0957 48.0854ZM95.5039 80.2395L95.5855 80.0536C95.5855 79.4031 95.4222 78.7526 95.4222 78.1021V77.2657C95.5039 77.7304 95.5855 78.8455 95.9121 79.2173C95.9121 78.1021 95.6672 77.0798 95.6672 75.9647C95.6672 75.593 95.6672 74.8495 95.9938 74.5707C95.9938 76.5223 96.0754 78.5667 96.0754 80.5183L95.8305 80.2395V80.4254H95.5039L95.5039 80.2395ZM95.0957 67.6938C95.014 67.2292 95.014 66.8575 95.014 66.3928V65.1847C95.3406 64.72 95.259 60.9099 95.259 60.4452C95.4223 61.1887 95.5039 63.6049 95.5039 64.5342C95.5039 64.9988 95.5039 67.415 95.0957 67.6938ZM93.1362 40.0934C93.2995 38.9782 93.2179 37.7701 93.2179 36.6549C93.5444 39.6287 93.2179 42.6025 93.871 45.4833L93.7077 45.5763L93.3811 43.7177C93.3811 44.647 93.4628 45.6692 93.4628 46.5985L93.3811 46.5056V45.5763C93.2995 45.3904 93.1362 45.0187 93.1362 44.8328C93.1362 44.2752 93.2178 43.7177 93.2178 43.1601L93.3811 43.7177C93.2995 42.5096 93.3812 41.3015 93.1362 40.0934ZM93.5444 61.6533C93.6261 61.0028 93.4628 57.7502 93.2995 57.1926C93.5444 56.728 93.5444 54.5906 93.5444 54.033C93.7077 54.4047 93.7077 57.1926 93.7077 57.7502C93.7077 58.4937 93.7077 61.0028 93.5444 61.6533ZM115.915 61.0028C115.833 61.0028 115.752 59.7947 115.752 59.7018C115.67 59.8876 115.67 60.1664 115.67 60.3523C115.67 60.5382 115.752 60.724 115.752 60.9099L115.67 61.0028H115.752C115.752 61.5604 115.833 62.118 115.67 62.6756C115.67 61.7462 115.588 60.8169 115.588 59.8876V58.7725V59.2371C115.67 58.8654 115.67 58.4937 115.67 58.1219C115.915 58.2149 115.915 60.1664 115.915 60.5381L115.915 61.0028ZM115.752 54.9623C115.752 55.334 115.67 55.6128 115.752 55.9845V55.427C115.833 55.7057 115.915 56.0775 115.915 56.4492C115.915 56.8209 115.833 57.2856 115.67 57.6573C115.67 57.2856 115.67 56.9138 115.588 56.5421V57.0068V53.5683C115.588 53.6613 115.752 53.9401 115.752 54.033L115.752 54.9623ZM95.014 57.5644C94.8507 56.9138 94.7691 56.0775 94.8507 55.427L94.7691 55.7057C94.9324 54.6835 94.6875 53.7542 94.6875 52.732C94.6875 52.3602 94.6875 51.9885 94.8508 51.6168C94.9324 53.5683 94.9324 55.6128 95.014 57.5644ZM95.259 79.496C95.1773 79.7748 95.1773 80.0536 95.1773 80.3324L94.9324 80.2395C94.9324 79.7748 94.8508 78.288 95.1773 77.9162C95.1773 78.195 95.0957 78.6597 95.259 78.8455C95.3406 79.3102 95.4223 79.8678 95.4223 80.3324V80.4254L95.259 80.3324V79.496ZM94.6058 55.334C94.6058 55.6128 94.6058 55.7987 94.6875 56.0775C94.4425 57.4714 94.6058 59.1442 94.6058 60.4452C94.4425 59.6088 94.4425 58.7725 94.4425 57.8432C94.4425 57.0068 94.4425 56.1704 94.6058 55.334ZM94.6875 62.3968C94.6875 61.6533 94.8507 61.0028 94.6875 60.1664L94.9324 60.4452V62.118C94.9324 62.7685 94.9324 63.5119 94.8507 64.1625C94.7691 63.6049 94.6875 62.9544 94.6875 62.3968ZM95.5855 43.0671C95.5855 43.5318 95.5039 43.9035 95.4222 44.3682C95.3406 44.2753 95.3406 44.0894 95.3406 43.9035V42.8813C95.3406 42.4166 95.3406 42.0449 95.4222 41.5803C95.5039 41.952 95.5039 42.4166 95.5039 42.7884H95.5855L95.5855 43.0671ZM95.5039 72.9909C95.5039 73.3626 95.5039 73.7343 95.4223 74.1061C95.3406 73.7343 95.3406 73.2697 95.3406 72.898V71.8757C95.3406 71.6899 95.3406 71.504 95.4223 71.3181C95.5039 71.8757 95.5855 72.4333 95.5855 72.9909H95.5039ZM116.486 66.5787L116.731 67.1362C116.731 67.508 116.568 67.7868 116.405 68.0655C116.405 67.8797 116.323 67.6009 116.323 67.415C116.323 67.1362 116.323 66.9504 116.405 66.6716L116.486 66.5787ZM115.997 66.2999C115.997 66.114 115.915 65.8352 115.915 65.6493L115.997 65.4635L115.915 65.5564C115.915 65.3705 115.833 65.2776 115.833 65.0918V63.9766L115.997 63.8837C115.997 64.72 115.997 65.4635 115.997 66.2999ZM93.4628 49.2006C93.3812 48.9218 93.2995 48.643 93.2995 48.2713C93.2995 47.8066 93.3811 47.249 93.3811 46.6915C93.4628 46.9702 93.4628 47.342 93.4628 47.6208L93.4628 49.2006ZM114.282 43.9965C114.2 44.647 114.609 45.4833 114.609 46.1339V46.2268C114.364 45.5763 114.282 44.8328 114.037 44.0894L114.282 43.9965ZM96.8919 59.3301C96.8102 58.7725 96.8102 58.2149 96.8102 57.6573V57.0068C96.8919 57.3785 96.9735 58.029 96.9735 58.4007C96.9735 58.6795 96.8919 59.0513 96.8919 59.3301ZM93.4628 51.8027L93.2995 52.2673V51.8027C93.2995 51.4309 93.2995 51.1521 93.3811 50.8733C93.4628 51.0592 93.4628 51.2451 93.4628 51.4309L93.6261 51.2451V51.9885L93.5444 51.8956L93.4628 52.2673V51.8027ZM93.7894 49.6652C93.7894 49.5723 93.6261 48.643 93.7894 48.8289C93.7077 48.3642 93.7894 47.6208 93.6261 47.249L93.7894 47.342C93.7894 47.8995 93.871 48.3642 93.871 48.9218C93.871 49.2006 93.871 49.4794 93.7894 49.6652ZM95.1773 38.5135C95.1773 39.0711 95.1773 39.6287 95.1773 40.1863L95.014 39.3499C95.014 39.1641 95.0957 38.7923 95.1773 38.5135ZM114.69 48.2713C114.69 48.643 114.609 48.9218 114.609 49.2935C114.527 48.9218 114.527 48.4571 114.527 48.0854V47.5278C114.609 47.7137 114.69 47.9925 114.69 48.2713ZM116.323 63.419L116.405 63.3261V62.8614L116.568 63.419C116.486 63.6049 116.486 63.8837 116.486 64.0695L116.323 63.6978V64.2554C116.323 64.1625 116.242 63.9766 116.242 63.8837C116.242 63.6049 116.242 63.2331 116.323 62.9544V63.419ZM95.1773 74.9424C95.1773 75.4071 95.0957 76.5223 95.259 77.0798L95.1773 77.2657C95.014 77.0798 95.0957 75.1283 95.1773 74.9424ZM95.6672 70.7606C95.5039 70.7606 95.4223 70.9464 95.4223 71.1323C95.5039 70.6676 95.3406 70.11 95.4223 69.8312L95.5855 69.9242V70.2959H95.6672V70.7606ZM114.854 55.5199C114.935 55.9845 114.935 56.5421 114.854 57.0068C114.772 56.4492 114.772 56.0775 114.854 55.5199ZM114.037 42.8813C114.119 42.5096 114.119 42.1378 114.119 41.7661L114.2 41.859V43.0671L114.037 42.8813ZM93.5444 53.9401C93.5444 53.6613 93.5444 53.2895 93.3811 53.0108L93.5444 52.5461C93.5444 52.8249 93.5444 53.1966 93.5444 53.4754V53.9401ZM95.5855 45.4833C95.5039 45.2046 95.4223 44.9258 95.4223 44.647C95.4223 44.8328 95.5039 44.9258 95.6672 44.9258C95.6672 45.1116 95.5855 45.2046 95.5855 45.4833L95.6672 45.3904V45.4833H95.5855ZM95.0957 37.6772C94.9324 37.1196 94.9324 36.4691 94.9324 35.8185L95.0957 37.6772ZM95.3406 58.3078C95.5855 58.4007 95.4222 58.9583 95.3406 59.1442V58.3078ZM95.6672 47.0632C95.6672 47.249 95.5855 47.5278 95.5855 47.7137V46.8773L95.6672 47.0632ZM95.3406 56.6351C95.3406 56.728 95.5855 57.3785 95.3406 57.3785V56.6351ZM95.5855 68.2514C95.6672 68.3443 95.6672 68.5302 95.6672 68.7161L95.5855 68.809V68.2514ZM116.813 63.419L116.895 63.5119C116.895 63.8837 116.895 64.2554 116.813 64.6271V63.419ZM95.259 47.4349C95.259 47.6208 95.259 47.7137 95.1773 47.8996C95.1773 47.7137 95.0957 47.4349 95.0957 47.249L95.259 47.4349ZM95.5039 52.4532V51.4309C95.5855 51.8027 95.5855 52.0814 95.5855 52.4532H95.5039ZM117.548 76.9869C117.548 77.0798 117.629 77.1728 117.711 77.2657L117.548 77.3586H117.466L117.385 77.2657L117.548 76.9869ZM116.486 61.1887C116.486 61.4675 116.65 61.7463 116.405 62.025C116.405 61.7463 116.405 61.4675 116.486 61.1887ZM95.0957 68.4373C95.0957 68.2514 95.0957 68.0656 95.1773 67.8797L95.259 68.1585C95.259 68.3443 95.1773 68.4373 95.0957 68.4373ZM95.5855 63.3261C95.5855 63.6049 95.5855 63.9766 95.5039 64.2554V63.3261H95.5855ZM95.5855 45.5763V45.7621L95.6672 45.948L95.5855 46.0409V45.7621L95.4223 45.8551V45.7621L95.5855 45.5763ZM117.14 65.5564C117.14 65.3706 117.14 65.2776 117.221 65.0918V65.6493L117.14 65.5564ZM113.874 44.8328C113.874 44.647 113.874 44.554 113.955 44.3682C113.955 44.554 113.955 44.647 114.037 44.8328H113.874ZM95.4223 76.4293C95.4223 76.2435 95.4223 76.0576 95.5039 75.8717V76.2435L95.4223 76.4293ZM95.9121 74.1061C95.9121 74.199 95.9938 74.2919 95.9938 74.2919C95.9938 74.3848 95.9121 74.4778 95.9121 74.4778L95.8305 74.3849C95.8305 74.2919 95.8305 74.199 95.9121 74.1061ZM93.7894 68.0655C93.7077 67.8797 93.7077 67.6009 93.7077 67.415C93.7894 67.6009 93.7894 67.8797 93.7894 68.0655ZM116.65 69.0878L116.731 68.9019V69.3666L116.65 69.0878ZM116.323 60.1664C116.242 59.8876 116.242 59.7018 116.323 59.5159V60.1664ZM116.323 68.4373H116.405V68.7161L116.323 68.6231V68.4373ZM95.8305 79.4031C95.8305 79.496 95.8305 79.6819 95.9121 79.7748C95.9121 79.6819 95.9121 79.496 95.8305 79.4031ZM95.5039 53.6613L95.5855 53.8471C95.5855 53.9401 95.5855 53.9401 95.5039 54.033V53.6613ZM93.4628 49.8511C93.3812 49.7582 93.3812 49.5723 93.4628 49.3864V49.8511ZM116.731 70.6676C116.65 70.5747 116.65 70.3888 116.65 70.2959C116.731 70.3888 116.731 70.5747 116.731 70.6676ZM116.813 66.114L116.731 66.0211C116.731 65.9282 116.813 65.9282 116.813 65.9282V66.114ZM116.486 60.5382L116.405 60.4452L116.486 60.2594V60.5382ZM116.731 69.8312C116.65 69.7383 116.65 69.5524 116.731 69.4595V69.8312ZM114.527 46.8773C114.445 46.7844 114.445 46.6914 114.445 46.5985C114.527 46.6914 114.527 46.7844 114.527 46.8773ZM93.7077 46.8773C93.7893 46.9702 93.7893 47.0632 93.7893 47.1561C93.7077 47.0632 93.7077 46.9702 93.7077 46.8773ZM116.323 61.4675L116.242 61.2816L116.323 61.1887V61.4675ZM95.5038 74.8495V74.6636H95.5855L95.5038 74.8495ZM115.67 54.8694L115.588 54.7764V55.0552L115.67 54.8694ZM93.2995 54.5906V54.4977H93.3811V54.5906H93.2995ZM95.5855 53.3825L95.5039 53.2895L95.5855 53.1966V53.3825ZM116.405 66.2999V66.2069C116.486 66.2999 116.486 66.2999 116.486 66.3928L116.405 66.2999ZM93.871 65.6493H93.7894V65.5564L93.871 65.6493ZM117.221 64.72H117.14L117.221 64.6271V64.72ZM95.9121 73.3626L95.9938 73.4555H95.9121V73.3626ZM116.405 60.9099L116.486 60.817V60.9099H116.405ZM96.8102 79.589H96.8918L96.8102 79.6819V79.589ZM116.242 62.025V61.9321H116.323L116.242 62.025ZM116.323 59.3301C116.323 59.2371 116.323 59.2371 116.405 59.1442L116.323 59.3301ZM93.7893 50.037L93.8709 50.1299H93.7893V50.037ZM117.711 77.2657L117.711 77.1728L117.793 77.2657H117.711ZM114.609 50.5945C114.609 50.5016 114.609 50.5016 114.69 50.4087C114.69 50.5016 114.69 50.5016 114.609 50.5945ZM95.5038 62.4897L95.5855 62.3968V62.4897H95.5038ZM115.588 60.9099L115.67 60.817L115.588 60.724V60.9099ZM117.63 76.4293C117.63 76.3364 117.63 76.3364 117.711 76.2435C117.711 76.3364 117.711 76.3364 117.63 76.4293Z" fill="#083B66"/>
<path d="M149.939 60.4452C149.939 59.9805 149.694 59.423 149.204 59.423C148.306 59.423 148.224 60.6311 148.143 61.3745C147.49 65.7422 143.897 74.106 139.407 74.106C136.713 74.106 136.386 73.2697 134.59 71.1322C134.1 69.4595 133.12 67.7867 133.12 65.9281V65.7422C133.692 65.5564 134.182 65.0917 134.671 64.72C137.692 62.7685 140.713 60.1664 140.713 55.7986C140.713 52.8249 138.509 49.8511 135.815 49.8511C129.446 49.8511 127.242 54.6835 126.18 60.8169C126.017 61.7462 125.691 62.8614 125.691 63.7907C125.691 66.7645 126.507 69.4595 127.242 72.2474C127.487 73.3626 130.426 76.6152 131.324 77.2657C132.549 78.195 134.427 78.6596 135.896 78.6596C136.876 78.6596 140.223 78.195 140.958 77.3586C146.02 75.5 149.939 66.114 149.939 60.4452ZM135.733 53.1037C136.876 53.1037 137.774 54.4047 137.774 55.6128C137.774 59.0512 135.243 61.3745 132.794 62.8614C132.712 62.4897 132.63 61.1886 132.63 60.8169V59.7017C132.63 57.5643 133.284 53.1037 135.733 53.1037ZM130.099 60.5381C130.099 60.2593 130.099 59.9805 130.018 59.7017V60.5381L130.099 60.631V61.0957C130.018 60.9098 130.018 60.724 130.018 60.5381V61.5604L130.099 61.3745C130.263 61.7462 130.344 62.1179 130.344 62.4897C130.344 62.7685 130.263 63.0472 130.263 63.2331C130.181 63.0472 130.181 62.7685 130.181 62.5826C130.181 62.3967 130.263 61.8391 130.018 61.7462C129.936 62.025 129.936 62.3038 129.936 62.5826C129.773 61.5604 129.691 60.3523 129.61 59.1442C129.528 59.8876 129.528 60.8169 129.446 60.9098C129.446 60.631 129.365 60.3523 129.283 60.0735L129.365 59.8876C129.283 59.8876 129.201 59.7947 129.201 59.6088V59.5159H129.446V59.1442C129.446 58.9583 129.446 58.6795 129.365 58.4936L129.283 58.8654V58.4007L129.202 58.2148V58.1219L129.446 58.029C129.446 57.8431 129.446 57.6573 129.365 57.4714L129.446 57.2856C129.446 57.2856 129.528 57.4714 129.528 57.6573C129.528 57.0997 129.61 56.5421 130.018 56.0775V56.9138L130.1 56.8209V57.1926L130.018 57.0997V57.3785L130.1 57.2856C130.181 57.6573 130.263 58.029 130.263 58.4007C130.263 58.9583 130.263 59.9805 130.099 60.5381ZM132.467 73.8272C132.385 74.106 132.385 74.3848 132.304 74.6636L132.059 74.3848C132.059 73.7343 132.14 72.8979 132.304 72.3403C132.385 72.7121 132.467 73.3626 132.467 73.7343L132.63 73.2696V72.8979C132.875 73.1767 133.12 73.4555 133.284 73.7343C133.202 74.0131 133.202 74.3848 132.957 74.6636C132.957 74.8495 133.039 75.0353 133.039 75.1283L132.875 75.0353V74.199C132.794 74.4778 132.794 74.7565 132.794 75.0353L132.63 74.8495C132.712 74.6636 132.712 74.5707 132.712 74.3848L132.63 74.2919L132.549 74.5707C132.549 74.2919 132.549 74.0131 132.467 73.8272ZM129.773 71.3181C129.691 70.7605 129.691 70.11 129.691 69.5524V66.2998L129.61 66.4857V66.2998L129.528 66.114H129.691V64.9988L129.773 64.8129C129.773 65.9281 129.855 66.9503 129.855 68.0655V69.8312C129.855 70.2959 129.854 70.8535 129.773 71.3181ZM131.569 73.1767C131.569 72.9909 131.569 72.8979 131.651 72.7121V71.8757L131.569 71.9686C131.569 71.504 131.651 71.1322 131.651 70.6676C131.732 70.7605 131.896 71.2252 131.896 71.3181V72.4333C131.896 72.805 131.814 73.2696 131.732 73.6414L131.569 73.1767ZM129.936 58.4936C130.018 58.2148 129.936 57.9361 129.773 57.6573V58.029C129.773 58.5866 129.773 59.1442 129.854 59.7017C129.936 59.5159 130.018 59.423 130.018 59.2371L130.099 59.5159C130.099 59.423 130.181 59.2371 130.181 59.1442C130.181 58.8654 130.018 58.4936 130.018 58.2148L129.936 58.4936ZM129.446 64.6271C129.365 64.3483 129.283 62.8614 129.446 62.5826V64.6271ZM130.834 55.0552C130.834 55.334 130.834 55.6128 130.753 55.7986L130.671 55.8916V55.2411L130.834 55.0552ZM128.548 66.114C128.63 66.6716 128.63 67.1362 128.63 67.6938L128.548 67.5079V66.114ZM129.61 59.1442C129.61 58.8654 129.61 58.5866 129.61 58.4007C129.61 58.3078 129.61 57.9361 129.528 57.6573C129.528 58.1219 129.528 58.5866 129.61 59.1442ZM128.711 61.7462C128.63 61.4674 128.63 61.1886 128.63 60.9098L128.711 60.724V61.7462ZM129.201 60.6311C129.283 60.8169 129.283 61.0957 129.201 61.2816L129.12 60.9098L129.201 60.6311ZM129.365 62.5826C129.365 62.3967 129.365 62.1179 129.446 61.9321V62.4897L129.365 62.5826ZM128.222 63.326C128.222 63.5119 128.303 63.6978 128.222 63.8836V63.326ZM131.406 71.3181L131.324 71.1322L131.406 71.0393V71.3181ZM131.406 71.9686L131.324 71.7828L131.406 71.6898V71.9686Z" fill="#083B66"/>
<path d="M162.147 72.9908C163.944 71.8757 165.087 69.7383 165.821 67.6009C167.944 66.6716 173.006 63.419 173.006 60.4452C173.006 60.0735 172.679 59.7017 172.353 59.7017C171.863 59.7017 171.455 59.9805 171.21 60.4452C169.985 62.5826 168.271 64.3483 166.148 65.2776C166.148 61.6533 165.168 58.029 162.882 55.4269C162.147 54.5905 159.045 52.4531 157.983 52.4531C157.575 52.4531 157.085 52.4531 156.677 52.4531C155.208 52.4531 153.656 52.5461 152.432 53.4754C151.779 53.94 151.615 54.4976 151.125 55.0552C148.921 57.8431 147.778 58.7724 147.778 62.9543C147.778 69.8312 152.513 74.1989 158.228 74.1989C158.718 74.1989 161.657 73.2696 162.147 72.9908ZM154.554 56.635C154.554 55.9845 154.963 54.1259 155.779 54.1259C159.29 54.1259 160.27 62.6755 160.596 65.4634C157.575 64.1624 156.187 62.4897 155.208 58.9583C155.044 58.2148 154.554 57.3785 154.554 56.635ZM158.473 70.8534C155.942 70.8534 155.534 65.9281 154.881 63.9765C156.759 66.6715 157.739 66.9503 160.514 67.9726C160.188 69.2736 160.025 70.8534 158.473 70.8534ZM163.045 65.6493C163.045 64.9059 162.882 64.2553 162.882 63.5119V63.326C163.045 63.1402 162.964 61.9321 162.882 61.7462H162.801V61.8391L162.719 61.9321C162.801 61.6533 162.882 61.2815 162.964 61.0027H163.127C163.209 61.6533 163.29 62.3038 163.29 62.8614C163.29 63.2331 163.209 63.6048 163.127 63.8836C163.127 64.5341 163.29 65.0917 163.045 65.6493ZM152.023 65.8352C152.35 66.2069 152.268 66.9503 152.268 67.415V68.9019C152.105 68.2514 152.023 67.5079 152.023 66.7645C152.187 66.5786 151.942 66.2069 151.942 66.021C151.942 65.9281 152.023 65.8352 152.023 65.8352ZM163.127 67.6938C163.127 67.3221 163.209 65.3705 163.29 65.1847C163.29 65.2776 163.372 65.3705 163.372 65.4634C163.372 65.3705 163.372 65.3705 163.454 65.2776V65.6493C163.454 66.2998 163.372 66.8574 163.29 67.415L163.127 67.6938ZM163.535 66.4857C163.535 66.021 163.617 65.5564 163.454 65.0917C163.617 64.3483 163.535 63.419 163.535 62.6755C163.617 63.0472 163.699 63.419 163.699 63.7907C163.699 64.4412 163.699 66.2069 163.535 66.4857ZM163.29 65.0917V64.9988L163.372 65.0917H163.29ZM162.964 61.4674L163.045 61.5603V61.4674H162.964Z" fill="#083B66"/>
<path d="M195.315 59.9805C195.315 57.0997 194.989 50.5945 194.091 47.9924C193.846 47.3419 194.091 46.5055 193.846 45.855C193.438 44.4611 193.193 43.0671 192.703 41.6731C190.907 36.469 187.396 27.4547 181.517 27.4547C179.313 27.4547 176.456 28.7557 175.394 31.1719C174.986 30.7073 174.333 30.2426 173.761 30.2426C170.74 30.2426 170.904 31.8225 170.904 34.3316C170.904 35.075 170.74 35.8185 170.74 36.5619V56.9138C170.74 58.4007 170.985 59.8876 171.067 61.3745C171.312 65.9281 171.475 70.2958 171.965 74.8495C171.557 75.1283 171.23 75.5929 171.23 76.1505C171.23 76.9869 171.802 77.0798 172.292 77.5444C172.945 79.8677 172.047 80.4253 174.333 81.4476C174.904 81.7263 175.557 82.0051 176.211 82.0051C178.415 82.0051 180.211 81.4475 180.211 78.4738C189.927 77.0798 195.315 71.1322 195.315 59.9805ZM180.293 75.6858C180.293 72.0615 180.374 68.3443 180.211 64.72C180.13 63.6978 179.966 62.7684 179.966 61.7462C179.966 56.635 178.987 51.4309 178.987 46.3197C178.987 43.6247 178.66 40.9297 178.66 38.2347C178.66 36.0973 178.578 29.778 181.273 29.778C182.252 29.778 182.987 30.8932 183.477 31.8225C186.906 38.2347 188.457 49.944 188.539 57.2855C188.539 58.029 188.784 58.8653 188.784 59.6088C188.784 64.9059 187.967 70.8534 183.967 74.0131C183.15 74.6636 183.15 75.0353 182.171 75.3141C181.518 75.5 180.864 75.407 180.293 75.6858ZM173.516 63.6978C173.516 61.3745 173.19 59.1441 173.19 56.8209V48.3642C173.761 49.4793 173.761 54.7764 173.761 56.1704C173.761 58.3078 173.68 60.5381 173.598 62.6755H173.68V63.5119L173.516 63.6978ZM177.19 56.2633V58.1219L177.109 58.2148H177.19C177.19 59.2371 177.19 60.2593 177.354 61.2815C177.272 61.4674 177.19 61.6533 177.19 61.9321C177.19 62.6755 177.354 63.326 177.354 64.0695C177.354 64.2553 177.354 64.6271 177.109 64.6271C177.109 64.1624 177.027 63.6977 177.027 63.2331C177.027 61.7462 177.435 59.6088 176.945 58.1219V59.4229L176.864 59.2371V58.6795C176.456 57.936 176.456 56.635 176.456 55.7986C176.456 54.5905 176.619 53.2895 176.619 52.0814L176.456 51.7097V51.6167C176.619 51.245 176.619 50.7804 176.701 50.4086V50.5945L176.782 50.7804C176.782 51.9885 177.027 53.3824 177.027 54.5905L176.946 54.6835H177.027C177.027 54.8693 177.109 54.9622 177.109 55.1481V55.7986L176.945 55.9845L177.027 55.7057C176.945 55.8916 176.945 56.1703 176.945 56.3562H177.027V56.5421L176.945 56.4491V56.7279L177.027 56.635C177.027 56.8209 177.027 57.0067 177.109 57.1926C177.109 57.0067 177.109 56.8209 177.19 56.635L177.109 56.3562L177.19 56.2633ZM173.925 68.0655L174.006 68.1584V68.0655C174.088 68.2514 174.088 68.4372 174.251 68.6231C174.006 67.6008 174.333 66.6715 174.333 65.7422L174.414 61.0957C174.578 61.2816 174.578 61.6533 174.578 61.9321C174.578 62.2109 174.496 62.5826 174.578 62.8614C174.822 62.3038 174.659 62.1179 174.659 61.5603C174.741 62.3038 174.741 63.1402 174.741 63.8836C174.741 65.6493 174.496 67.5079 174.496 69.2736L174.414 69.3665H174.333L174.169 69.0877V69.8312L174.088 69.3665L174.006 69.6453L173.925 69.4595V68.0655ZM173.271 46.9702C173.026 44.3681 173.271 41.2085 173.271 38.6064L173.19 38.6993V37.863C173.271 38.0488 173.271 38.2347 173.271 38.4206L173.435 37.77C173.435 38.7923 173.19 39.6287 173.516 40.6509C173.598 40.3721 173.598 40.1862 173.598 39.9074L173.679 40.0004C173.679 40.2792 173.679 40.558 173.761 40.8367C173.679 41.0226 173.679 41.1155 173.679 41.3014L173.598 40.9297L173.516 41.1155C173.516 41.3014 173.516 41.4873 173.598 41.6731C173.435 41.766 173.598 42.4166 173.598 42.6024C173.598 42.4166 173.679 42.0448 173.761 41.859C173.761 42.1378 173.761 42.5095 173.843 42.7883C173.761 43.0671 173.761 43.4388 173.761 43.7176L173.598 43.0671C173.516 43.5317 173.516 44.0893 173.516 44.554V44.6469H173.598L173.679 44.461C173.679 44.554 173.679 44.7398 173.761 44.8328C173.679 45.1116 173.679 45.2974 173.679 45.5762L173.598 45.7621L173.516 45.2974C173.353 46.1338 173.435 46.9702 173.435 47.8066L173.271 47.156L173.19 47.7136V47.156L173.271 46.9702ZM192.539 61.6533C192.213 60.0734 192.539 58.029 192.131 56.635C192.295 55.7057 192.213 54.8693 192.213 53.94C192.458 55.6128 192.213 57.3785 192.458 59.0512C192.458 58.8653 192.539 58.6795 192.539 58.4936C192.539 57.6572 192.376 56.7279 192.376 55.7986C192.376 55.7057 192.376 55.334 192.458 55.334C192.539 56.635 192.621 57.936 192.621 59.2371C192.621 59.6088 192.539 60.0734 192.539 60.4452L192.458 60.3522C192.539 60.724 192.539 61.1886 192.539 61.6533ZM191.396 66.8574C191.315 66.2069 191.233 65.5564 191.233 64.9059V64.72L191.315 64.6271H191.233V62.5826C191.233 61.9321 191.233 61.3745 191.315 60.8169C191.315 62.3038 191.56 63.8836 191.56 65.3705C191.56 65.7422 191.641 66.5786 191.396 66.8574ZM189.519 40.2792C189.764 40.9297 189.845 41.2085 189.845 41.9519V43.7176C189.845 43.9964 189.845 44.2752 189.764 44.554C189.6 44.0893 189.437 43.4388 189.437 42.8812V41.4873L189.519 41.7661V40.2792ZM190.335 47.9924C190.253 47.5278 190.09 46.5985 190.09 46.1338V41.6731C190.172 41.859 190.335 42.3237 190.335 42.4166V47.9924ZM192.131 56.635C192.131 57.3785 192.05 58.1219 192.05 58.8653C191.886 57.6572 191.805 56.4491 191.805 55.241C191.805 54.8693 191.805 53.8471 192.131 53.5683C192.05 54.5905 192.131 55.6128 192.131 56.635ZM190.988 44.6469C190.988 45.0186 190.907 45.4833 190.743 45.855C190.825 46.1338 190.825 46.4126 190.825 46.6914L190.662 46.9702C190.58 45.5762 190.498 44.2752 190.498 42.8812C190.743 43.3459 190.743 43.9964 190.907 44.554L190.988 44.6469ZM173.19 36.6549C173.19 35.4468 173.353 34.3316 173.353 33.1235L173.516 33.0306L173.68 33.3094C173.598 34.4245 173.598 36.1902 173.19 37.2125V36.6549ZM176.456 45.5762L176.374 45.2045C176.292 45.4833 176.374 45.6692 176.374 45.948H176.456L176.374 46.2267V45.948C176.211 45.3904 176.129 43.3459 176.129 42.7883C176.129 42.6024 176.211 42.4166 176.211 42.2307V42.6954C176.211 42.1378 176.129 40.1862 176.374 39.7216C176.374 41.2085 176.455 42.6024 176.455 44.0893L176.456 45.5762ZM177.272 68.9948C177.272 69.0877 177.19 69.7383 177.19 69.7383C177.19 69.1807 176.945 68.6231 176.945 68.0655C176.945 67.7867 176.945 67.2291 177.109 67.0433C177.272 67.6938 177.272 68.3443 177.272 68.9948ZM192.213 52.9178C192.213 52.546 192.213 52.0814 192.294 51.8026C192.294 52.639 192.458 53.4754 192.458 54.4047C192.458 54.6835 192.458 54.9623 192.458 55.241C192.458 54.6835 192.294 54.1259 192.294 53.5683L192.213 53.8471V53.4754H192.294L192.213 53.0107V53.1966C192.213 53.1036 192.213 53.0107 192.213 52.9178ZM174.169 62.7684C174.088 62.2109 174.088 61.6533 174.088 61.0957V60.4452C174.169 60.631 174.251 60.9098 174.251 61.0957C174.251 61.6533 174.169 62.2109 174.169 62.7684ZM174.986 69.8312C174.904 69.6453 174.904 69.3665 174.904 69.1807L174.823 69.3665H174.659C174.659 69.0877 174.741 68.716 174.823 68.4372H175.068C174.986 68.9948 175.068 69.4595 175.068 69.9241L174.986 69.8312ZM192.05 61.9321C192.131 62.6755 192.295 63.419 192.458 64.0695L192.295 64.72C192.213 64.0695 192.05 63.2331 192.05 62.5826V61.9321ZM190.172 70.2958C190.008 70.3888 190.008 70.5746 189.927 70.7605V69.6453L190.09 69.1807C190.09 69.5524 190.172 69.9241 190.172 70.2958ZM190.335 67.9726C190.335 68.6231 190.417 69.2736 190.417 69.9241C190.335 69.9241 190.335 70.017 190.335 70.11C190.172 69.5524 190.253 68.716 190.253 68.1584L190.335 67.9726ZM175.884 41.5802C176.047 42.4166 176.047 43.253 175.884 43.9964V41.5802ZM192.131 50.3157C192.213 50.6874 192.295 50.9662 192.295 51.3379V51.6167L192.131 51.7097C192.131 51.245 192.131 50.6874 192.05 50.2228L192.131 50.3157ZM192.05 59.1441C192.131 59.7947 192.213 60.724 192.213 61.3745L192.131 61.1886L192.05 61.3745V60.4452V60.5381L192.05 59.1441ZM191.886 61.0957C191.723 60.631 191.805 59.6088 191.805 59.1441C191.886 59.5159 191.968 60.724 191.886 61.0957ZM191.478 67.8796L191.315 68.4372V68.1584C191.315 67.8796 191.315 67.6009 191.396 67.415L191.478 67.8796ZM174.986 71.1322C174.986 71.0393 174.823 70.7605 174.823 70.6676C174.823 70.4817 174.904 70.2958 174.986 70.11V71.1322ZM173.68 65.3705C173.598 64.9059 173.598 64.4412 173.68 63.9765V65.3705ZM191.152 63.1402V64.3483C191.07 63.9765 191.07 63.5119 191.07 63.1402H191.152ZM176.374 46.3197V46.5055L176.537 46.4126V46.5055L176.456 46.8773L176.292 46.7843C176.374 46.5985 176.292 46.5055 176.292 46.3197L176.374 46.3197ZM192.621 55.5198V54.3117C192.703 54.6835 192.703 55.334 192.703 55.7057L192.621 55.5198ZM188.049 37.1195L188.131 36.7478L188.212 36.8407V37.4912L188.049 37.1195ZM173.516 38.6064C173.68 38.7923 173.598 39.3499 173.598 39.6287C173.516 39.2569 173.516 38.9781 173.516 38.6064ZM173.516 47.0631C173.516 46.6914 173.516 46.3197 173.598 46.0409C173.598 46.4126 173.68 46.7843 173.516 47.0631ZM174.578 74.7565C174.578 75.0353 174.496 75.3141 174.578 75.5929C174.578 75.3141 174.659 75.0353 174.578 74.7565ZM173.761 60.9098C173.761 61.2816 173.761 61.7462 173.68 62.1179C173.68 61.7462 173.68 61.2816 173.761 60.9098ZM174.659 63.7907C174.659 63.6048 174.578 63.6048 174.496 63.5119V64.0695L174.659 63.7907ZM176.945 62.9543C176.864 63.326 176.864 63.7907 176.864 64.2553C176.782 63.7907 176.782 63.326 176.864 62.8614L176.945 62.9543ZM174.659 73.7343C174.578 74.106 174.578 74.3848 174.578 74.7565C174.659 74.3848 174.659 74.106 174.659 73.7343ZM177.354 72.712V72.6191L177.435 72.4333C177.435 72.3403 177.435 72.2474 177.517 72.2474C177.517 72.4333 177.517 72.6191 177.435 72.805L177.354 72.712ZM175.149 71.2252C175.149 70.9464 175.068 70.7605 175.068 70.4817C175.231 70.6676 175.231 70.9464 175.149 71.2252ZM174.578 63.1402C174.659 63.2331 174.741 63.1402 174.659 63.0472C174.578 63.1402 174.496 63.326 174.496 63.419H174.659L174.578 63.1402ZM191.152 58.2148C191.07 58.029 191.07 57.8431 191.07 57.6572L191.152 57.4714V58.2148ZM191.968 64.72C191.968 64.4412 191.886 64.2553 191.968 63.9765C191.968 64.2553 192.05 64.4412 191.968 64.72ZM175.557 77.1727L175.476 77.3586L175.557 77.6374V77.1727ZM191.152 61.5603L191.07 61.6533V61.2815L191.152 61.1886V61.5603ZM192.05 53.0107C191.968 52.8248 191.968 52.639 192.05 52.4531C192.131 52.639 192.05 52.8248 192.05 53.0107ZM174.414 69.7383V70.0171L174.333 70.11L174.414 69.8312C174.333 69.9241 174.251 69.8312 174.251 69.7383H174.414ZM175.394 73.2696C175.476 73.0838 175.476 72.8979 175.394 72.712V73.2696ZM177.19 70.4817C177.19 70.4817 177.109 70.3888 177.109 70.2958C177.109 70.2958 177.19 70.2029 177.19 70.11L177.272 70.2958C177.272 70.3888 177.272 70.3888 177.19 70.4817ZM191.152 62.5826V62.8614C191.07 62.7684 191.07 62.7684 191.07 62.5826H191.152ZM191.152 65.0917H191.07V64.8129H191.152V65.0917ZM177.027 66.8574L177.109 67.0433C177.027 67.0433 176.945 66.9503 176.945 66.8574H177.027ZM176.864 59.7947L176.782 59.6088C176.782 59.5159 176.782 59.5159 176.864 59.4229V59.7947ZM176.047 47.4348C176.047 47.3419 176.047 47.1561 176.129 47.0631C176.129 47.1561 176.129 47.3419 176.047 47.4348ZM174.17 69.9241C174.251 70.11 174.251 70.2958 174.17 70.3888V69.9241ZM191.886 50.1298C191.886 50.3157 191.968 50.5016 191.886 50.6874V50.1298ZM176.374 76.3364C176.374 76.4293 176.374 76.5222 176.292 76.6151V76.4293L176.374 76.3364ZM176.945 58.029L177.027 57.936L176.945 57.7502V58.029ZM175.231 72.8979L175.149 72.712V72.9908L175.231 72.8979ZM176.864 79.1243V78.8455L176.945 79.1243H176.864ZM190.743 48.0854V48.3642C190.743 48.2712 190.662 48.1783 190.662 48.1783L190.743 48.0854ZM176.129 37.5842C176.047 37.3983 176.047 37.3054 176.129 37.2125V37.5842ZM174.578 64.72C174.578 64.6271 174.578 64.5341 174.496 64.4412C174.496 64.5341 174.496 64.6271 174.578 64.72ZM176.129 38.6064C176.129 38.5135 176.047 38.3276 176.047 38.2347C176.129 38.3276 176.129 38.5135 176.129 38.6064ZM191.315 67.2291L191.396 67.0433C191.396 67.1362 191.396 67.2291 191.315 67.3221V67.2291ZM191.886 58.7724C191.886 58.7724 191.805 58.8653 191.723 58.8653L191.805 58.7724H191.886ZM174.006 68.4372L173.925 68.5301L174.006 68.6231L174.088 68.5301L174.006 68.4372ZM173.598 63.326L173.68 63.1402L173.598 63.0472V63.326ZM174.986 68.716L174.904 68.6231V68.9019L174.986 68.716ZM174.741 71.6898L174.823 71.7827C174.823 71.8757 174.741 71.9686 174.741 71.9686V71.6898ZM176.211 42.9742L176.292 42.7883L176.211 42.6954L176.211 42.9742ZM173.598 66.2069V66.021C173.68 66.1139 173.68 66.1139 173.68 66.2069H173.598ZM176.374 76.9869L176.292 76.801L176.374 76.7081V76.9869ZM177.19 70.7605L177.272 70.8534C177.272 70.9464 177.19 71.0393 177.19 71.0393V70.7605ZM175.802 74.4777C175.884 74.4777 175.884 74.5707 175.884 74.6636C175.802 74.6636 175.802 74.5707 175.802 74.4777ZM173.843 59.7017C173.843 59.7947 173.843 59.8876 173.761 59.9805L173.843 59.7017ZM174.904 70.11H174.823V70.0171L174.904 70.11ZM173.68 40.6509H173.598V40.7438L173.68 40.6509ZM176.864 60.4452L176.945 60.3522V60.4452H176.864ZM176.782 78.195C176.701 78.102 176.701 78.102 176.701 78.0091L176.782 78.195ZM176.619 51.8955C176.7 51.8026 176.7 51.8026 176.7 51.7097V51.8026L176.619 51.8955ZM173.598 44.9257V45.0186L173.68 44.9257H173.598ZM176.864 60.5381L176.945 60.631H176.864V60.5381ZM175.476 73.6414L175.394 73.7343H175.476V73.6414ZM192.539 59.2371C192.458 59.33 192.458 59.33 192.458 59.4229C192.539 59.33 192.539 59.33 192.539 59.2371ZM173.271 41.9519H173.353V41.859L173.271 41.9519ZM174.088 59.6088L174.169 59.7017L174.088 59.7946V59.6088ZM175.802 73.9202H175.721V73.8272L175.802 73.9202ZM191.805 58.3078H191.723L191.805 58.2148V58.3078ZM191.805 58.4936L191.886 58.5865H191.805V58.4936Z" fill="#083B66"/>
<path d="M220.103 63.6978C220.103 58.1219 215.776 55.7057 211.857 54.2188C214.388 51.3379 216.184 47.249 216.184 43.0671C216.184 40.9297 216.266 38.3276 215.286 36.3761C213.898 33.6811 212.102 31.079 209 31.079C207.448 31.079 206.142 31.6366 204.999 32.7518C204.673 30.0568 205.162 27.4547 201.815 27.4547C199.039 27.4547 198.794 29.0345 198.794 31.7295C198.794 34.8892 199.039 38.1418 199.039 41.3943C199.039 46.6914 199.284 51.9885 199.284 57.3785C199.284 60.724 199.611 64.0695 199.611 67.415C199.611 68.4372 199.856 69.3665 199.856 70.3888C199.856 70.6676 199.774 70.8534 199.692 71.1322C198.876 71.411 198.549 72.1545 198.549 73.0838C198.549 73.8272 198.794 75.1283 199.611 75.2212L199.856 75.1283V75.5929C199.856 77.3586 199.284 80.4253 201.08 81.2617C201.652 81.5405 202.387 82.0051 202.958 82.0051C204.183 82.0051 207.857 81.8193 207.857 79.7748C207.367 78.5667 207.857 77.0798 207.53 75.8717C213.409 75.8717 220.103 71.0393 220.103 63.6978ZM208.428 55.9845C211.857 55.9845 216.184 58.6795 216.184 63.0472C216.184 67.9726 210.796 70.5746 207.285 71.1322C207.122 69.7383 206.877 68.2514 206.877 66.8574C206.877 64.1624 206.714 58.6795 206.387 56.0774C206.632 55.9845 206.877 55.9845 207.122 55.9845L208.428 55.9845ZM209.326 33.5882C211.367 33.5882 212.347 35.6326 212.347 37.863C212.347 43.4388 209.735 49.2935 206.305 53.1966C205.979 52.4531 205.489 41.4873 205.489 40.2792C205.489 37.863 206.061 36.5619 207.53 34.8892C207.857 34.5175 208.836 33.5882 209.326 33.5882ZM203.774 58.8653C203.774 59.8876 203.774 60.9098 203.938 61.9321C203.856 62.1179 203.774 62.3038 203.774 62.5826C203.774 63.326 203.938 63.9765 203.938 64.72C203.938 64.9059 203.938 65.2776 203.693 65.2776C203.693 64.8129 203.611 64.3483 203.611 63.8836C203.611 62.2109 204.019 60.4452 203.53 58.7724V60.0734L203.448 59.8876V59.33C203.04 58.5866 203.04 57.2855 203.04 56.4491C203.04 55.241 203.203 53.94 203.203 52.7319L203.04 52.3602V52.2673C203.366 51.6167 203.203 50.7804 203.366 50.0369C203.366 50.3157 203.366 50.5945 203.366 50.8733L203.448 50.6874C203.53 51.5238 203.53 52.3602 203.53 53.1966L203.611 53.2895L203.693 52.9178C203.856 53.8471 203.938 54.6835 203.938 55.6128C203.856 55.9845 204.019 56.8209 204.019 57.1926L203.938 57.0997C204.019 57.2855 204.019 57.7502 204.019 58.029C203.938 57.6573 203.856 57.2855 203.693 57.0067C203.856 56.4492 203.938 54.2188 203.611 53.8471C203.611 54.4976 203.611 55.0552 203.53 55.7057L203.611 55.334C203.693 55.7057 203.693 56.0774 203.693 56.4492L203.529 56.635L203.611 56.3562C203.529 56.5421 203.529 56.8209 203.529 57.0067H203.611V57.1926L203.529 57.0997V57.3785L203.611 57.2855C203.611 57.4714 203.611 57.6573 203.693 57.8431C203.693 57.6573 203.693 57.4714 203.774 57.2855V58.7724L203.693 58.8654L203.774 58.8653ZM203.285 43.7176C203.203 44.554 203.366 45.2974 203.366 46.1338L203.448 46.3197V47.7136L203.366 47.8066V46.8773C203.285 47.156 203.285 47.4348 203.285 47.7136L203.203 47.8066C203.203 47.156 203.121 46.2267 203.285 45.5762H203.203C203.203 45.3904 203.203 45.1116 203.285 44.9257L203.203 44.8328C202.958 45.1116 203.04 45.855 203.04 46.2267L202.958 45.855V46.5985H203.04L202.958 46.8773V46.5985C202.795 46.0409 202.713 43.9964 202.713 43.4388C202.713 42.6024 202.877 41.7661 202.877 40.9297L202.958 41.1155L203.04 40.9297C203.04 41.7661 203.285 42.4166 203.285 43.16V43.6247L203.203 43.7176L203.285 43.7176ZM202.305 78.8455C202.305 78.2879 202.223 77.8232 202.223 77.2657V76.4293L202.305 76.2434V76.6151L202.386 76.4293V76.2434L202.468 76.3363V77.8232C202.55 77.7303 202.55 77.5445 202.55 77.4515C202.631 78.0091 202.631 78.4738 202.631 79.0313L202.305 78.8455ZM203.856 69.6453C203.856 69.7383 203.775 70.3888 203.775 70.3888C203.775 69.8312 203.53 69.2736 203.53 68.716C203.53 68.4372 203.53 67.8796 203.693 67.6938C203.856 68.3443 203.856 68.9948 203.856 69.6453ZM201.897 72.805C201.897 73.0838 202.305 74.7565 202.387 74.8495L202.305 75.0353C202.305 74.6636 202.142 74.106 201.978 73.8272C201.897 73.6414 201.815 73.3626 201.652 73.2696L201.815 72.8979V72.805H201.897ZM202.468 42.2307C202.631 43.0671 202.631 43.9035 202.468 44.6469V42.2307ZM202.958 39.8145V40.0004H202.876C202.876 39.9075 202.795 39.8145 202.795 39.7216C202.795 39.5357 202.958 39.4428 203.04 39.4428V39.8145H202.958ZM202.876 47.4348C202.958 47.249 202.876 47.1561 202.876 46.9702H202.958V47.1561L203.121 47.0631L203.04 47.5278L202.876 47.4348ZM203.938 58.8653C203.938 58.7724 204.019 58.5866 204.019 58.4936C204.019 58.5866 204.101 58.7724 204.101 58.8653V59.0512L203.938 59.1441L203.938 58.8653ZM210.959 51.1521C211.041 50.7804 211.286 50.5016 211.449 50.2228V50.4086L210.959 51.1521ZM203.53 63.6048C203.448 63.9765 203.448 64.4412 203.448 64.9059C203.366 64.4412 203.366 63.9765 203.448 63.5119L203.53 63.6048ZM203.938 73.2696L204.019 73.0838C204.019 72.9908 204.019 72.8979 204.101 72.8979C204.101 73.0838 204.101 73.2696 204.019 73.4555L203.938 73.3626V73.2696ZM203.448 48.1783C203.366 48.0854 203.366 47.9924 203.366 47.8066L203.448 47.8995V48.1783ZM203.856 70.9464C203.856 71.0393 203.856 71.0393 203.775 71.1322C203.775 71.1322 203.693 71.0393 203.693 70.9464C203.693 70.9464 203.775 70.8534 203.775 70.7605L203.856 70.9464ZM204.019 59.7017L203.938 59.33C204.019 59.4229 204.019 59.5159 204.101 59.6088L204.019 59.7017ZM203.611 51.0592C203.53 50.8733 203.53 50.6874 203.53 50.5016C203.611 50.6874 203.611 50.8733 203.611 51.0592ZM202.876 40.7438C202.876 40.558 202.876 40.465 202.958 40.2792C202.958 40.465 202.958 40.558 202.876 40.7438ZM203.611 67.5079L203.693 67.6938C203.611 67.6938 203.53 67.6009 203.53 67.5079H203.611ZM202.632 48.0854C202.632 47.9924 202.632 47.8066 202.713 47.7136C202.713 47.8066 202.713 47.9924 202.632 48.0854ZM203.448 60.4452L203.366 60.2593C203.366 60.1664 203.366 60.1664 203.448 60.0734V60.4452ZM203.366 49.2005V48.9217L203.448 49.0147L203.366 49.2005ZM202.958 76.9869C202.958 77.0798 202.958 77.1727 202.877 77.2657V77.0798L202.958 76.9869ZM203.611 58.5866L203.53 58.4007V58.6795L203.611 58.5866ZM202.305 73.6414C202.305 73.6414 202.223 73.6414 202.223 73.5484L202.305 73.4555V73.6414ZM202.713 38.2347C202.632 38.0488 202.632 37.9559 202.713 37.863V38.2347ZM202.713 39.2569C202.713 39.164 202.632 38.9781 202.632 38.8852C202.713 38.9781 202.713 39.164 202.713 39.2569ZM202.958 77.6374L202.877 77.4515L202.958 77.3586V77.6374ZM202.958 40.2792L202.958 40.0933L203.04 40.3721L202.958 40.2792ZM203.775 71.411L203.856 71.5039C203.856 71.5969 203.775 71.6898 203.775 71.6898V71.411ZM202.795 43.6247L202.876 43.4388L202.795 43.3459V43.6247ZM202.387 75.1282C202.468 75.1282 202.468 75.2212 202.468 75.3141C202.387 75.3141 202.387 75.2212 202.387 75.1282ZM202.387 75.7788H202.305V75.5929L202.387 75.7788ZM203.203 52.546C203.285 52.4531 203.285 52.4531 203.285 52.3602V52.4531L203.203 52.546ZM203.53 61.2816H203.448V61.1886L203.53 61.2816ZM204.02 58.1219L204.101 58.2148H204.02V58.1219ZM202.387 74.5707H202.305V74.4777L202.387 74.5707ZM203.53 61.0957H203.448L203.53 61.0028V61.0957ZM203.366 78.8455C203.285 78.7526 203.285 78.7526 203.285 78.6596L203.366 78.8455Z" fill="#083B66"/>
</g>
<defs>
<clipPath id="clip0_35_14">
<rect width="220.103" height="107.606" fill="white"/>
</clipPath>
</defs>
</svg>
