<svg width="221" height="108" viewBox="0 0 221 108" fill="none" xmlns="http://www.w3.org/2000/svg">
<g clip-path="url(#clip0_35_3)">
<path d="M53.8633 57.0454L47.9785 62.9302C50.981 64.3713 53.1427 67.4938 53.1427 71.2169C53.1427 76.2609 49.0594 80.3442 44.0153 80.3442C40.4124 80.3442 37.2899 78.1825 35.7286 75.1801L28.6429 82.2658L28.5228 82.3859L53.7432 107.606L63.4711 97.8784C59.6279 97.8784 56.3853 94.7559 56.3853 90.7927C56.3853 86.8295 59.5079 83.7069 63.4711 83.7069C67.3142 83.7069 70.5568 86.8295 70.5568 90.7927L79.0837 82.2658L69.3558 72.658L68.6352 71.9374H69.1156C72.9587 71.9374 76.2013 68.8149 76.2013 64.8517C76.2013 63.0503 75.4808 61.489 74.3999 60.1679C73.1989 59.0871 71.5176 58.3665 69.7161 58.3665C65.873 58.3665 62.6304 61.489 62.6304 65.4522V65.9326L62.15 65.4522L53.8633 57.0454Z" fill="#FFB380"/>
<path d="M36.39 53.0231C35.1911 53.0237 34.0038 52.7881 32.8961 52.3296C31.7883 51.8711 30.7818 51.1987 29.9341 50.351C29.0863 49.5033 28.414 48.4967 27.9555 47.389C27.497 46.2812 27.2613 45.094 27.262 43.8951C27.262 40.2921 29.304 37.1701 32.306 35.7291L25.22 28.6431L0 53.8631L26.662 80.5251L38.071 69.1151C37.711 69.8361 37.591 70.6771 37.591 71.5181C37.591 75.0001 40.473 77.8831 43.956 77.8831C47.438 77.8831 50.321 75.0001 50.321 71.5181C50.321 68.0351 47.438 65.1521 43.956 65.1521C43.115 65.1521 42.274 65.2721 41.554 65.6321L51.882 55.3041L44.676 48.0991C43.115 50.8611 39.993 53.0231 36.39 53.0231Z" fill="#8DCAFF"/>
<path d="M80.705 26.662L70.257 16.213H70.737C74.58 16.213 77.823 13.091 77.823 9.127C77.823 5.284 74.7 2.162 70.737 2.162C66.894 2.162 63.651 5.284 63.651 9.247V9.727L53.923 0L28.703 25.22L27.863 26.181L27.382 26.661L38.792 38.071C38.0952 37.8348 37.3647 37.7132 36.629 37.711C33.147 37.711 30.264 40.593 30.264 44.076C30.264 47.558 33.147 50.441 36.629 50.441C40.112 50.441 42.995 47.558 42.995 44.076C42.995 43.476 42.875 42.995 42.755 42.394C42.755 42.154 42.635 42.034 42.635 41.794L43.235 42.394L54.284 53.444L54.764 52.963L55.724 52.003L63.891 43.835C60.048 43.835 56.806 40.713 56.806 36.75C56.806 32.787 59.928 29.664 63.891 29.664C67.735 29.664 70.977 32.787 70.977 36.75L80.705 26.662Z" fill="#C0D9B4"/>
<path d="M42.634 42.3939H42.994L42.514 41.7939C42.514 41.9139 42.514 42.1539 42.634 42.3939Z" fill="black"/>
<path d="M121.63 77.4515C121.63 74.1983 120.324 66.9497 119.67 63.883C119.506 63.1407 119.67 62.3967 119.506 61.6527C118.119 55.0558 117.302 48.1783 116.567 41.4873C116.322 38.7917 115.67 36.1903 115.67 33.4947C115.67 33.0312 115.506 30.1492 116.324 30.1492C117.466 30.1492 117.711 32.2872 118.773 32.2872C119.18 32.2872 119.753 32.1007 119.753 31.5432C119.753 29.7781 116.814 28.2917 115.425 28.2917C110.69 28.2917 110.935 34.6099 110.935 38.607C110.935 42.2313 111.425 46.2268 111.832 49.8511C112.077 52.0814 111.996 54.3117 112.322 56.5421C112.567 58.4936 113.302 61.2815 113.302 63.2331C113.302 64.8135 113.547 66.2075 113.711 67.6938C112.976 66.3922 112.65 65.0923 111.996 63.7907C111.016 61.9315 110.037 59.9799 109.221 58.0284C108.648 56.7285 107.996 55.5193 107.342 54.2194C106.689 52.9178 106.282 51.5238 105.628 50.2222C102.689 44.554 100.076 38.6071 97.2191 32.9371C96.8915 32.2872 96.1567 32.1948 95.5857 32.1948C94.5248 32.1948 91.0957 33.1236 90.932 34.5175C90.687 36.8402 90.687 39.257 90.687 41.5797V49.4799C90.687 51.245 90.8508 52.9178 90.8508 54.5905C90.8508 57.0073 91.0958 59.33 91.0958 61.6527C91.0958 63.0467 91.3407 64.3483 91.3407 65.7422C91.3407 68.0649 91.4218 70.6681 91.7479 72.9908C91.9117 73.9195 92.0755 75.2212 92.0755 76.244C92.0755 80.4259 91.6667 83.3061 96.4016 83.3061C97.6263 83.3061 101.138 82.5621 101.138 80.797C101.138 79.9606 100.893 79.1242 100.893 78.1955C100.893 73.5484 100.565 68.159 99.9133 63.5119C99.6684 61.5603 99.2597 59.0512 99.2597 57.0997C99.2597 52.639 98.1988 48.8283 98.1988 44.1829C100.158 49.2935 112.895 80.5182 116.241 80.5182C117.466 80.5182 121.63 79.1242 121.63 77.4515ZM95.0958 48.086C95.5045 48.2707 95.5045 50.4087 95.5045 50.7798C95.5045 52.7313 95.2596 54.6829 95.2596 56.6344C95.0147 54.033 95.0147 51.4315 95.0147 48.8283C95.0147 48.5495 95.0147 48.3648 95.0958 48.086ZM95.5045 80.2394L95.5857 80.053C95.5857 79.403 95.4219 78.7531 95.4219 78.1014V77.265C95.5045 77.7303 95.5857 78.8455 95.9117 79.2166C95.9117 78.1014 95.6668 77.0803 95.6668 75.9652C95.6668 75.5923 95.6668 74.85 95.9944 74.5712C95.9944 76.5228 96.0755 78.5667 96.0755 80.5182L95.8306 80.2394V80.4259H95.5045V80.2394ZM95.0958 67.6938C95.0147 67.2285 95.0147 66.8574 95.0147 66.3922V65.1846C95.3407 64.7194 95.2596 60.9104 95.2596 60.4452C95.4219 61.1892 95.5045 63.6042 95.5045 64.5347C95.5045 64.9982 95.5045 67.415 95.0958 67.6938ZM93.1363 40.0934C93.3001 38.9782 93.2175 37.7707 93.2175 36.6555C93.5451 39.6281 93.2175 42.6025 93.8711 45.4828L93.7073 45.5768L93.3813 43.7177C93.3813 44.6464 93.4624 45.6692 93.4624 46.5979L93.3813 46.5056V45.5768C93.3001 45.3904 93.1363 45.0193 93.1363 44.8328C93.1363 44.2752 93.2175 43.7177 93.2175 43.1601L93.3813 43.7177C93.3001 42.5101 93.3813 41.3009 93.1363 40.0934ZM93.5451 61.6527C93.6262 61.0028 93.4624 57.7496 93.3001 57.192C93.5451 56.7285 93.5451 54.5905 93.5451 54.033C93.7073 54.4041 93.7073 57.192 93.7073 57.7496C93.7073 58.4936 93.7073 61.0028 93.5451 61.6527ZM115.915 61.0028C115.834 61.0028 115.751 59.7952 115.751 59.7012C115.67 59.8876 115.67 60.1664 115.67 60.3528C115.67 60.5375 115.751 60.724 115.751 60.9104L115.67 61.0028H115.751C115.751 61.5603 115.832 62.1179 115.67 62.6755C115.67 61.7468 115.589 60.8163 115.589 59.8876V58.7724V59.2377C115.67 58.8648 115.67 58.4936 115.67 58.1225C115.915 58.2148 115.915 60.1664 115.915 60.5375V61.0028ZM115.751 54.9617C115.751 55.3346 115.67 55.6134 115.751 55.9845V55.4269C115.832 55.7057 115.915 56.0769 115.915 56.4497C115.915 56.8209 115.834 57.2861 115.67 57.6573C115.67 57.2861 115.67 56.9132 115.589 56.5421V57.0073V53.5677C115.589 53.6618 115.751 53.9406 115.751 54.033V54.9617ZM95.0147 57.5649C94.8509 56.9132 94.7697 56.0769 94.8509 55.4269L94.7697 55.7057C94.932 54.6829 94.6871 53.7542 94.6871 52.7314C94.6871 52.3602 94.6871 51.9891 94.8509 51.6162C94.932 53.5677 94.932 55.6134 95.0147 57.5649ZM95.2596 79.4954C95.1769 79.7742 95.1769 80.053 95.1769 80.3318L94.932 80.2394C94.932 79.7742 94.8509 78.2879 95.1769 77.9167C95.1769 78.1955 95.0958 78.659 95.2596 78.8454C95.3407 79.3107 95.4219 79.8683 95.4219 80.3318V80.4259L95.2596 80.3318V79.4954ZM94.6059 55.3346C94.6059 55.6134 94.6059 55.7981 94.6871 56.0769C94.4421 57.4708 94.6059 59.1436 94.6059 60.4452C94.4421 59.6088 94.4421 58.7724 94.4421 57.8437C94.4421 57.0073 94.4421 56.1709 94.6059 55.3346ZM94.6871 62.3967C94.6871 61.6527 94.8509 61.0028 94.6871 60.1664L94.932 60.4452V62.1179C94.932 62.7679 94.932 63.5119 94.8509 64.1618C94.756 63.5792 94.7012 62.989 94.6871 62.3967ZM95.5857 43.0677C95.5857 43.5312 95.5045 43.9041 95.4219 44.3676C95.3407 44.2752 95.3407 44.0888 95.3407 43.9041V42.8813C95.3407 42.416 95.3407 42.0449 95.4219 41.5797C95.5045 41.9526 95.5045 42.416 95.5045 42.7889H95.5857V43.0677ZM95.5045 72.9908C95.5045 73.362 95.5045 73.7348 95.4219 74.106C95.3407 73.7348 95.3407 73.2696 95.3407 72.8985V71.8756C95.3407 71.6892 95.3407 71.5045 95.4219 71.3181C95.5045 71.8756 95.5857 72.4332 95.5857 72.9908H95.5045ZM116.486 66.5786L116.731 67.1362C116.731 67.5073 116.567 67.7861 116.405 68.0649C116.405 67.8802 116.324 67.6014 116.324 67.415C116.324 67.1362 116.324 66.9497 116.405 66.6709L116.486 66.5786ZM115.996 66.2998C115.996 66.1134 115.915 65.8346 115.915 65.6499L115.996 65.4634L115.915 65.5558C115.915 65.3711 115.834 65.277 115.834 65.0923V63.9771L115.996 63.883V66.2998ZM93.4624 49.2011C93.3813 48.9224 93.3001 48.6436 93.3001 48.2707C93.3001 47.8072 93.3813 47.2496 93.3813 46.692C93.4624 46.9708 93.4624 47.342 93.4624 47.6207V49.2011ZM114.282 43.9965C114.201 44.6464 114.609 45.4828 114.609 46.1344V46.2268C114.364 45.5769 114.282 44.8328 114.037 44.0888L114.282 43.9965ZM96.8915 59.33C96.8103 58.7724 96.8103 58.2148 96.8103 57.6573V57.0073C96.8915 57.3785 96.9741 58.0284 96.9741 58.4013C96.9741 58.6801 96.8915 59.0512 96.8915 59.33ZM93.4624 51.8026L93.3001 52.2679V51.8026C93.3001 51.4315 93.3001 51.1527 93.3813 50.8739C93.4624 51.0586 93.4624 51.245 93.4624 51.4315L93.6262 51.245V51.9891L93.5451 51.895L93.4624 52.2679V51.8026ZM93.79 49.6646C93.79 49.5723 93.6262 48.6436 93.79 48.8283C93.7073 48.3648 93.79 47.6207 93.6262 47.2496L93.79 47.342C93.79 47.8995 93.8711 48.3648 93.8711 48.9224C93.8711 49.2011 93.8711 49.4799 93.79 49.6646ZM95.1769 38.513V40.1857L95.0147 39.3493C95.0147 39.1646 95.0958 38.7918 95.1769 38.513ZM114.69 48.2707C114.69 48.6436 114.609 48.9224 114.609 49.2935C114.527 48.9224 114.527 48.4571 114.527 48.086V47.5284C114.609 47.7131 114.69 47.9919 114.69 48.2707ZM116.324 63.4195L116.405 63.3254V62.862L116.567 63.4195C116.486 63.6042 116.486 63.883 116.486 64.0695L116.324 63.6983V64.2559C116.324 64.1618 116.241 63.9771 116.241 63.883C116.241 63.6042 116.241 63.2331 116.324 62.9543V63.4195ZM95.1769 74.9424C95.1769 75.4076 95.0958 76.5228 95.2596 77.0803L95.1769 77.265C95.0147 77.0803 95.0958 75.1288 95.1769 74.9424ZM95.6668 70.7605C95.5045 70.7605 95.4219 70.9469 95.4219 71.1316C95.5045 70.6681 95.3407 70.1105 95.4219 69.8318L95.5857 69.9241V70.2952H95.6668V70.7605ZM114.854 55.5193C114.935 55.9845 114.935 56.5421 114.854 57.0073C114.773 56.5157 114.773 56.0109 114.854 55.5193ZM114.037 42.8813C114.118 42.5101 114.118 42.1373 114.118 41.7661L114.201 41.8585V43.0677L114.037 42.8813ZM93.5451 53.9406C93.5451 53.6618 93.5451 53.2889 93.3813 53.0101L93.5451 52.5466V53.4754V53.9406ZM95.5857 45.4828C95.5045 45.204 95.4219 44.9252 95.4219 44.6464C95.4219 44.8328 95.5045 44.9252 95.6668 44.9252C95.6668 45.1116 95.5857 45.204 95.5857 45.4828L95.6668 45.3904V45.4828H95.5857ZM95.0958 37.6766C94.932 37.119 94.932 36.4691 94.932 35.8191L95.0958 37.6766ZM95.3407 58.3072C95.5857 58.4013 95.4219 58.9589 95.3407 59.1436V58.3072ZM95.6668 47.0632C95.6668 47.2496 95.5857 47.5284 95.5857 47.7131V46.8767L95.6668 47.0632ZM95.3407 56.6344C95.3407 56.7285 95.5857 57.3785 95.3407 57.3785V56.6344ZM95.5857 68.2514C95.6668 68.3437 95.6668 68.5301 95.6668 68.7166L95.5857 68.8089V68.2514ZM116.814 63.4195L116.895 63.5119C116.895 63.883 116.895 64.2559 116.814 64.6271V63.4195ZM95.2596 47.4343C95.2596 47.6207 95.2596 47.7131 95.1769 47.8995C95.1769 47.7131 95.0958 47.4343 95.0958 47.2496L95.2596 47.4343ZM95.5045 52.4526V51.4315C95.5857 51.8026 95.5857 52.0814 95.5857 52.4526H95.5045ZM117.548 76.9863C117.548 77.0804 117.63 77.1727 117.711 77.265L117.547 77.3591H117.466L117.385 77.265L117.548 76.9863ZM116.486 61.1892C116.486 61.468 116.65 61.7468 116.405 62.0256C116.405 61.7468 116.405 61.468 116.486 61.1892ZM95.0958 68.4378C95.0958 68.2513 95.0958 68.0649 95.1769 67.8802L95.2596 68.159C95.2596 68.3437 95.1769 68.4378 95.0958 68.4378ZM95.5857 63.3254C95.5857 63.6042 95.5857 63.9771 95.5045 64.2559V63.3254H95.5857ZM95.5857 45.5768V45.7616L95.6668 45.948L95.5857 46.0403V45.7616L95.4219 45.8556V45.7616L95.5857 45.5768ZM117.14 65.5558C117.14 65.3711 117.14 65.277 117.221 65.0923V65.6499L117.14 65.5558ZM113.874 44.8328C113.874 44.6464 113.875 44.554 113.956 44.3676C113.956 44.554 113.956 44.6464 114.037 44.8328H113.874ZM95.4219 76.4287C95.4219 76.244 95.4219 76.0575 95.5045 75.8711V76.244L95.4219 76.4287ZM95.9117 74.106C95.9117 74.1983 95.9944 74.2924 95.9944 74.2924C95.9944 74.3848 95.9117 74.4771 95.9117 74.4771L95.8306 74.3848C95.8306 74.2924 95.8306 74.1983 95.9117 74.106ZM93.79 68.0649C93.7073 67.8802 93.7073 67.6014 93.7073 67.415C93.79 67.6014 93.79 67.8802 93.79 68.0649ZM116.65 69.0877L116.731 68.9013V69.3665L116.65 69.0877ZM116.324 60.1664C116.241 59.8876 116.241 59.7011 116.324 59.5164V60.1664ZM116.324 68.4378H116.405V68.7166L116.324 68.6225V68.4378ZM95.8306 79.403C95.8306 79.4954 95.8306 79.6818 95.9117 79.7742C95.9117 79.6818 95.9117 79.4954 95.8306 79.403ZM95.5045 53.6618L95.5857 53.8465C95.5857 53.9406 95.5857 53.9406 95.5045 54.033V53.6618ZM93.4624 49.8511C93.3813 49.7587 93.3813 49.5723 93.4624 49.3858V49.8511ZM116.731 70.6681C116.65 70.574 116.65 70.3893 116.65 70.2952C116.731 70.3893 116.731 70.574 116.731 70.6681ZM116.812 66.1134L116.731 66.021C116.731 65.9287 116.812 65.9287 116.812 65.9287V66.1134ZM116.486 60.5375L116.405 60.4452L116.486 60.2587V60.5375ZM116.731 69.8318C116.691 69.7802 116.669 69.7139 116.669 69.6453C116.669 69.5767 116.691 69.5104 116.731 69.4589V69.8318ZM114.527 46.8767C114.446 46.7844 114.446 46.692 114.446 46.5979C114.527 46.692 114.527 46.7844 114.527 46.8767ZM93.7073 46.8767C93.7885 46.9708 93.7885 47.0632 93.7885 47.1555C93.7073 47.0632 93.7073 46.9708 93.7073 46.8767ZM116.322 61.468L116.241 61.2816L116.322 61.1892V61.468ZM95.503 74.85V74.6636H95.5857L95.503 74.85ZM115.67 54.8693L115.589 54.777V55.0558L115.67 54.8693ZM93.2986 54.5905V54.4982H93.3813V54.5905H93.2986ZM95.5857 53.383L95.503 53.2889L95.5857 53.1966V53.383ZM116.405 66.2998V66.2075C116.486 66.2998 116.486 66.2998 116.486 66.3922L116.405 66.2998ZM93.8711 65.6499H93.79V65.5558L93.8711 65.6499ZM117.221 64.7194H117.14L117.221 64.6271V64.7194ZM95.9117 73.362L95.9944 73.4561H95.9117V73.362ZM116.405 60.9104L116.486 60.8163V60.9104H116.405ZM96.8103 79.5895H96.8915L96.8103 79.6818V79.5895ZM116.241 62.0256V61.9315H116.322L116.241 62.0256ZM116.322 59.33C116.322 59.2377 116.322 59.2377 116.405 59.1436L116.322 59.33ZM93.7885 50.0375L93.8711 50.1299H93.7885V50.0375ZM117.711 77.265V77.1727L117.792 77.265H117.711ZM114.608 50.5951C114.608 50.501 114.608 50.501 114.69 50.4087C114.69 50.501 114.69 50.501 114.608 50.5951ZM95.503 62.4891L95.5857 62.3967V62.4891H95.503ZM115.588 60.9104L115.67 60.8163L115.589 60.724L115.588 60.9104ZM117.63 76.4287C117.63 76.3363 117.63 76.3363 117.711 76.244C117.711 76.3363 117.711 76.3363 117.63 76.4287ZM149.939 60.4452C149.939 59.9799 149.694 59.4224 149.205 59.4224C148.306 59.4224 148.225 60.6316 148.142 61.3739C147.49 65.7422 143.897 74.106 139.407 74.106C136.713 74.106 136.385 73.2696 134.59 71.1316C134.1 69.4589 133.12 67.7861 133.12 65.9287V65.7422C133.691 65.5558 134.181 65.0923 134.671 64.7194C137.693 62.7679 140.713 60.1664 140.713 55.7981C140.713 52.8254 138.509 49.8511 135.814 49.8511C129.446 49.8511 127.242 54.6829 126.181 60.8163C126.017 61.7468 125.691 62.862 125.691 63.7907C125.691 66.765 126.507 69.4589 127.242 72.2468C127.487 73.362 130.426 76.6151 131.324 77.265C132.549 78.1955 134.426 78.659 135.895 78.659C136.875 78.659 140.223 78.1955 140.958 77.3591C146.02 75.4999 149.939 66.1134 149.939 60.4452ZM135.733 53.1042C136.875 53.1042 137.774 54.4041 137.774 55.6134C137.774 59.0512 135.243 61.3739 132.794 62.862C132.711 62.4891 132.63 61.1892 132.63 60.8163V59.7012C132.63 57.5649 133.284 53.1042 135.733 53.1042ZM130.1 60.5375C130.1 60.2587 130.1 59.9799 130.017 59.7012V60.5375L130.1 60.6316V61.0951C130.017 60.9104 130.017 60.724 130.017 60.5375V61.5603L130.1 61.3739C130.262 61.7468 130.345 62.1179 130.345 62.4891C130.345 62.7679 130.262 63.0467 130.262 63.2331C130.181 63.0467 130.181 62.7679 130.181 62.5832C130.181 62.3967 130.262 61.8391 130.017 61.7468C129.936 62.0256 129.936 62.3044 129.936 62.5832C129.772 61.5603 129.691 60.3528 129.61 59.1436C129.527 59.8876 129.527 60.8163 129.446 60.9104C129.446 60.6316 129.365 60.3528 129.282 60.074L129.365 59.8876C129.282 59.8876 129.201 59.7952 129.201 59.6088V59.5164H129.446V59.1436C129.446 58.9589 129.446 58.6801 129.365 58.4936L129.282 58.8648V58.4013L129.201 58.2148V58.1225L129.446 58.0284C129.446 57.8437 129.446 57.6573 129.365 57.4708L129.446 57.2861C129.446 57.2861 129.527 57.4708 129.527 57.6573C129.527 57.0997 129.61 56.5421 130.017 56.0769V56.9132L130.1 56.8209V57.192L130.017 57.0997V57.3785L130.1 57.2861C130.181 57.6573 130.262 58.0284 130.262 58.4013C130.262 58.9589 130.262 59.9799 130.1 60.5375ZM132.466 73.8272C132.385 74.106 132.385 74.3848 132.304 74.6636L132.059 74.3848C132.059 73.7348 132.14 72.8985 132.304 72.3409C132.385 72.712 132.466 73.362 132.466 73.7348L132.63 73.2696V72.8985C132.875 73.1773 133.12 73.456 133.284 73.7348C133.201 74.0136 133.201 74.3848 132.956 74.6636C132.956 74.85 133.039 75.0347 133.039 75.1288L132.875 75.0347V74.1983C132.794 74.4771 132.794 74.7559 132.794 75.0347L132.63 74.85C132.711 74.6636 132.711 74.5712 132.711 74.3848L132.63 74.2924L132.549 74.5712C132.549 74.2924 132.549 74.0136 132.466 73.8272ZM129.772 71.3181C129.691 70.7605 129.691 70.1105 129.691 69.553V66.2998L129.61 66.4863V66.2998L129.527 66.1134H129.691V64.9982L129.772 64.8135C129.772 65.9287 129.855 66.9497 129.855 68.0649V69.8318C129.855 70.2952 129.855 70.8528 129.772 71.3181ZM131.569 73.1773C131.569 72.9908 131.569 72.8985 131.65 72.712V71.8756L131.569 71.968C131.569 71.5045 131.65 71.1316 131.65 70.6681C131.732 70.7605 131.895 71.2257 131.895 71.3181V72.4332C131.895 72.8044 131.814 73.2696 131.732 73.6407L131.569 73.1773ZM129.936 58.4936C130.017 58.2148 129.936 57.9361 129.772 57.6573V58.0284C129.772 58.586 129.772 59.1436 129.855 59.7012C129.936 59.5165 130.017 59.4224 130.017 59.2377L130.1 59.5164C130.1 59.4224 130.181 59.2377 130.181 59.1436C130.181 58.8648 130.017 58.4936 130.017 58.2148L129.936 58.4936ZM129.446 64.6271C129.365 64.3483 129.282 62.862 129.446 62.5832V64.6271ZM130.835 55.0558C130.835 55.3346 130.835 55.6134 130.752 55.7981L130.671 55.8922V55.2405L130.835 55.0558ZM128.548 66.1134C128.63 66.6709 128.63 67.1362 128.63 67.6938L128.548 67.5073V66.1134ZM129.61 59.1436V58.4013C129.61 58.3072 129.61 57.9361 129.527 57.6573C129.527 58.1225 129.527 58.586 129.61 59.1436ZM128.711 61.7468C128.63 61.468 128.63 61.1892 128.63 60.9104L128.711 60.724V61.7468ZM129.201 60.6316C129.241 60.7338 129.262 60.8446 129.262 60.9566C129.262 61.0686 129.241 61.1793 129.201 61.2816L129.12 60.9104L129.201 60.6316ZM129.365 62.5832C129.365 62.3967 129.365 62.1179 129.446 61.9315V62.4891L129.365 62.5832ZM128.221 63.3254C128.221 63.5119 128.303 63.6983 128.221 63.883V63.3254ZM131.406 71.3181L131.324 71.1316L131.406 71.0393V71.3181ZM131.406 71.968L131.324 71.7833L131.406 71.6892V71.968Z" fill="white"/>
<path d="M162.148 72.9906C163.943 71.8755 165.087 69.7375 165.822 67.6013C167.943 66.6708 173.006 63.4194 173.006 60.445C172.994 60.252 172.922 60.0702 172.802 59.9334C172.682 59.7966 172.522 59.714 172.352 59.701C171.862 59.701 171.455 59.9798 171.21 60.445C169.986 62.583 168.271 64.3481 166.148 65.2768C166.148 61.6525 165.168 58.0282 162.883 55.4267C162.148 54.5904 159.045 52.4524 157.984 52.4524H156.677C155.207 52.4524 153.656 52.5465 152.432 53.4752C151.778 53.9404 151.616 54.498 151.126 55.0556C148.921 57.8435 147.778 58.7723 147.778 62.9541C147.778 69.8316 152.513 74.1982 158.229 74.1982C158.719 74.1982 161.658 73.2694 162.148 72.9906ZM154.555 56.6343C154.555 55.9843 154.962 54.1251 155.779 54.1251C159.29 54.1251 160.269 62.6753 160.595 65.4633C157.575 64.1617 156.187 62.4889 155.207 58.9587C155.045 58.2147 154.555 57.3783 154.555 56.6343ZM158.474 70.8527C155.942 70.8527 155.535 65.9285 154.881 63.977C156.759 66.6708 157.739 66.9496 160.514 67.9724C160.188 69.274 160.024 70.8527 158.474 70.8527ZM163.045 65.6497C163.045 64.9057 162.883 64.2557 162.883 63.5117V63.3253C163.045 63.1406 162.964 61.9313 162.883 61.7466H162.8V61.839L162.719 61.9313C162.8 61.6525 162.883 61.2814 162.964 61.0026H163.127C163.209 61.6525 163.29 62.3042 163.29 62.8618C163.29 63.2329 163.209 63.6041 163.127 63.8829C163.127 64.5345 163.29 65.0921 163.045 65.6497ZM152.023 65.8344C152.35 66.2073 152.268 66.9496 152.268 67.4148V68.9011C152.105 68.2512 152.023 67.5072 152.023 66.7649C152.187 66.5784 151.942 66.2073 151.942 66.0208C151.942 65.9285 152.023 65.8344 152.023 65.8344ZM163.127 67.6936C163.127 67.3225 163.209 65.3709 163.29 65.1845C163.29 65.2768 163.372 65.3709 163.372 65.4633C163.372 65.3709 163.372 65.3709 163.454 65.2768V65.6497C163.454 66.2996 163.372 66.8572 163.29 67.4148L163.127 67.6936ZM163.535 66.4861C163.535 66.0209 163.617 65.5556 163.454 65.0921C163.617 64.3481 163.535 63.4194 163.535 62.6753C163.617 63.0465 163.698 63.4194 163.698 63.7905C163.698 64.4404 163.698 66.2073 163.535 66.4861ZM163.29 65.0921V64.998L163.372 65.0921H163.29ZM162.964 61.4678L163.045 61.5602V61.4678H162.964Z" fill="white"/>
<path d="M195.315 59.9799C195.315 57.0996 194.989 50.5951 194.09 47.9918C193.845 47.3419 194.09 46.5055 193.845 45.8556C193.438 44.4616 193.193 43.0677 192.703 41.6737C190.906 36.469 187.396 27.4553 181.517 27.4553C179.313 27.4553 176.455 28.7552 175.394 31.172C174.985 30.7067 174.333 30.2432 173.761 30.2432C170.74 30.2432 170.904 31.8219 170.904 34.331C170.904 35.0751 170.74 35.8191 170.74 36.5614V56.9132C170.74 58.4012 170.985 59.8875 171.066 61.3739C171.311 65.9286 171.475 70.2952 171.965 74.85C171.556 75.1287 171.23 75.5922 171.23 76.1498C171.23 76.9862 171.801 77.0803 172.291 77.5438C172.945 79.8682 172.046 80.4258 174.333 81.4469C174.904 81.7257 175.558 82.0045 176.21 82.0045C178.414 82.0045 180.211 81.4469 180.211 78.4743C189.926 77.0803 195.315 71.1316 195.315 59.9799ZM180.293 75.6863C180.293 72.062 180.374 68.3436 180.211 64.7194C180.129 63.6983 179.967 62.7678 179.967 61.7467C179.967 56.6344 178.987 51.4314 178.987 46.3191C178.987 43.6253 178.659 40.9297 178.659 38.2341C178.659 36.0979 178.578 29.778 181.272 29.778C182.252 29.778 182.987 30.8932 183.477 31.8219C186.906 38.2341 188.457 49.9434 188.539 57.2861C188.539 58.0283 188.784 58.8647 188.784 59.6088C188.784 64.9058 187.967 70.8528 183.967 74.0136C183.151 74.6635 183.151 75.0347 182.171 75.3134C181.517 75.4999 180.864 75.4075 180.293 75.6863ZM173.516 63.6983C173.516 61.3739 173.19 59.1435 173.19 56.8208V48.3647C173.761 49.4799 173.761 54.7769 173.761 56.1709C173.761 58.3071 173.679 60.5375 173.598 62.6755H173.679V63.5118L173.516 63.6983ZM177.19 56.2632V58.1224L177.108 58.2148H177.19C177.19 59.2376 177.19 60.2587 177.353 61.2815C177.272 61.4679 177.19 61.6526 177.19 61.9314C177.19 62.6755 177.353 63.3254 177.353 64.0694C177.353 64.2559 177.353 64.627 177.108 64.627C177.108 64.1618 177.027 63.6983 177.027 63.233C177.027 61.7467 177.435 59.6087 176.945 58.1224V59.4223L176.864 59.2376V58.68C176.455 57.936 176.455 56.6344 176.455 55.798C176.455 54.5905 176.619 53.2889 176.619 52.0814L176.455 51.7102V51.6161C176.619 51.245 176.619 50.7798 176.7 50.4086V50.5951L176.782 50.7798C176.782 51.989 177.027 53.383 177.027 54.5905L176.945 54.6828H177.027C177.027 54.8693 177.108 54.9616 177.108 55.1481V55.798L176.945 55.9845L177.027 55.7057C176.945 55.8921 176.945 56.1709 176.945 56.3556H177.027V56.542L176.945 56.4497V56.7285L177.027 56.6344C177.027 56.8208 177.027 57.0073 177.108 57.192C177.108 57.0073 177.108 56.8208 177.19 56.6344L177.108 56.3556L177.19 56.2632ZM173.924 68.0649L174.006 68.159V68.0649C174.088 68.2513 174.088 68.4377 174.25 68.6224C174.005 67.6014 174.333 66.6709 174.333 65.7422L174.414 61.0951C174.578 61.2815 174.578 61.6526 174.578 61.9314C174.578 62.2102 174.495 62.5831 174.578 62.8619C174.823 62.3043 174.659 62.1179 174.659 61.5603C174.74 62.3043 174.74 63.1407 174.74 63.883C174.74 65.6498 174.495 67.5073 174.495 69.2741L174.414 69.3665H174.333L174.169 69.0877V69.8317L174.088 69.3665L174.006 69.6453L173.924 69.4588V68.0649ZM173.271 46.9708C173.026 44.3675 173.271 41.2085 173.271 38.607L173.19 38.6994V37.863C173.271 38.0494 173.271 38.2341 173.271 38.4206L173.435 37.7706C173.435 38.7917 173.19 39.6281 173.516 40.6509C173.598 40.3721 173.598 40.1857 173.598 39.9069L173.679 40.001C173.679 40.2797 173.679 40.5585 173.761 40.8373C173.679 41.022 173.679 41.1161 173.679 41.3008L173.598 40.9297L173.516 41.1161C173.516 41.3008 173.516 41.4873 173.598 41.6737C173.435 41.7661 173.598 42.416 173.598 42.6024C173.598 42.416 173.679 42.0449 173.761 41.8584C173.761 42.1372 173.761 42.5101 173.843 42.7889C173.761 43.0677 173.761 43.4388 173.761 43.7176L173.598 43.0677C173.516 43.5312 173.516 44.0887 173.516 44.554V44.6463H173.598L173.679 44.4616C173.679 44.554 173.679 44.7404 173.761 44.8328C173.679 45.1116 173.679 45.298 173.679 45.5768L173.598 45.7615L173.516 45.298C173.353 46.1344 173.435 46.9708 173.435 47.8071L173.271 47.1555L173.19 47.713V47.1555L173.271 46.9708ZM192.539 61.6526C192.213 60.074 192.539 58.0283 192.131 56.6344C192.294 55.7057 192.213 54.8693 192.213 53.9406C192.458 55.6133 192.213 57.3784 192.458 59.0512C192.458 58.8647 192.539 58.68 192.539 58.4936C192.539 57.6572 192.375 56.7285 192.375 55.798C192.375 55.7057 192.375 55.3345 192.458 55.3345C192.539 56.6344 192.62 57.936 192.62 59.2376C192.62 59.6087 192.539 60.074 192.539 60.4451L192.458 60.3528C192.539 60.7239 192.539 61.1892 192.539 61.6526ZM191.396 66.8573C191.315 66.2074 191.233 65.5557 191.233 64.9058V64.7194L191.315 64.627H191.233V62.5831C191.233 61.9314 191.233 61.3739 191.315 60.8163C191.315 62.3043 191.56 63.883 191.56 65.371C191.56 65.7422 191.641 66.5786 191.396 66.8573ZM189.519 40.2798C189.764 40.9297 189.845 41.2085 189.845 41.9525V43.7176C189.845 43.9964 189.845 44.2752 189.764 44.554C189.6 44.0887 189.436 43.4388 189.436 42.8812V41.4873L189.519 41.7661V40.2798ZM190.335 47.9918C190.254 47.5283 190.09 46.5979 190.09 46.1344V41.6737C190.171 41.8584 190.335 42.3236 190.335 42.416V47.9918ZM192.131 56.6344C192.131 57.3784 192.049 58.1224 192.049 58.8647C191.887 57.6655 191.805 56.4539 191.804 55.2404C191.804 54.8693 191.804 53.8465 192.131 53.5677C192.049 54.5905 192.131 55.6133 192.131 56.6344ZM190.989 44.6463C190.989 45.0192 190.906 45.4827 190.744 45.8556C190.825 46.1344 190.825 46.4132 190.825 46.692L190.661 46.9708C190.58 45.5768 190.499 44.2752 190.499 42.8812C190.744 43.3465 190.744 43.9964 190.906 44.554L190.989 44.6463ZM173.19 36.6555C173.19 35.4462 173.353 34.331 173.353 33.1235L173.516 33.0312L173.679 33.31C173.598 34.4251 173.598 36.1902 173.19 37.213V36.6555ZM176.455 45.5768L176.374 45.2039C176.293 45.4827 176.374 45.6692 176.374 45.9479H176.455L176.374 46.2267V45.9479C176.21 45.3904 176.129 43.3465 176.129 42.7889C176.129 42.6024 176.21 42.416 176.21 42.2313V42.6948C176.21 42.1372 176.129 40.1857 176.374 39.7222C176.374 41.2085 176.455 42.6024 176.455 44.0887V45.5768ZM177.272 68.9953C177.272 69.0877 177.19 69.7376 177.19 69.7376C177.19 69.18 176.945 68.6224 176.945 68.0649C176.945 67.7861 176.945 67.2285 177.108 67.0438C177.272 67.6937 177.272 68.3436 177.272 68.9953ZM192.213 52.9177C192.213 52.5466 192.213 52.0814 192.294 51.8026C192.294 52.639 192.458 53.4753 192.458 54.4041V55.2404C192.458 54.6828 192.294 54.1253 192.294 53.5677L192.213 53.8465V53.4753H192.294L192.213 53.0101V53.1965V52.9177ZM174.168 62.7678C174.087 62.2102 174.087 61.6526 174.087 61.0951V60.4451C174.178 60.6475 174.233 60.8684 174.249 61.0951C174.249 61.6526 174.168 62.2102 174.168 62.7678ZM174.984 69.8317C174.903 69.6453 174.903 69.3665 174.903 69.18L174.821 69.3665H174.658C174.658 69.0877 174.739 68.7165 174.821 68.4377H175.066C174.984 68.9953 175.066 69.4588 175.066 69.9241L174.984 69.8317ZM192.048 61.9314C192.129 62.6755 192.293 63.4195 192.457 64.0694L192.293 64.7194C192.212 64.0694 192.048 63.233 192.048 62.5831V61.9314ZM190.17 70.2952C190.007 70.3893 190.007 70.574 189.925 70.7604V69.6453L190.088 69.18C190.088 69.5529 190.17 69.9241 190.17 70.2952ZM190.333 67.9725C190.333 68.6224 190.414 69.2741 190.414 69.9241C190.333 69.9241 190.333 70.0164 190.333 70.1105C190.17 69.5529 190.252 68.7165 190.252 68.159L190.333 67.9725ZM175.882 41.5796C176.046 42.416 176.046 43.2524 175.882 43.9964V41.5796ZM192.129 50.3163C192.212 50.6874 192.293 50.9662 192.293 51.3373V51.6161L192.129 51.7102C192.129 51.245 192.129 50.6874 192.048 50.2222L192.129 50.3163ZM192.048 59.1435C192.129 59.7952 192.212 60.7239 192.212 61.3739L192.129 61.1892L192.048 61.3739V60.4451V60.5375V59.1435ZM191.884 61.0951C191.722 60.6316 191.803 59.6087 191.803 59.1435C191.884 59.5164 191.967 60.7239 191.884 61.0951ZM191.477 67.8802L191.313 68.4377V68.159C191.313 67.8802 191.313 67.6014 191.394 67.4149L191.477 67.8802ZM174.985 71.1316C174.985 71.0392 174.823 70.7604 174.823 70.6681C174.823 70.4816 174.904 70.2952 174.985 70.1105V71.1316ZM173.679 65.371C173.598 64.911 173.598 64.4371 173.679 63.9771V65.371ZM191.151 63.1407V64.3482C191.07 63.9771 191.07 63.5118 191.07 63.1407H191.151ZM176.374 46.3191V46.5055L176.537 46.4132V46.5055L176.455 46.8767L176.293 46.7843C176.374 46.5979 176.293 46.5055 176.293 46.3191H176.374ZM192.62 55.5192V54.3117C192.703 54.6828 192.703 55.3345 192.703 55.7057L192.62 55.5192ZM188.049 37.1189L188.13 36.7478L188.212 36.8402V37.4918L188.049 37.1189ZM173.516 38.607C173.679 38.7917 173.598 39.3493 173.598 39.6281C173.516 39.2569 173.516 38.9781 173.516 38.607ZM173.516 47.0631C173.516 46.692 173.516 46.3191 173.598 46.0403C173.598 46.4132 173.679 46.7843 173.516 47.0631ZM174.578 74.7559C174.578 75.0347 174.495 75.3135 174.578 75.5922C174.578 75.3135 174.659 75.0347 174.578 74.7559ZM173.761 60.9104C173.761 61.2815 173.761 61.7467 173.679 62.1179C173.679 61.7467 173.679 61.2815 173.761 60.9104ZM174.659 63.7906C174.659 63.6042 174.578 63.6042 174.495 63.5118V64.0694L174.659 63.7906ZM176.945 62.9543C176.864 63.3254 176.864 63.7906 176.864 64.2559C176.782 63.7959 176.782 63.3219 176.864 62.8619L176.945 62.9543ZM174.659 73.7348C174.578 74.1059 174.578 74.3847 174.578 74.7559C174.659 74.3847 174.659 74.1059 174.659 73.7348ZM177.353 72.712V72.6196L177.435 72.4332C177.435 72.3408 177.435 72.2467 177.517 72.2467C177.517 72.4332 177.517 72.6196 177.435 72.8043L177.353 72.712ZM175.149 71.2257C175.149 70.9469 175.068 70.7604 175.068 70.4816C175.23 70.6681 175.23 70.9469 175.149 71.2257ZM174.578 63.1407C174.659 63.233 174.74 63.1407 174.659 63.0466C174.573 63.1493 174.516 63.2793 174.495 63.4195H174.659L174.578 63.1407ZM191.151 58.2148C191.07 58.0283 191.07 57.8437 191.07 57.6572L191.151 57.4708V58.2148ZM191.968 64.7194C191.968 64.4406 191.886 64.2559 191.968 63.9771C191.968 64.2559 192.049 64.4406 191.968 64.7194ZM175.558 77.1726L175.475 77.3591L175.558 77.6379V77.1726ZM191.151 61.5603L191.07 61.6526V61.2815L191.151 61.1892V61.5603ZM192.049 53.0101C192.009 52.9243 191.988 52.8285 191.988 52.7313C191.988 52.6341 192.009 52.5383 192.049 52.4525C192.131 52.639 192.049 52.8254 192.049 53.0101ZM174.414 69.7376V70.0164L174.333 70.1105L174.414 69.8317C174.333 69.9241 174.25 69.8317 174.25 69.7376H174.414ZM175.394 73.2696C175.434 73.1838 175.455 73.088 175.455 72.9908C175.455 72.8935 175.434 72.7978 175.394 72.712V73.2696ZM177.19 70.4816C177.19 70.4816 177.108 70.3893 177.108 70.2952C177.108 70.2952 177.19 70.2028 177.19 70.1105L177.272 70.2952C177.272 70.3893 177.272 70.3893 177.19 70.4816ZM191.151 62.5831V62.8619C191.07 62.7678 191.07 62.7678 191.07 62.5831H191.151ZM191.151 65.0922H191.07V64.8134H191.151V65.0922ZM177.027 66.8573L177.108 67.0438C177.066 67.0405 177.026 67.0198 176.996 66.9855C176.966 66.9513 176.948 66.9057 176.945 66.8573H177.027ZM176.864 59.7952L176.782 59.6088C176.782 59.5164 176.782 59.5164 176.864 59.4223V59.7952ZM176.048 47.4343C176.048 47.3419 176.048 47.1555 176.129 47.0631C176.129 47.1555 176.129 47.3419 176.048 47.4343ZM174.168 69.9241C174.249 70.1105 174.249 70.2952 174.168 70.3893V69.9241ZM191.884 50.1298C191.884 50.3163 191.967 50.501 191.884 50.6874V50.1298ZM176.372 76.3363C176.372 76.4286 176.372 76.5227 176.291 76.6151V76.4286L176.372 76.3363ZM176.943 58.0283L177.026 57.936L176.943 57.7496V58.0283ZM175.229 72.8984L175.147 72.712V72.9908L175.229 72.8984ZM176.862 79.1242V78.8454L176.943 79.1242H176.862ZM190.742 48.0859V48.3647C190.742 48.2706 190.659 48.1783 190.659 48.1783L190.742 48.0859ZM176.127 37.5842C176.046 37.3977 176.046 37.3054 176.127 37.213V37.5842ZM174.577 64.7194C174.577 64.627 174.577 64.5347 174.494 64.4406C174.494 64.5347 174.494 64.627 174.577 64.7194ZM176.127 38.607C176.127 38.5129 176.046 38.3282 176.046 38.2341C176.127 38.3282 176.127 38.5129 176.127 38.607ZM191.313 67.2285L191.394 67.0438C191.394 67.1361 191.394 67.2285 191.313 67.3226V67.2285ZM191.884 58.7724C191.884 58.7724 191.803 58.8647 191.722 58.8647L191.803 58.7724H191.884ZM174.004 68.4377L173.923 68.5301L174.004 68.6224L174.087 68.5301L174.004 68.4377ZM173.597 63.3254L173.678 63.1407L173.597 63.0466V63.3254ZM174.984 68.7165L174.903 68.6224V68.9012L174.984 68.7165ZM174.739 71.6892L174.821 71.7833C174.821 71.8756 174.739 71.9679 174.739 71.9679V71.6892ZM176.208 42.9736L176.291 42.7889L176.21 42.6948L176.208 42.9736ZM173.597 66.2074V66.021C173.678 66.1133 173.678 66.1133 173.678 66.2074H173.597ZM176.372 76.9862L176.291 76.8015L176.372 76.7074V76.9862ZM177.188 70.7604L177.271 70.8528C177.271 70.9469 177.188 71.0392 177.188 71.0392V70.7604ZM175.801 74.4771C175.882 74.4771 175.882 74.5712 175.882 74.6635C175.801 74.6635 175.801 74.5712 175.801 74.4771ZM173.842 59.7011C173.842 59.7952 173.842 59.8875 173.759 59.9799L173.842 59.7011ZM174.903 70.1105H174.821V70.0164L174.903 70.1105ZM173.678 40.6509H173.597V40.7432L173.678 40.6509ZM176.862 60.4451L176.943 60.3528V60.4451H176.862ZM176.781 78.1955C176.698 78.1014 176.698 78.1014 176.698 78.009L176.781 78.1955ZM176.617 51.8949C176.698 51.8026 176.698 51.8026 176.698 51.7102V51.8026L176.617 51.8949ZM173.597 44.9251V45.0192L173.678 44.9251H173.597ZM176.862 60.5375L176.943 60.6316H176.862V60.5375ZM175.474 73.6407L175.392 73.7348H175.474V73.6407ZM192.538 59.2376C192.457 59.33 192.457 59.33 192.457 59.4223C192.538 59.33 192.538 59.33 192.538 59.2376ZM173.269 41.9525H173.352V41.8584L173.269 41.9525ZM174.087 59.6088L174.168 59.7011L174.087 59.7952V59.6088ZM175.801 73.9195H175.718V73.8271L175.801 73.9195ZM191.803 58.3071H191.722L191.803 58.2148V58.3071ZM191.803 58.4936L191.884 58.5859H191.803V58.4936ZM220.103 63.6983C220.103 58.1224 215.776 55.7057 211.857 54.2194C214.387 51.3373 216.184 47.2496 216.184 43.0677C216.184 40.9297 216.266 38.3282 215.286 36.3767C213.897 33.6811 212.102 31.0796 208.999 31.0796C207.448 31.0796 206.142 31.6372 204.999 32.7524C204.673 30.0568 205.162 27.4553 201.815 27.4553C199.039 27.4553 198.794 29.034 198.794 31.7296C198.794 34.8886 199.039 38.1418 199.039 41.3949C199.039 46.692 199.284 51.989 199.284 57.3784C199.284 60.7239 199.61 64.0694 199.61 67.4149C199.61 68.4377 199.855 69.3665 199.855 70.3893C199.855 70.6681 199.774 70.8528 199.691 71.1316C198.875 71.4104 198.549 72.1544 198.549 73.0831C198.549 73.8271 198.794 75.1288 199.61 75.2211L199.855 75.1288V75.5922C199.855 77.3591 199.284 80.4258 201.08 81.2622C201.651 81.541 202.386 82.0045 202.958 82.0045C204.183 82.0045 207.857 81.8198 207.857 79.7741C207.367 78.5666 207.857 77.0803 207.529 75.871C213.408 75.871 220.103 71.0392 220.103 63.6983ZM208.428 55.9845C211.857 55.9845 216.184 58.68 216.184 63.0466C216.184 67.9725 210.796 70.574 207.284 71.1316C207.122 69.7376 206.877 68.2513 206.877 66.8573C206.877 64.1618 206.713 58.68 206.387 56.0768C206.632 55.9845 206.877 55.9845 207.122 55.9845H208.428ZM209.326 33.5887C211.367 33.5887 212.347 35.6326 212.347 37.863C212.347 43.4388 209.734 49.2934 206.304 53.1965C205.978 52.4525 205.489 41.4873 205.489 40.2798C205.489 37.863 206.06 36.5614 207.529 34.8886C207.857 34.5175 208.836 33.5887 209.326 33.5887ZM203.774 58.8647C203.774 59.8875 203.774 60.9104 203.938 61.9314C203.857 62.1179 203.774 62.3043 203.774 62.5831C203.774 63.3254 203.938 63.9771 203.938 64.7194C203.938 64.9058 203.938 65.2769 203.693 65.2769C203.693 64.8134 203.612 64.3482 203.612 63.883C203.612 62.2102 204.019 60.4451 203.529 58.7724V60.074L203.448 59.8875V59.33C203.039 58.5859 203.039 57.2861 203.039 56.4497C203.039 55.2404 203.203 53.9406 203.203 52.7313L203.039 52.3602V52.2678C203.367 51.6161 203.203 50.7798 203.367 50.0375V50.8738L203.448 50.6874C203.529 51.5238 203.529 52.3602 203.529 53.1965L203.61 53.2889L203.693 52.9177C203.855 53.8465 203.938 54.6828 203.938 55.6133C203.855 55.9845 204.019 56.8208 204.019 57.192L203.938 57.0996C204.019 57.2861 204.019 57.7496 204.019 58.0283C203.938 57.6572 203.855 57.2861 203.693 57.0073C203.855 56.4497 203.938 54.2194 203.61 53.8465C203.61 54.4981 203.61 55.0557 203.529 55.7057L203.61 55.3345C203.693 55.7057 203.693 56.0768 203.693 56.4497L203.529 56.6344L203.61 56.3556C203.529 56.542 203.529 56.8208 203.529 57.0073H203.61V57.192L203.529 57.0996V57.3784L203.61 57.2861C203.61 57.4708 203.61 57.6572 203.693 57.8436C203.693 57.6572 203.693 57.4708 203.774 57.2861V58.7724L203.693 58.8647H203.774ZM203.284 43.7176C203.203 44.554 203.365 45.298 203.365 46.1344L203.448 46.3191V47.713L203.365 47.8071V46.8767C203.284 47.1555 203.284 47.4343 203.284 47.713L203.203 47.8071C203.203 47.1555 203.122 46.2267 203.284 45.5768H203.203C203.203 45.3904 203.203 45.1116 203.284 44.9251L203.203 44.8328C202.958 45.1116 203.039 45.8556 203.039 46.2267L202.958 45.8556V46.5979H203.039L202.958 46.8767V46.5979C202.794 46.0403 202.713 43.9964 202.713 43.4388C202.713 42.6024 202.877 41.7661 202.877 40.9297L202.958 41.1161L203.039 40.9297C203.039 41.7661 203.284 42.416 203.284 43.16V43.6253L203.203 43.7176H203.284ZM202.304 78.8454C202.304 78.2878 202.223 77.8226 202.223 77.265V76.4286L202.304 76.2439V76.6151L202.386 76.4286V76.2439L202.468 76.3363V77.8226C202.549 77.7302 202.549 77.5438 202.549 77.4514C202.63 78.009 202.63 78.4743 202.63 79.0318L202.304 78.8454ZM203.855 69.6453C203.855 69.7376 203.774 70.3893 203.774 70.3893C203.774 69.8317 203.529 69.2741 203.529 68.7165C203.529 68.4377 203.529 67.8802 203.693 67.6937C203.857 68.3437 203.857 68.9953 203.857 69.6453H203.855ZM201.896 72.8043C201.896 73.0831 202.304 74.7559 202.386 74.85L202.304 75.0347C202.304 74.6635 202.142 74.1059 201.978 73.8271C201.897 73.6407 201.815 73.3619 201.652 73.2696L201.815 72.8984V72.8043H201.896ZM202.468 42.2313C202.63 43.0677 202.63 43.904 202.468 44.6463V42.2313ZM202.958 39.8145V40.001H202.877C202.877 39.9069 202.794 39.8145 202.794 39.7222C202.794 39.5357 202.958 39.4434 203.039 39.4434V39.8145H202.958ZM202.877 47.4343C202.958 47.2496 202.877 47.1555 202.877 46.9708H202.958V47.1555L203.12 47.0631L203.039 47.5283L202.877 47.4343ZM203.938 58.8647C203.938 58.7724 204.019 58.5859 204.019 58.4936C204.019 58.5859 204.1 58.7724 204.1 58.8647V59.0512L203.938 59.1435V58.8647ZM210.96 51.1526C211.041 50.7798 211.286 50.501 211.45 50.2222V50.4086L210.96 51.1526ZM203.529 63.6042C203.448 63.9771 203.448 64.4406 203.448 64.9058C203.366 64.4458 203.366 63.9718 203.448 63.5118L203.529 63.6042ZM203.938 73.2696L204.019 73.0831C204.019 72.9908 204.019 72.8984 204.1 72.8984C204.1 73.0831 204.1 73.2696 204.019 73.456L203.938 73.3619V73.2696ZM203.448 48.1783C203.367 48.0859 203.365 47.9918 203.365 47.8071L203.448 47.8995V48.1783ZM203.857 70.9469C203.857 71.0392 203.857 71.0392 203.774 71.1316C203.774 71.1316 203.693 71.0392 203.693 70.9469C203.693 70.9469 203.774 70.8528 203.774 70.7604L203.857 70.9469ZM204.019 59.7011L203.938 59.33C204.019 59.4223 204.019 59.5164 204.102 59.6088L204.019 59.7011ZM203.612 51.0585C203.529 50.8738 203.529 50.6874 203.529 50.501C203.612 50.6874 203.612 50.8738 203.612 51.0585ZM202.877 40.7432C202.877 40.5585 202.877 40.4645 202.958 40.2798C202.958 40.4645 202.958 40.5585 202.877 40.7432ZM203.612 67.5073L203.693 67.6937C203.65 67.6905 203.61 67.6698 203.58 67.6355C203.55 67.6012 203.532 67.5557 203.529 67.5073H203.612ZM202.632 48.0859C202.632 47.9918 202.632 47.8071 202.713 47.713C202.713 47.8071 202.713 47.9918 202.632 48.0859ZM203.448 60.4451L203.367 60.2587C203.367 60.1663 203.367 60.1663 203.448 60.074V60.4451ZM203.367 49.2011V48.9223L203.448 49.0147L203.367 49.2011ZM202.958 76.9862C202.958 77.0803 202.958 77.1726 202.877 77.265V77.0803L202.958 76.9862ZM203.612 58.5859L203.529 58.4012V58.68L203.612 58.5859ZM202.304 73.6407C202.304 73.6407 202.223 73.6407 202.223 73.5483L202.304 73.456V73.6407ZM202.713 38.2341C202.632 38.0494 202.632 37.9553 202.713 37.863V38.2341ZM202.713 39.2569C202.713 39.1646 202.632 38.9781 202.632 38.8858C202.713 38.9781 202.713 39.1646 202.713 39.2569ZM202.958 77.6379L202.877 77.4514L202.958 77.3591V77.6379ZM202.958 40.2798V40.0933L203.039 40.3721L202.958 40.2798ZM203.774 71.4104L203.857 71.5045C203.857 71.5968 203.774 71.6892 203.774 71.6892V71.4104ZM202.794 43.6253L202.877 43.4388L202.794 43.3465V43.6253ZM202.387 75.1288C202.468 75.1288 202.468 75.2211 202.468 75.3134C202.387 75.3134 202.387 75.2211 202.387 75.1288ZM202.387 75.7787H202.304V75.5922L202.387 75.7787ZM203.203 52.5466C203.284 52.4525 203.284 52.4525 203.284 52.3602V52.4525L203.203 52.5466ZM203.529 61.2815H203.448V61.1892L203.529 61.2815ZM204.019 58.1224L204.102 58.2148H204.019V58.1224ZM202.387 74.5712H202.304V74.4771L202.387 74.5712ZM203.529 61.0951H203.448L203.529 61.0027V61.0951ZM203.367 78.8454C203.284 78.753 203.284 78.7531 203.284 78.659L203.367 78.8454Z" fill="white"/>
</g>
<defs>
<clipPath id="clip0_35_3">
<rect width="220.103" height="107.606" fill="white"/>
</clipPath>
</defs>
</svg>
