<?xml version="1.0" encoding="UTF-8"?>
<svg height="600" width="800" xmlns="http://www.w3.org/2000/svg" xmlns:xlink="http://www.w3.org/1999/xlink">
    <g id="Notes" font-family="'LucidaGrande', 'Lucida Grande', sans-serif" font-size="13">
        <rect fill="white" height="600.0" width="800.0" x="0.0" y="0.0" />
        <g font-size="13">
            <text x="18.0" y="176.0">Small</text>
            <text x="18.0" y="376.0">Medium</text>
            <text x="18.0" y="576.0">Large</text>
        </g>
        <g font-size="9">
            <text x="250.0" y="30.0">Ultralight</text>
            <text x="450.0" y="30.0">Regular</text>
            <text x="650.0" y="30.0">Black</text>
            <text id="template-version" fill="#505050" text-anchor="end" x="785.0" y="575.0">Template v.3.0</text>
            <a href="https://wangchujiang.com/#/app">
                <text fill="#505050" text-anchor="end" x="785.0" y="590.0">https://wangchujiang.com/#/app</text>
            </a>
        </g>
    </g>
    <g id="Guides" stroke="rgb(39, 170, 225)" stroke-width="0.5">
        <path id="Capline-S" d="M18,76 l800,0" />
        <path id="H-reference" d="M85,145.755 L87.685,145.755 L113.369,79.287 L114.052,79.287 L114.052,76 L112.148,76 L85,145.755 Z M95.693,121.536 L130.996,121.536 L130.263,119.313 L96.474,119.313 L95.693,121.536 Z M139.15,145.755 L141.787,145.755 L114.638,76 L113.466,76 L113.466,79.287 L139.15,145.755 Z" stroke="none" />
        <path id="Baseline-S" d="M18,146 l800,0" />
        <path id="left-margin-Ultralight-S" d="M219.999,56 l0,110" />
        <path id="right-margin-Ultralight-S" d="M310.001,56 l0,110" />
        <path id="left-margin-Regular-S" d="M419.999,56 l0,110" />
        <path id="right-margin-Regular-S" d="M510.001,56 l0,110" />
        <path id="left-margin-Black-S" d="M619.999,56 l0,110" />
        <path id="right-margin-Black-S" d="M710.001,56 l0,110" />
        <path id="Capline-M" d="M18,276 l800,0" />
        <path id="Baseline-M" d="M18,346 l800,0" />
        <path id="Capline-L" d="M18,476 l800,0" />
        <path id="Baseline-L" d="M18,546 l800,0" />
    </g>
    <g id="Symbols">
        <g id="Ultralight-S">
            <path d="M271.732,103.972 L271.732,103.982 C271.515,103.845 271.071,103.777 270.514,103.777 L270.514,117.825 C271.299,117.825 271.789,117.643 271.973,117.335 C272.154,117.04 272.246,116.162 272.246,114.76 L272.246,106.397 C272.246,105.439 272.235,104.825 272.154,104.562 C272.086,104.278 271.96,104.083 271.743,103.969 Z M295.372,76.002 L234.726,76.002 C232.204,76.147 230.18,78.141 229.999,80.662 L229.999,141.273 C230.17,143.826 232.073,145.773 234.534,145.989 C234.58,146 234.625,146 234.671,146 L295.466,146 C298.032,145.742 299.989,143.589 300.001,141.01 L300.001,80.99 C299.988,78.378 297.978,76.21 295.375,76 Z M243.979,121.574 L238.419,121.574 L238.419,100.097 L243.979,100.097 Z M263.05,121.574 L258.207,121.574 L258.207,107.071 L256.247,121.563 L252.784,121.563 L250.745,107.391 L250.723,121.563 L245.869,121.563 L245.869,100.097 L253.057,100.097 C253.309,101.613 253.525,103.151 253.729,104.689 L254.514,110.136 L255.814,100.097 L263.048,100.097 Z M277.566,115.217 C277.566,117.121 277.441,118.407 277.258,119.068 C277.118,119.663 276.786,120.196 276.313,120.583 C275.835,120.982 275.262,121.249 274.65,121.358 C274,121.482 272.988,121.574 271.677,121.574 L271.666,121.563 L264.944,121.563 L264.944,100.098 L269.103,100.098 C271.769,100.098 273.329,100.235 274.263,100.463 C275.208,100.725 275.939,101.123 276.44,101.694 C276.919,102.219 277.238,102.867 277.352,103.573 C277.5,104.258 277.568,105.625 277.568,107.664 Z M291.99,116.596 C291.99,117.906 291.853,118.829 291.728,119.49 C291.546,120.139 291.159,120.662 290.542,121.141 C289.882,121.631 289.14,121.848 288.263,121.848 C287.624,121.848 286.804,121.666 286.281,121.45 C285.699,121.14 285.186,120.713 284.776,120.196 L284.446,121.574 L279.432,121.574 L279.432,100.097 L279.375,100.087 L284.627,100.087 L284.627,107.082 C285.06,106.57 285.55,106.183 286.108,105.921 C286.752,105.675 287.436,105.547 288.125,105.544 C288.786,105.544 289.435,105.647 290.05,105.886 C290.551,106.091 290.984,106.422 291.325,106.844 C291.588,107.209 291.759,107.629 291.85,108.075 C291.929,108.473 291.975,109.329 291.975,110.604 L291.975,116.598 Z M285.645,108.679 C285.303,108.679 285.087,108.804 284.995,109.031 C284.903,109.27 284.824,109.873 284.824,110.853 L284.824,116.528 C284.824,117.473 284.903,118.09 284.995,118.35 C285.115,118.602 285.377,118.755 285.655,118.737 C285.997,118.737 286.441,118.599 286.533,118.326 C286.611,118.042 286.657,117.392 286.657,116.366 L286.749,116.355 L286.749,110.84 C286.749,109.963 286.703,109.359 286.579,109.086 C286.441,108.791 286.01,108.675 285.655,108.675 Z" />
        </g>
        <g id="Regular-S">
            <path d="M471.732,103.972 L471.732,103.982 C471.515,103.845 471.071,103.777 470.514,103.777 L470.514,117.825 C471.299,117.825 471.789,117.643 471.973,117.335 C472.154,117.04 472.246,116.162 472.246,114.76 L472.246,106.397 C472.246,105.439 472.235,104.825 472.154,104.562 C472.086,104.278 471.96,104.083 471.743,103.969 Z M495.372,76.002 L434.726,76.002 C432.204,76.147 430.18,78.141 429.999,80.662 L429.999,141.273 C430.17,143.826 432.073,145.773 434.534,145.989 C434.58,146 434.625,146 434.671,146 L495.466,146 C498.032,145.742 499.989,143.589 500.001,141.01 L500.001,80.99 C499.988,78.378 497.978,76.21 495.375,76 Z M443.979,121.574 L438.419,121.574 L438.419,100.097 L443.979,100.097 Z M463.05,121.574 L458.207,121.574 L458.207,107.071 L456.247,121.563 L452.784,121.563 L450.745,107.391 L450.723,121.563 L445.869,121.563 L445.869,100.097 L453.057,100.097 C453.309,101.613 453.525,103.151 453.729,104.689 L454.514,110.136 L455.814,100.097 L463.048,100.097 Z M477.566,115.217 C477.566,117.121 477.441,118.407 477.258,119.068 C477.118,119.663 476.786,120.196 476.313,120.583 C475.835,120.982 475.262,121.249 474.65,121.358 C474,121.482 472.988,121.574 471.677,121.574 L471.666,121.563 L464.944,121.563 L464.944,100.098 L469.103,100.098 C471.769,100.098 473.329,100.235 474.263,100.463 C475.208,100.725 475.939,101.123 476.44,101.694 C476.919,102.219 477.238,102.867 477.352,103.573 C477.5,104.258 477.568,105.625 477.568,107.664 Z M491.99,116.596 C491.99,117.906 491.853,118.829 491.728,119.49 C491.546,120.139 491.159,120.662 490.542,121.141 C489.882,121.631 489.14,121.848 488.263,121.848 C487.624,121.848 486.804,121.666 486.281,121.45 C485.699,121.14 485.186,120.713 484.776,120.196 L484.446,121.574 L479.432,121.574 L479.432,100.097 L479.375,100.087 L484.627,100.087 L484.627,107.082 C485.06,106.57 485.55,106.183 486.108,105.921 C486.752,105.675 487.436,105.547 488.125,105.544 C488.786,105.544 489.435,105.647 490.05,105.886 C490.551,106.091 490.984,106.422 491.325,106.844 C491.588,107.209 491.759,107.629 491.85,108.075 C491.929,108.473 491.975,109.329 491.975,110.604 L491.975,116.598 Z M485.645,108.679 C485.303,108.679 485.087,108.804 484.995,109.031 C484.903,109.27 484.824,109.873 484.824,110.853 L484.824,116.528 C484.824,117.473 484.903,118.09 484.995,118.35 C485.115,118.602 485.377,118.755 485.655,118.737 C485.997,118.737 486.441,118.599 486.533,118.326 C486.611,118.042 486.657,117.392 486.657,116.366 L486.749,116.355 L486.749,110.84 C486.749,109.963 486.703,109.359 486.579,109.086 C486.441,108.791 486.01,108.675 485.655,108.675 Z" />
        </g>
        <g id="Black-S">
            <path d="M671.732,103.972 L671.732,103.982 C671.515,103.845 671.071,103.777 670.514,103.777 L670.514,117.825 C671.299,117.825 671.789,117.643 671.973,117.335 C672.154,117.04 672.246,116.162 672.246,114.76 L672.246,106.397 C672.246,105.439 672.235,104.825 672.154,104.562 C672.086,104.278 671.96,104.083 671.743,103.969 Z M695.372,76.002 L634.726,76.002 C632.204,76.147 630.18,78.141 629.999,80.662 L629.999,141.273 C630.17,143.826 632.073,145.773 634.534,145.989 C634.58,146 634.625,146 634.671,146 L695.466,146 C698.032,145.742 699.989,143.589 700.001,141.01 L700.001,80.99 C699.988,78.378 697.978,76.21 695.375,76 Z M643.979,121.574 L638.419,121.574 L638.419,100.097 L643.979,100.097 Z M663.05,121.574 L658.207,121.574 L658.207,107.071 L656.247,121.563 L652.784,121.563 L650.745,107.391 L650.723,121.563 L645.869,121.563 L645.869,100.097 L653.057,100.097 C653.309,101.613 653.525,103.151 653.729,104.689 L654.514,110.136 L655.814,100.097 L663.048,100.097 Z M677.566,115.217 C677.566,117.121 677.441,118.407 677.258,119.068 C677.118,119.663 676.786,120.196 676.313,120.583 C675.835,120.982 675.262,121.249 674.65,121.358 C674,121.482 672.988,121.574 671.677,121.574 L671.666,121.563 L664.944,121.563 L664.944,100.098 L669.103,100.098 C671.769,100.098 673.329,100.235 674.263,100.463 C675.208,100.725 675.939,101.123 676.44,101.694 C676.919,102.219 677.238,102.867 677.352,103.573 C677.5,104.258 677.568,105.625 677.568,107.664 Z M691.99,116.596 C691.99,117.906 691.853,118.829 691.728,119.49 C691.546,120.139 691.159,120.662 690.542,121.141 C689.882,121.631 689.14,121.848 688.263,121.848 C687.624,121.848 686.804,121.666 686.281,121.45 C685.699,121.14 685.186,120.713 684.776,120.196 L684.446,121.574 L679.432,121.574 L679.432,100.097 L679.375,100.087 L684.627,100.087 L684.627,107.082 C685.06,106.57 685.55,106.183 686.108,105.921 C686.753,105.675 687.436,105.547 688.125,105.544 C688.786,105.544 689.435,105.647 690.05,105.886 C690.551,106.091 690.984,106.422 691.326,106.844 C691.588,107.209 691.759,107.629 691.85,108.075 C691.929,108.473 691.975,109.329 691.975,110.604 L691.975,116.598 Z M685.645,108.679 C685.303,108.679 685.087,108.804 684.995,109.031 C684.903,109.27 684.824,109.873 684.824,110.853 L684.824,116.528 C684.824,117.473 684.903,118.09 684.995,118.35 C685.115,118.602 685.377,118.755 685.655,118.737 C685.997,118.737 686.441,118.599 686.533,118.326 C686.611,118.042 686.657,117.392 686.657,116.366 L686.749,116.355 L686.749,110.84 C686.749,109.963 686.703,109.359 686.579,109.086 C686.441,108.791 686.01,108.675 685.655,108.675 Z" />
        </g>
    </g>
</svg>