<?xml version="1.0" encoding="UTF-8"?>
<svg height="600" width="800" xmlns="http://www.w3.org/2000/svg" xmlns:xlink="http://www.w3.org/1999/xlink">
    <g id="Notes" font-family="'LucidaGrande', 'Lucida Grande', sans-serif" font-size="13">
        <rect fill="white" height="600.0" width="800.0" x="0.0" y="0.0" />
        <g font-size="13">
            <text x="18.0" y="176.0">Small</text>
            <text x="18.0" y="376.0">Medium</text>
            <text x="18.0" y="576.0">Large</text>
        </g>
        <g font-size="9">
            <text x="250.0" y="30.0">Ultralight</text>
            <text x="450.0" y="30.0">Regular</text>
            <text x="650.0" y="30.0">Black</text>
            <text id="template-version" fill="#505050" text-anchor="end" x="785.0" y="575.0">Template v.3.0</text>
            <a href="https://wangchujiang.com/#/app">
                <text fill="#505050" text-anchor="end" x="785.0" y="590.0">https://wangchujiang.com/#/app</text>
            </a>
        </g>
    </g>
    <g id="Guides" stroke="rgb(39, 170, 225)" stroke-width="0.5">
        <path id="Capline-S" d="M18,76 l800,0" />
        <path id="H-reference" d="M85,145.755 L87.685,145.755 L113.369,79.287 L114.052,79.287 L114.052,76 L112.148,76 L85,145.755 Z M95.693,121.536 L130.996,121.536 L130.263,119.313 L96.474,119.313 L95.693,121.536 Z M139.15,145.755 L141.787,145.755 L114.638,76 L113.466,76 L113.466,79.287 L139.15,145.755 Z" stroke="none" />
        <path id="Baseline-S" d="M18,146 l800,0" />
        <path id="left-margin-Ultralight-S" d="M220,56 l0,110" />
        <path id="right-margin-Ultralight-S" d="M310,56 l0,110" />
        <path id="left-margin-Regular-S" d="M420,56 l0,110" />
        <path id="right-margin-Regular-S" d="M510,56 l0,110" />
        <path id="left-margin-Black-S" d="M620,56 l0,110" />
        <path id="right-margin-Black-S" d="M710,56 l0,110" />
        <path id="Capline-M" d="M18,276 l800,0" />
        <path id="Baseline-M" d="M18,346 l800,0" />
        <path id="Capline-L" d="M18,476 l800,0" />
        <path id="Baseline-L" d="M18,546 l800,0" />
    </g>
    <g id="Symbols">
        <g id="Ultralight-S">
            <path d="M300,111 C300,130.335 284.306,146 264.944,146 C248.883,146 235.363,135.232 231.214,120.54 L244.649,126.087 C245.552,130.617 249.575,134.046 254.373,134.046 C259.905,134.046 264.52,129.474 264.28,123.673 L276.206,115.177 C283.558,115.361 289.726,109.405 289.726,101.982 C289.726,94.7 283.798,88.786 276.502,88.786 C269.206,88.786 263.278,94.714 263.278,101.982 L263.278,102.151 L254.923,114.246 C252.736,114.119 250.591,114.726 248.784,115.954 L230,108.192 C231.44,90.169 246.526,76 264.944,76 C284.306,76 300,91.665 300,111 Z M251.974,129.107 L247.669,127.329 C248.46,128.971 249.826,130.266 251.508,130.97 C255.304,132.55 259.665,130.744 261.246,126.962 C262.008,125.127 262.022,123.109 261.26,121.274 C260.498,119.44 259.073,118 257.238,117.238 C255.417,116.476 253.47,116.504 251.748,117.153 L256.194,118.988 C258.988,120.145 260.315,123.349 259.143,126.143 C257.972,128.952 254.768,130.264 251.974,129.107 Z M276.502,110.774 C271.647,110.774 267.696,106.823 267.696,101.982 C267.696,97.141 271.647,93.19 276.502,93.19 C281.357,93.19 285.308,97.141 285.308,101.982 C285.308,106.823 281.371,110.774 276.502,110.774 Z M276.516,108.573 C280.171,108.573 283.135,105.609 283.135,101.968 C283.135,98.312 280.171,95.363 276.516,95.363 C272.861,95.363 269.897,98.327 269.897,101.968 C269.911,105.609 272.875,108.573 276.516,108.573 Z" />
        </g>
        <g id="Regular-S">
            <path d="M500,111 C500,130.335 484.306,146 464.944,146 C448.883,146 435.363,135.232 431.214,120.54 L444.649,126.087 C445.552,130.617 449.575,134.046 454.373,134.046 C459.905,134.046 464.52,129.474 464.28,123.673 L476.206,115.177 C483.558,115.361 489.726,109.405 489.726,101.982 C489.726,94.7 483.798,88.786 476.502,88.786 C469.206,88.786 463.278,94.714 463.278,101.982 L463.278,102.151 L454.923,114.246 C452.736,114.119 450.591,114.726 448.784,115.954 L430,108.192 C431.44,90.169 446.526,76 464.944,76 C484.306,76 500,91.665 500,111 Z M451.974,129.107 L447.669,127.329 C448.46,128.971 449.826,130.266 451.508,130.97 C455.304,132.55 459.665,130.744 461.246,126.962 C462.008,125.127 462.022,123.109 461.26,121.274 C460.498,119.44 459.073,118 457.238,117.238 C455.417,116.476 453.47,116.504 451.748,117.153 L456.194,118.988 C458.988,120.145 460.315,123.349 459.143,126.143 C457.972,128.952 454.768,130.264 451.974,129.107 Z M476.502,110.774 C471.647,110.774 467.696,106.823 467.696,101.982 C467.696,97.141 471.647,93.19 476.502,93.19 C481.357,93.19 485.308,97.141 485.308,101.982 C485.308,106.823 481.371,110.774 476.502,110.774 Z M476.516,108.573 C480.171,108.573 483.135,105.609 483.135,101.968 C483.135,98.312 480.171,95.363 476.516,95.363 C472.861,95.363 469.897,98.327 469.897,101.968 C469.911,105.609 472.875,108.573 476.516,108.573 Z" />
        </g>
        <g id="Black-S">
            <path d="M700,111 C700,130.335 684.306,146 664.944,146 C648.883,146 635.363,135.232 631.214,120.54 L644.649,126.087 C645.552,130.617 649.575,134.046 654.373,134.046 C659.905,134.046 664.52,129.474 664.28,123.673 L676.206,115.177 C683.558,115.361 689.726,109.405 689.726,101.982 C689.726,94.7 683.798,88.786 676.502,88.786 C669.206,88.786 663.278,94.714 663.278,101.982 L663.278,102.151 L654.923,114.246 C652.736,114.119 650.591,114.726 648.784,115.954 L630,108.192 C631.44,90.169 646.526,76 664.944,76 C684.306,76 700,91.665 700,111 Z M651.974,129.107 L647.669,127.329 C648.46,128.971 649.826,130.266 651.508,130.97 C655.304,132.55 659.665,130.744 661.246,126.962 C662.008,125.127 662.022,123.109 661.26,121.274 C660.498,119.44 659.073,118 657.238,117.238 C655.417,116.476 653.47,116.504 651.748,117.153 L656.194,118.988 C658.988,120.145 660.315,123.349 659.143,126.143 C657.972,128.952 654.768,130.264 651.974,129.107 Z M676.502,110.774 C671.647,110.774 667.696,106.823 667.696,101.982 C667.696,97.141 671.647,93.19 676.502,93.19 C681.357,93.19 685.308,97.141 685.308,101.982 C685.308,106.823 681.371,110.774 676.502,110.774 Z M676.516,108.573 C680.171,108.573 683.135,105.609 683.135,101.968 C683.135,98.312 680.171,95.363 676.516,95.363 C672.861,95.363 669.897,98.327 669.897,101.968 C669.911,105.609 672.875,108.573 676.516,108.573 Z" />
        </g>
    </g>
</svg>