<?xml version="1.0" encoding="UTF-8"?>
<svg width="1024px" height="1024px" viewBox="0 0 1024 1024" version="1.1" xmlns="http://www.w3.org/2000/svg" xmlns:xlink="http://www.w3.org/1999/xlink">
    <title>1024x1024 copy 2@1x</title>
    <g id="1024x1024-copy-2" stroke="none" stroke-width="1" fill="none" fill-rule="evenodd">
        <rect id="Rectangle" x="0" y="0" width="1024" height="1024"></rect>
        <g id="Layer-1-Copy-5" transform="translate(70, 128)" fill="#30665C" fill-opacity="0.95" fill-rule="nonzero">
            <path d="M539.86107,182.371706 C534.060414,182.171627 526.259532,181.571391 532.26021,172.167694 C536.860731,165.064901 554.562733,142.556051 554.562733,107.542284 C554.562733,60.823915 520.858921,0 441.849983,0 C371.842064,0 329.437267,52.9208077 329.437267,107.542284 C329.437267,135.253179 341.338613,155.261046 349.939586,169.266553 C353.740016,175.468992 356.940378,182.771863 344.13893,182.371706 L274.231022,182.571784 C213.824188,182.571784 182.320625,213.383899 182.320625,272.707224 L182.320625,381.149862 C182.320625,386.05179 179.220274,388.252655 173.719652,384.651239 C154.517479,371.145929 132.615002,361.542153 107.512162,361.542153 C51.0057699,361.542153 0,406.859971 0,473.986364 C0,541.112757 51.0057699,586.430576 107.512162,586.430576 C132.615002,586.430576 154.517479,576.626721 173.719652,563.421529 C179.320285,559.419955 182.320625,562.020978 182.320625,566.622787 L182.320625,672.86456 C182.320625,732.187885 213.824188,763 274.231022,763 L373.742279,763 C398.645096,763 414.546894,746.49351 414.546894,725.985446 C414.546894,714.380884 409.946374,702.576242 398.94513,690.97168 C385.843647,676.365937 377.342686,659.759407 377.342686,641.952406 C377.342686,607.238757 402.445526,578.927626 441.749972,578.927626 C481.054418,578.927626 506.157258,607.338796 506.157258,641.952406 C506.157258,659.659368 497.95633,676.265897 484.554814,690.97168 C473.853603,702.476203 469.353094,714.280844 469.353094,725.985446 C469.353094,746.49351 485.254893,763 510.15771,763 L609.668967,763 C669.775766,763 701.27933,732.187885 701.27933,672.86456 L701.27933,566.622787 C701.27933,562.020978 704.679715,559.419955 710.280348,563.421529 C729.082475,576.626721 751.384998,586.430576 776.187804,586.430576 C832.99423,586.430576 884,540.812639 884,473.986364 C884,407.160089 832.99423,361.542153 776.187804,361.542153 C751.384998,361.542153 729.182487,371.04589 710.280348,384.651239 C704.679715,388.252655 701.27933,386.05179 701.27933,381.149862 L701.27933,272.707224 C701.27933,213.383899 669.775766,182.571784 609.668967,182.571784 M484.554814,158.762423 C475.85383,167.465845 468.653015,182.871902 469.353094,193.77619 C469.453106,195.776977 469.853151,209.982562 480.554361,220.086535 C490.655504,229.79035 504.557077,230.790743 510.15771,230.790743 C528.559792,230.790743 538.660934,230.990822 539.961082,230.990822 L609.168911,230.990822 C637.072067,230.990822 653.2739,246.797037 653.2739,275.408286 L653.2739,405.759538 C653.2739,430.669333 669.775766,446.875705 690.57812,446.875705 C701.879398,446.875705 713.680733,441.973777 725.182034,431.269569 C739.783686,417.864298 756.385564,409.661073 774.187578,409.661073 C808.491458,409.661073 837.194705,435.271142 837.194705,474.086404 C837.194705,512.901665 808.491458,538.511735 774.187578,538.511735 C756.385564,538.511735 739.883697,530.008391 725.182034,516.903238 C713.680733,506.19903 701.879398,501.397142 690.57812,501.397142 C669.775766,501.397142 653.2739,517.203356 653.2739,542.21319 L653.2739,670.363577 C653.2739,698.974826 637.072067,714.781041 609.168911,714.781041 L539.961082,714.781041 C525.859486,714.781041 530.259984,707.578209 534.160425,701.675888 C545.761738,683.768848 554.662745,663.360823 554.662745,639.951619 C554.662745,582.72912 509.457631,532.409335 441.949994,532.409335 C374.442358,532.409335 329.537278,582.72912 329.537278,639.951619 C329.537278,663.460863 338.438285,683.868887 350.039597,701.675888 C353.640005,707.578209 358.340536,714.781041 344.238941,714.781041 L275.031112,714.781041 C247.127956,714.781041 230.626089,698.974826 230.626089,670.363577 L230.626089,542.21319 C230.626089,517.303396 214.424256,501.397142 193.621903,501.397142 C182.320625,501.397142 170.419278,506.19903 158.617943,516.903238 C144.216314,530.008391 127.714447,538.511735 109.912434,538.511735 C75.608553,538.511735 46.6052721,512.701586 46.6052721,474.086404 C46.6052721,435.471221 75.7085643,409.661073 109.912434,409.661073 C127.614436,409.661073 144.216314,417.864298 158.617943,431.269569 C170.419278,441.973777 182.320625,446.875705 193.621903,446.875705 C214.424256,446.875705 230.626089,430.669333 230.626089,405.759538 L230.626089,275.408286 C230.626089,246.797037 247.227967,230.990822 275.031112,230.990822 L344.238941,230.990822 C353.640005,230.990822 363.507787,230.924129 373.84229,230.790743 C403.845684,230.790743 414.646906,209.382326 414.646906,193.77619 C414.646906,175.969188 406.746012,168.466238 399.045141,158.762423 C376.442584,130.351252 377.64272,115.64547 377.442697,109.743149 C376.442584,85.0334339 394.744654,46.718369 441.849983,46.718369 C459.651997,46.718369 482.954633,54.6214763 496.056115,74.2291858 C498.456386,77.8306018 507.157371,91.6360299 506.057246,109.743149 C505.357167,121.747869 503.25693,137.854202 484.454803,158.762423" id="Shape"></path>
            <g id="Asset-6" transform="translate(333.0377, 310.1219)" stroke="#30665C" stroke-opacity="0.95">
                <ellipse id="Oval" stroke-width="20" cx="23.9027039" cy="23.9094008" rx="23.9027039" ry="23.9094008"></ellipse>
                <ellipse id="Oval" stroke-width="20" cx="193.921937" cy="23.9094008" rx="23.9027039" ry="23.9094008"></ellipse>
                <path d="M109.512388,150.059001 C152.617264,149.758883 159.518045,110.043267 154.517479,107.542284 C147.016631,105.041301 152.617264,142.556051 109.512388,142.556051 C109.512388,142.556051 109.512388,150.059001 109.512388,150.059001 Z" id="Oval-Copy" stroke-width="30"></path>
                <path d="M63.2431441,150.059001 C106.34802,149.758883 113.248801,110.043267 108.248235,107.542284 C100.747387,105.041301 106.210178,142.556051 63.1053015,142.556051 C63.1053015,142.556051 63.2431441,150.059001 63.2431441,150.059001 Z" id="Oval-Copy-4" stroke-width="30" transform="translate(86.3778, 128.7408) scale(-1, 1) translate(-86.3778, -128.7408)"></path>
            </g>
        </g>
    </g>
</svg>